<?xml version="1.0" standalone="no"?>
<!DOCTYPE svg PUBLIC "-//W3C//DTD SVG 1.1//EN" "http://www.w3.org/Graphics/SVG/1.1/DTD/svg11.dtd" >
<svg xmlns="http://www.w3.org/2000/svg" xmlns:xlink="http://www.w3.org/1999/xlink" version="1.1">
<metadata>
Created by FontForge 20170924 at Tue Mar 23 14:13:49 2021
 By www-data
Gasthony Signature(c)(Sronstudio). 2021. All Rights Reserved
</metadata>
<defs>
<font id="GasthonySignature" horiz-adv-x="1741" >
  <font-face 
    font-family="Gasthony Signature"
    font-weight="400"
    font-stretch="normal"
    units-per-em="1000"
    panose-1="2 0 5 0 0 0 0 0 0 0"
    ascent="800"
    descent="-200"
    x-height="412"
    cap-height="1578"
    bbox="-630 -1314 3353 2095"
    underline-thickness="50"
    underline-position="-100"
    unicode-range="U+001D-E06D"
  />
<missing-glyph horiz-adv-x="500" 
 />
    <glyph glyph-name="tt." unicode="tt" horiz-adv-x="589" 
d="M268 182q-49 -66 -87 -102q-61 -58 -109 -58q-24 0 -47 15q-51 36 -51 119q0 120 153 482q35 81 94 195q-159 -4 -312 -14q-25 3 -28.5 12t-3.5 14q0 8 6 16q8 11 23 11h3q196 -7 328 -7q32 60 69 128q46 89 79 91q22 -5 22 -24q0 -21 -31 -72q-7 -10 -11 -18
q-20 -35 -61 -104q88 1 144 3l85 1q37 71 65 122q46 89 79 91q22 -5 22 -24q0 -21 -31 -72q-7 -10 -11 -18q-16 -27 -57 -97q350 9 456 17q41 -1 41 -26t-41 -25q-121 2 -247 2l-191 -1h-38l-6 -10q-63 -106 -117 -212q-146 -291 -146 -475q0 -28 7 -52q10 -38 48 -38
q41 0 98 63q60 66 104 150q19 34 34 34q5 0 10.5 -5t5.5 -14q0 -14 -14 -36q-77 -113 -131 -165q-61 -58 -109 -58q-24 0 -47 15q-51 36 -51 119q0 12 2 27zM516 838h-34q-69 0 -196 -3l-6 -10q-61 -101 -115 -207q-146 -291 -146 -475q0 -28 7 -52q10 -38 48 -38
q41 0 98 63q60 66 101 143q10 20 13.5 28t9.5 23q38 126 123 327q35 81 89 184q4 9 8 17z" />
    <glyph glyph-name="ll." unicode="ll" horiz-adv-x="592" 
d="M262 182q-51 -71 -91 -109q-60 -58 -108 -58q-24 0 -47 14q-51 36 -51 119q0 77 50 223q59 175 162.5 389.5t235.5 453.5l44 72q19 26 40 27q21 -5 22 -21q0 -16 -10 -36q-8 -17 -40 -61q-51 -80 -110 -179t-150.5 -280.5t-155.5 -372.5q-44 -133 -44 -228q0 -90 54 -90
q43 0 100 62.5t109 161.5q8 14 13.5 24.5t10.5 25.5q59 183 216 496l99 189l48 88q19 26 40 27q21 -5 22 -21q0 -16 -10 -36q-8 -17 -42 -67q-42 -69 -113 -193q-144 -250 -208 -441q-44 -133 -44 -228q0 -90 54 -90q43 0 100 62.5t109 161.5q19 34 35 34q5 0 10.5 -5
t5.5 -14q0 -14 -15 -36q-80 -121 -137 -175q-60 -58 -108 -58q-24 0 -47 14q-51 36 -51 119q0 16 2 36z" />
    <glyph glyph-name="tl." unicode="tl" horiz-adv-x="586" 
d="M267 182q-48 -66 -86 -102q-61 -58 -109 -58q-24 0 -47 15q-51 36 -51 119q0 120 153 482q38 88 105 216l-108 -1q-282 0 -573 -19q-25 3 -28.5 12t-3.5 14q0 8 7 17.5t24 9.5q173 -6 303 -6q150 0 237 3q85 2 160 5q26 49 56 104q46 89 79 91q22 -5 22 -24
q0 -21 -31 -72q-7 -10 -11 -18q-14 -26 -45 -78q132 5 229 12q5 0 9 -1q118 230 214 387q19 26 40 27q21 -5 22 -21q0 -16 -10 -36q-8 -17 -33 -57q-46 -83 -106 -182.5t-123 -208.5q-252 -436 -252 -669q0 -90 54 -90q43 0 100 62.5t103 150.5q19 34 35 34q5 0 10.5 -5
t5.5 -14q0 -14 -15 -36q-74 -110 -131 -164q-60 -58 -108 -58q-24 0 -47 14q-51 36 -51 119q0 12 1 26zM298 855l-18 -30q-261 -433 -261 -682q0 -90 55 -90q41 0 98 63q60 66 104 150q6 11 12 19q53 187 230 540l14 28q-113 2 -230 2h-4z" />
    <glyph glyph-name=".notdef" horiz-adv-x="500" 
 />
    <glyph glyph-name=".null" horiz-adv-x="0" 
 />
    <glyph glyph-name=".null" horiz-adv-x="0" 
 />
    <glyph glyph-name="nonmarkingreturn" horiz-adv-x="208" 
 />
    <glyph glyph-name="space" unicode=" " horiz-adv-x="500" 
 />
    <glyph glyph-name="space" unicode="&#xa0;" horiz-adv-x="500" 
 />
    <glyph glyph-name="A" unicode="A" horiz-adv-x="1365" 
d="M36 -940q-13 0 -24.5 9t-11.5 27q0 2 0.5 13t24.5 33q62 63 244 315t399 586q-75 -7 -142 -7q-332 0 -332 216q0 252 390 656q161 166 344.5 318t342.5 244q98 56 159 56h3q62 -7 62 -90q0 -65 -34 -174q-3 -10 -5 -18q-40 -138 -98.5 -297.5t-126.5 -332.5
q-111 -287 -135 -345l-44 -110q191 62 315 135q5 4 10 4q11 0 11 -12q0 -9 -9 -16q-152 -92 -344 -152q-206 -509 -206 -785q0 -44 9 -107.5t52 -121.5q3 -5 3 -10q0 -7 -9 -16q-13 -14 -33 -14q-11 0 -19 8q-60 71 -60 213q0 272 220 821q-137 -40 -278 -58
q-364 -569 -627 -955q-24 -33 -51 -33zM611 74q35 0 81 6q216 334 407 656q199 336 288 532q59 132 59 186q0 34 -26 35q-129 -3 -385 -208q-268 -214 -506 -481q-109 -121 -168 -207q-62 -93 -97 -197q-22 -65 -22 -118q0 -116 110 -165q88 -40 215 -40zM738 86
q138 20 271 60q45 110 81 195l37 91q206 504 290 813q-184 -379 -679 -1159z" />
    <glyph glyph-name="B" unicode="B" horiz-adv-x="1710" 
d="M337 -871q42 0 79 8q223 49 450 246q246 212 442 511q214 326 225 493l1 19q-109 -38 -286.5 -124.5t-346 -180.5t-259.5 -150q-141 -99 -196.5 -144t-121.5 -110.5t-124 -132.5t-92.5 -131.5t-34.5 -118.5q0 -62 41 -106q36 -38 88 -57t87.5 -20.5t47.5 -1.5zM344 -915
q-57 0 -113 13q-117 28 -166 102q-27 39 -28 94q5 120 129 279q100 128 232 242q136 117 402 269q322 184 727 362q-16 69 -56.5 118.5t-97 82.5t-120 50t-101.5 19t-49 2q-136 0 -172 -48q-40 -60 -121 -209q-17 -33 -33 -62q-55 -109 -107 -218q-31 -67 -64 -133
q-20 -38 -53 -38q-22 0 -22 33q0 23 11 43q122 268 258 528l-107 -43q-16 -6 -28 -6q-24 0 -31 25l-1 3q0 31 50 49q71 28 159 56q198 345 271 552q37 107 37 169q0 83 -64 83q-74 0 -165 -55q-143 -87 -340 -271q-217 -202 -364 -406q-170 -236 -179 -400v-14
q0 -82 63 -127q45 -37 120 -51q17 -4 19 -12.5t2 -11.5q0 -10 -7 -20t-24 -10q-83 16 -133 55q-78 65 -78 178q0 93 55 209q94 199 304 428q190 207 391 364q229 176 336 176q49 0 72 -37q15 -27 15 -68q0 -149 -174 -521l-66 -138q-22 -44 -34 -70q9 11 62 90
q186 279 297 429q159 215 275 283q59 35 97 35q44 0 60 -33q14 -30 14 -63q0 -67 -40 -153q-64 -138 -238 -288q-152 -131 -319 -234l-24 -17q43 0 103 -9.5t124 -30.5t119.5 -54t92 -80t41.5 -109q29 15 204 81q10 3 18 3q9 0 15 -4q10 -7 10 -17q0 -15 -20 -23l-64 -23
q-129 -44 -159 -61q0 -157 -121 -381q-112 -207 -298 -418q-182 -207 -373 -350q-199 -150 -349 -181q-36 -7 -82 -7zM698 319q34 61 96 179q71 134 74 147q-12 -8 -83 -143.5t-87 -182.5zM977 740q198 108 391.5 276t258.5 309q30 65 32 92t2 33q0 38 -22 52q-9 6 -22 6
q-65 0 -199 -139q-71 -77 -236 -309q-182 -256 -205 -320z" />
    <glyph glyph-name="C" unicode="C" horiz-adv-x="1308" 
d="M330 -930q-64 0 -116 27q-63 31 -106 91q-85 114 -85 309q0 27 3 77q7 113 49 279q80 313 267 670q87 167 192 325q219 330 440 514q187 156 297 156q76 0 91 -74q8 -36 8 -80q0 -137 -76 -354q-70 -196 -180 -390q-47 -82 -98 -152q-88 -119 -147 -119q-35 0 -35 28
q0 26 25 29q49 11 127 105q96 117 192 314q45 91 81 190q76 207 76 342v25q-1 63 -22 83q-18 16 -45 16q-63 0 -158.5 -65t-208.5 -183q-215 -222 -420 -563q-101 -166 -179 -331q-243 -505 -243 -842q0 -175 79 -279q40 -55 96 -83q50 -25 109 -25q112 0 227 96
q132 112 297 348q174 249 359 593q77 142 82.5 146.5t11.5 5.5q12 0 12 -17l-1 -7q-1 -7 -63 -119q-138 -248 -222 -386q-260 -417 -459 -587q-133 -112 -257 -113z" />
    <glyph glyph-name="D" unicode="D" horiz-adv-x="1882" 
d="M273 -977q-27 0 -79.5 6.5t-104.5 45.5q-89 69 -89 198q0 41 10 86q24 105 84 202q112 179 319 338q109 84 213 143q101 207 200 412q188 388 274 552q40 80 69 153q57 143 57 222q0 20 -4.5 39t-19.5 32.5t-42 13.5q-124 0 -344 -208q-223 -212 -413 -481
q-85 -121 -127 -208q-24 -50 -42 -111q-22 -76 -22 -147q0 -194 189 -228q17 -5 17 -25q0 -27 -31 -28q-132 24 -186 127q-33 59 -33 143q0 290 405 748q234 266 441 398q88 56 146 56q46 0 73 -41q19 -35 19 -81q0 -136 -127 -378q-111 -217 -342 -709q464 830 762 1061
q141 110 250 110q3 0 27 -1t62 -25q98 -66 98 -283q0 -225 -87 -489l-13 -44q-104 -298 -284 -583q-157 -249 -351 -457q-300 -322 -637 -472q-194 -87 -337 -87zM253 -946q65 0 145 18q155 36 321 134q276 161 533 441q190 208 318 411q127 220 245 537q112 373 112 587
q0 16 -1.5 62t-22.5 101.5t-68 75.5q-19 9 -45 9q-33 0 -77 -16q-143 -54 -310 -242q-282 -323 -690 -1078q618 356 644 356q19 0 21 -20l-1 -7q-3 -11 -31 -24q-300 -149 -664 -362q-148 -281 -218 -427q-2 -4 -6 -7q-29 -61 -56 -113l-20 -49q-17 -32 -46 -32
q-18 0 -18 28q0 19 9 36q100 172 271 513q-80 -50 -168 -120q-197 -156 -307 -328q-92 -144 -92 -289q0 -6 1 -36t24 -69q55 -90 197 -90z" />
    <glyph glyph-name="E" unicode="E" horiz-adv-x="959" 
d="M456 -797q-132 0 -216 79q-92 88 -92 257q0 92 29 212t99 307q25 66 41 124q-94 -45 -232 -164q-64 -57 -83 -88q-9 -17 -19 -17q-4 0 -8 2q-13 6 -13 18q0 58 273 238q33 23 54.5 34t38.5 24t29 40q86 196 178 386q198 411 423 724q-248 -59 -607 -227
q-86 -46 -149 -103q-15 -22 -16.5 -36.5t-16.5 -15.5q-34 0 -34 32q0 36 176 136q124 69 300 134q214 77 304 98q21 3 42 9q26 8 43 34q67 110 87 110q21 0 21 -16q0 -25 -50 -88l-12 -16q273 65 537 65q13 0 72.5 -0.5t147.5 -19.5q148 -31 202 -114q16 -26 16 -56
q0 -69 -38 -69q-8 0 -18 3q-20 10 -20 27q0 8 3 16q15 29 15 48q0 8 -5 25q-14 38 -145 70t-300 32q-161 0 -367 -40q-90 -16 -118 -30q-49 -26 -358 -574q-234 -410 -273 -542q48 27 128 53q91 31 175 31q18 -2 18 -20q0 -23 -41 -23q-12 0 -23 -2q-116 -18 -209 -54
q-60 -24 -72 -34q-17 -16 -69 -171q-60 -166 -87 -318q-19 -97 -19 -175q0 -168 77 -242t176 -74q75 0 160 43q104 53 266 205l118 122q13 17 28 17q6 0 13 -3q11 -6 11 -16q0 -16 -31 -46l-104 -104q-37 -31 -74 -66q-31 -29 -66 -58q-77 -66 -169 -103q-71 -30 -147 -30z
" />
    <glyph glyph-name="F" unicode="F" horiz-adv-x="887" 
d="M23 -870q-23 0 -25 31l1 17q62 209 229 616q107 258 137 362q-121 -62 -240 -162q-83 -70 -97 -99q-12 -19 -21 -19l-7 1q-15 7 -15 20q0 23 46 69q77 74 236 177q32 20 61 36q41 21 62 42q145 364 145 570q0 96 -39 157q-44 76 -145 76q-47 0 -109 -18q-21 -13 -48 -13
q-30 0 -30 33q0 36 180 140q135 74 310 138q198 72 306 99q19 4 38 11q24 9 42 37l45 68q5 8 16 18q27 26 43 26q24 0 24 -16q0 -25 -53 -90l-13 -18q67 17 162 33q210 34 391 34q16 0 76.5 -1t152.5 -20t152 -61q71 -51 71 -116q0 -21 -7 -42q-10 -20 -32 -20q-9 0 -21 3
q-15 11 -15 27q0 8 5 18q11 25 11 41q0 8 -6 24.5t-40.5 36.5t-106.5 38q-139 33 -307 33q-164 0 -337 -33l-47 -8q-88 -15 -126 -32q-28 -14 -49 -45q-150 -199 -470 -864q-74 -154 -117 -236q90 49 205 74q43 8 90 8q15 0 21 -4t6 -16q0 -24 -41 -24q-54 -3 -143 -22
q-115 -37 -154 -64q-26 -16 -199 -520q-103 -299 -164 -508q-11 -43 -40 -43zM479 400l36 79q64 139 142.5 303.5t165.5 323.5t175 281q-241 -57 -602 -234q-98 -54 -164 -113q66 17 115 17q3 0 29 -0.5t71 -20.5q110 -52 110 -240q0 -158 -78 -396z" />
    <glyph glyph-name="G" unicode="G" horiz-adv-x="1624" 
d="M656 -904q46 0 112 49q110 81 246 320q128 225 229 468q40 97 51 136q-191 -123 -327 -251t-219 -246.5t-117 -210.5q-41 -114 -41 -179q0 -86 66 -86zM655 -935q-54 0 -83 38.5t-29 101.5q0 80 46 189q85 192 321 412q191 178 399 318q213 469 254 558q61 130 260 539
l39 77q23 44 29 65q-128 -156 -369 -482q-186 -253 -303 -399t-216 -225.5t-149.5 -92.5t-73.5 -13q-42 0 -72 22q-46 34 -54 88t-8 84q0 65 18 149q-109 -71 -210 -121.5t-173.5 -70t-121.5 -19.5q-100 0 -148 66q-11 21 -11 37q0 19 10.5 25t19.5 6q20 0 35 -23
q18 -40 55.5 -46t58.5 -6q114 0 287 79q101 46 209 118q26 101 82 225q28 62 64 123q6 11 14 22q13 19 22 37l54 80l71 95q8 9 14 17q26 36 101 109q122 118 243.5 197t200.5 79q55 0 65 -27q6 -16 6 -29q0 -55 -60 -146q-105 -164 -337 -385q-225 -215 -481 -394
q-5 -4 -34 -24q-28 -100 -28 -172q0 -97 41 -130q34 -26 71 -26q87 0 215 104q95 78 209 221q145 182 382 514q225 311 335 454q21 36 46 36q12 0 19 -11q4 -6 4 -17q0 -51 -95 -216q-32 -59 -56 -108q-25 -53 -53 -109l-30 -59q-207 -421 -393 -849q14 8 63.5 36
t101.5 58.5t75 45.5q18 10 29 10q18 0 18 -15t-22 -27l-281 -169q-28 -50 -104 -216q-126 -284 -222 -455q-138 -243 -260 -316q-61 -37 -110 -37zM714 562q275 190 485 390q228 218 335 381q56 87 56 124q0 26 -25 28h-12q-81 0 -219 -101q-124 -92 -259 -235
q-118 -125 -172 -209q-71 -110 -110 -190q-52 -103 -79 -188z" />
    <glyph glyph-name="H" unicode="H" horiz-adv-x="1794" 
d="M480 -25q47 0 100 8q86 14 126 25q169 362 315 708q245 585 245 740q0 52 -32 52q-131 -22 -360 -262q-239 -251 -441 -549q-92 -136 -140 -230q-48 -101 -68 -209q-7 -40 -7 -75q0 -24 3 -45q23 -163 259 -163zM751 20q271 49 614 134q385 880 640 1356q8 13 22 13
q33 -1 37 -22q0 -7 -4 -15q-341 -605 -660 -1321q306 91 389 131l8 2q12 0 12 -20q0 -12 -9 -17q-132 -47 -259 -86q-78 -24 -155 -49q-198 -450 -349 -884q-8 -20 -16.5 -22t-11.5 -2q-41 3 -41 31v6q0 6 2 13q110 246 308 690l69 155q-338 -85 -613 -129
q-288 -626 -494 -1041q-19 -36 -47 -40h-3q-34 0 -39 31l-1 14q0 11 19 35q54 71 201 347t317 638q-153 -37 -256 -37q-259 0 -259 228q0 242 301 652q138 188 301.5 365t310.5 292q92 69 155 79q65 0 78 -80q1 -10 1 -21q0 -52 -25 -140t-51 -143q-140 -375 -492 -1143z
" />
    <glyph glyph-name="I" unicode="I" horiz-adv-x="1391" 
d="M29 -960h-2q-27 0 -27 30l1 8q5 29 93 76q62 33 118 56q215 88 426 136q319 766 596 1308q65 154 65 248q0 54 -22 88.5t-59 49.5t-82 15q-103 -1 -259 -58l-6 -2q-17 -7 -33 -7q-29 0 -29 33q0 32 134 111q64 39 101 56q239 118 583 218q10 3 22 5q20 4 41 11
q27 10 46 38l49 72q6 7 18 18q32 28 46 28q24 0 24 -17q0 -5 -3.5 -15t-13.5 -25t-21 -29t-21 -26t-14 -17q98 23 125 25q84 19 200 32q66 7 137 7q137 0 178 -51q13 -16 13 -40q0 -17 -6 -37q-11 -30 -32 -30q-10 0 -18 6.5t-8 18.5q0 3 0.5 7.5t0.5 10.5q0 74 -166 74h-34
q-67 -1 -186 -20q-83 -14 -99 -17l-64 -13q-38 -7 -68 -20t-53 -46q-229 -282 -536 -901q-277 -560 -482 -1097q44 11 155 21q81 7 167 7q191 -1 296 -51q58 -28 58 -78q0 -22 -12 -48t-27 -26q-9 0 -15 8t-6 17q0 5 2 10q4 12 4 23q0 9 -5 22q-27 74 -328 74
q-162 0 -306 -23q-14 -34 -34 -93q-18 -43 -44 -43q-10 0 -16.5 7.5t-6.5 18.5q0 10 20 57l16 40q-162 -39 -401 -137l-157 -74l3 -5q10 -13 11 -26q-7 -8 -20 -13.5t-27 -5.5zM1303 785q195 361 386 610q-108 -25 -215.5 -65t-211.5 -88.5t-202 -98.5l-180 -113l21 8
q28 10 68 22q85 27 155 27q11 0 39 -1.5t68 -21.5q90 -46 90 -160q0 -52 -18 -119z" />
    <glyph glyph-name="J" unicode="J" horiz-adv-x="1103" 
d="M112 -913q47 0 113 49q110 81 245 319q130 228 229 467q40 96 51 136q-191 -123 -327 -251t-218.5 -246t-116.5 -210q-35 -96 -38 -133t-3 -46q0 -85 65 -85zM113 -945q-55 0 -84 39t-29 104q0 77 46 187q85 191 320 411q191 178 399 318q113 252 222 513
q218 515 367 819q-215 -16 -618 -141q-319 -126 -506 -289q-97 -86 -97 -135q0 -26 21 -44q19 -15 42 -29q16 -9 30 -18q29 -23 31 -34.5t2 -13.5q0 -23 -29 -23q-21 0 -56 17q-38 19 -67 54q-23 31 -23 67q0 98 112 194q198 175 534 289q299 101 643 142l21 44q16 26 26 27
t11 1q16 0 24 -16q4 -7 4 -16q0 -13 -7 -30q158 15 294 17q76 0 153 -7q116 -9 131 -35q4 -8 4 -17q0 -25 -27 -25q-6 0 -79 19q-49 12 -177 22q-37 1 -76 1q-111 0 -240 -10l-169 -360q-292 -612 -444 -957q15 7 67.5 37t107 62.5t77.5 46.5q19 11 31 11q17 0 17 -14
q0 -16 -22 -28l-293 -177q-31 -53 -105 -219q-126 -281 -222 -451q-199 -353 -367 -353z" />
    <glyph glyph-name="K" unicode="K" horiz-adv-x="1221" 
d="M717 169l6 -10q292 -511 528 -729q89 -83 168 -116q50 -21 99 -21q9 0 19 1q19 0 30 -5q7 -3 11 -9q4 -5 4 -11q0 -3 -2 -7q-1 -5 -9 -13.5t-35 -10.5h-13q-54 0 -108 22q-14 6 -58 28.5t-119.5 94t-148.5 165.5t-141.5 197.5t-129.5 206t-113 193.5q-4 6 -7 11
q-62 -39 -119 -68q-283 -637 -448 -974q-17 -32 -41 -32q-13 0 -20 13q-4 6 -4 15q0 14 10 36q43 68 173 331t251.5 530t192.5 433q336 785 336 996q0 4 -1 34t-37 32q-31 0 -65 -12q-115 -41 -279 -196q-223 -212 -412 -481q-85 -121 -128 -208q-24 -49 -42 -111
q-21 -75 -21 -147q0 -194 188 -228q17 -5 17 -23q0 -29 -30 -30q-131 23 -187 126q-32 59 -32 141q0 127 75 286q99 205 329 465q235 266 442 398q87 56 146 56q46 0 71 -41q9 -17 9 -48q0 -30 -12.5 -98t-57 -203.5t-108 -301t-139.5 -347t-156 -363.5q131 69 280.5 193.5
t299.5 284.5q293 311 538 661q105 149 158 243q13 20 32 20q13 0 20 -11q4 -5 4 -12q0 -9 -8 -22q-83 -147 -281 -399t-437 -507q-161 -169 -325 -299q-85 -68 -163 -119z" />
    <glyph glyph-name="L" unicode="L" horiz-adv-x="1104" 
d="M-3 -900q134 0 299 261q60 96 106 187q-109 -28 -205 -76.5t-167 -107t-104 -117.5q-20 -35 -20 -67q0 -27 14 -47q25 -33 77 -33zM887 547q19 14 36 31l31 26q219 205 373 407q166 219 227 371q26 63 26 96q0 32 -27 32q-103 -5 -233 -148q-164 -211 -261.5 -422
t-171.5 -393zM-1 -936q-26 0 -55.5 10t-50.5 39t-21 68q0 96 136 201q76 59 181 109t225 81q174 365 377 851l5 11q-220 -167 -364 -167q-60 0 -104 31q-22 20 -22 39q0 7 7 12q10 9 22 9q16 0 33 -13q26 -27 61 -27l22 1q119 6 299 124q35 23 70 49q283 724 520 942
q118 106 206 106q55 0 55 -64q0 -40 -25 -101q-61 -153 -230 -374q-164 -217 -368 -410q-2 -4 -40 -38q-44 -39 -73 -64q-183 -453 -387 -901q178 41 365 64.5t363.5 34t323.5 10.5q148 0 247 -5q25 -6 25 -28q0 -7 -5 -14q-7 -9 -21 -9q-189 9 -374 9q-90 0 -231.5 -3.5
t-334 -22.5t-369.5 -60q-157 -332 -321 -446q-75 -54 -147 -54z" />
    <glyph glyph-name="M" unicode="M" horiz-adv-x="1940" 
d="M1653 -907q-46 0 -99 33q-87 54 -112 171q-7 35 -7 77q0 274 323 984q70 152 136 292q161 346 177 408q8 34 8 43q0 4 -3 4t-10 -6q-165 -131 -592 -701q-24 -35 -109 -143q-160 -200 -221 -260q-49 -45 -74 -45q-31 0 -31 64q0 66 32 213q52 221 158 518q34 94 121 311
q136 380 154 468q0 10 -3 16q-39 -35 -76 -90q-199 -280 -415 -679q-82 -151 -317 -616q-229 -454 -337 -657q-99 -188 -187 -381q-16 -23 -30 -23q-28 0 -28 28q0 17 64 145q96 190 251 542q137 312 270 645q306 767 306 980q0 67 -36 68q-130 -9 -340 -216
q-224 -223 -402 -489q-82 -123 -122 -211q-23 -51 -39.5 -113t-18 -97t-1.5 -42q0 -201 194 -232q17 -4 17 -24q0 -28 -30 -29q-131 20 -189 122q-35 61 -35 150q0 295 388 749q230 274 433 408q75 51 107 55.5t40 4.5q44 0 70 -40q10 -16 10 -52q0 -86 -62 -292
q-140 -461 -521 -1360q273 527 347 668q107 204 220 408q205 355 375 602q4 8 30 41q66 85 101 85q22 0 22 -35q0 -95 -139 -446q-22 -57 -203 -553q-88 -253 -118 -397q-22 -104 -22 -141q0 -31 7 -31q15 0 82 74q32 36 189 236q61 80 128 162t143 181q293 382 435 482
q15 11 24 11q21 -3 21 -29q-1 -26 -12 -62q-18 -79 -191 -464q-164 -366 -246 -578q-168 -427 -168 -636q0 -104 40 -151q41 -51 123 -56q45 -4 45 -36q0 -18 -16 -29q-13 -7 -29 -7z" />
    <glyph glyph-name="N" unicode="N" horiz-adv-x="1772" 
d="M297 -925q-12 0 -20 12q-5 7 -5 17q0 13 7 32q29 54 92 208q146 354 317 838q197 562 285 913q52 210 52 309q0 91 -59 91q-50 0 -128 -55q-131 -87 -262 -214q-151 -151 -270 -305q-155 -199 -225 -377q-46 -114 -46 -208q0 -129 104 -192q40 -21 107 -26q18 -4 18 -25
q0 -24 -28 -28q-68 6 -120 35q-116 68 -116 219q0 110 53 241q75 184 231 381q122 156 285 310q292 280 418 280q4 0 25 -2t41 -36q16 -26 16 -75q0 -15 -2 -33q-20 -222 -200 -782q-143 -448 -338 -982q156 313 370.5 685.5t434.5 698.5q157 230 323 366q131 108 216 108
q21 0 37 -7q59 -26 59 -124q0 -71 -34 -188q-38 -129 -97 -259q-53 -121 -174 -361q-78 -153 -152 -309q-167 -353 -214 -623q-14 -79 -14 -153v-45q0 -42 18 -113q30 -118 160 -121q27 -1 36.5 -9t9.5 -24q-1 -5 -10.5 -13t-27.5 -8l-9 1q-152 19 -194 181q-17 72 -17 160
q0 74 12 153q28 165 87 330q88 252 289 652q92 185 151 312q142 324 142 456q0 8 -2 34t-28 41q-13 6 -29 6q-71 0 -201 -113q-75 -65 -153 -157q-168 -198 -486 -752q-306 -534 -561 -1039q-123 -244 -134 -277q-15 -35 -40 -35z" />
    <glyph glyph-name="O" unicode="O" 
d="M671 -948q-61 0 -121 33q-221 119 -221 448q0 196 86 457q116 353 319 684q218 355 429 486q16 10 29 10q7 0 18 -6.5t12 -26.5q0 -18 -21 -34q-208 -127 -428 -469q-205 -318 -324 -658q-86 -248 -86 -446q0 -46 8.5 -124.5t59.5 -163t130 -133.5q50 -31 105 -31
q156 0 353 251q108 138 212 324q88 158 134 267q262 588 262 977q0 12 -0.5 82t-35.5 185q-43 141 -126 231q-116 118 -255 118q-7 0 -46 -1t-111.5 -26t-146.5 -63q-178 -90 -340.5 -232.5t-287.5 -311.5t-192 -340q-41 -108 -41 -206q0 -7 0.5 -38.5t21.5 -79.5
q30 -70 114 -104q18 -8 46 -9q19 -5 19 -25q0 -25 -28 -28q-44 4 -104 38l-9 6q-105 79 -105 216q0 57 15 118q53 222 234 464q130 174 297.5 323t343.5 239q167 86 311 86q174 0 289 -121q88 -95 133 -243q41 -137 41 -295q0 -332 -154 -752q-116 -318 -266 -567
q-164 -273 -330 -406q-129 -103 -243 -103z" />
    <glyph glyph-name="P" unicode="P" horiz-adv-x="1495" 
d="M289 -923q-21 0 -32 24q-5 10 -5 23q0 10 3 22q229 615 359 970q-52 36 -87 66q-8 10 -8 18t8 14q6 7 12 7q8 0 17 -9q36 -31 75 -58l114 325q116 327 253 765q11 37 42 37q22 0 30 -20q2 -6 2 -13q0 -12 -7 -27q-139 -318 -404 -1086q116 -62 198 -62q169 0 331 159
q187 185 306 608q29 136 29 240q0 93 -29 180.5t-87 147.5q-103 105 -248 105q-111 0 -253 -71q-121 -61 -245 -160q-260 -205 -439 -475.5t-179 -478.5l1 -30q7 -115 89 -168q47 -28 96 -32q19 -1 19 -23q0 -30 -31 -30q-48 3 -108 40l-4 2q-107 78 -107 234
q0 215 183.5 490t454.5 487q311 243 537 243q58 0 128 -19t137 -81t107 -170q33 -96 33 -213q0 -223 -100 -463q-103 -249 -265 -403q-168 -160 -352 -160q-129 7 -219 67q-230 -593 -312 -970q-9 -52 -43 -52z" />
    <glyph glyph-name="Q" unicode="Q" horiz-adv-x="1728" 
d="M732 -999q-2 0 -10 0.5t-20 14.5q-67 74 -79 244q-96 20 -162.5 98.5t-94.5 200.5q-17 71 -17 151q0 168 79 398q111 325 310 632q212 329 423 452q16 10 29 10q7 0 18.5 -6t11.5 -24q0 -17 -21 -31q-107 -63 -214.5 -177t-207 -259.5t-180.5 -303t-134.5 -306
t-71.5 -268.5q-10 -76 -10 -140q0 -144 50 -244q66 -131 191 -155l-1 39q0 77 11.5 165t37 171t61.5 133q7 9 14 9q9 -1 9 -11q0 -5 -4 -11q-34 -48 -55 -130q-29 -116 -29 -250q0 -60 6 -119q127 0 270 126q229 200 436 647q250 526 250 892q0 16 -2 82t-38 172
q-42 125 -129 209q-114 106 -254 106q-9 0 -48 -2.5t-111 -25.5q-215 -70 -400 -228q-239 -202 -414 -486q-80 -132 -128 -250q-45 -113 -45 -206q0 -3 0.5 -32t23.5 -75.5t77 -74.5q37 -19 99 -22q26 -4 26 -27q0 -30 -38 -34q-133 9 -199 95q-48 63 -48 162q0 29 7 81.5
t42 138.5q46 116 132.5 249.5t200.5 264.5q250 289 502 411q168 83 317 83q169 0 282 -107q92 -85 137 -221q45 -131 45 -287q0 -201 -65 -435q-62 -222 -170 -454q-161 -348 -358 -563q-203 -219 -389 -219h-8q19 -142 76 -206q11 -9 11 -19q0 -2 -1 -8t-9.5 -13t-19.5 -7z
" />
    <glyph glyph-name="R" unicode="R" horiz-adv-x="1393" 
d="M272 -899q-22 0 -33 23q-5 10 -5 22q1 18 209 560q182 476 299 799t256 756q14 37 42 37q22 0 31 -21q2 -5 2 -11q0 -13 -8 -29q-161 -356 -369 -957q58 -37 115 -37q18 0 56 5t137.5 48t208.5 151.5t217 293.5q106 209 106 374q0 220 -137 325q-96 74 -236 74
q-190 0 -415 -130q-282 -163 -495 -468q-84 -120 -139 -233q-79 -162 -81 -281q0 -58 23 -121.5t106 -112.5q38 -22 72 -24q30 -1 30 -24q0 -19 -17 -32q-8 -6 -19 -6q-51 6 -97 33q-145 86 -145 255q0 222 248 570q222 306 504 467q226 129 422 129q153 0 258 -80
q78 -59 117 -159q32 -81 32 -187q0 -30 -6 -113.5t-78 -267.5q-83 -183 -214.5 -304t-272.5 -186q-90 -42 -172 -42h-30q292 -510 528 -728q147 -137 267 -137l19 1q45 0 45 -25q0 -31 -59 -31q-54 0 -108 22q-14 6 -58 28.5t-119 94.5q-134 126 -290 363q-105 157 -243 399
l-9 14q-38 3 -91 23q-290 -770 -361 -1070q-9 -50 -43 -50z" />
    <glyph glyph-name="S" unicode="S" horiz-adv-x="1351" 
d="M239 -953h-13q-147 0 -207 133q-19 43 -19 97q0 42 16 58t35 16q26 0 26 -30v-6q-3 -13 -3 -47q0 -6 0.5 -24t15.5 -51q35 -68 98 -87q33 -10 71 -10q100 0 245 70q169 83 349 224q162 128 228 208q101 120 101 227q0 9 -3 43q-12 118 -262 189q-60 17 -156 41
q-81 20 -164 45q-190 56 -288 125q-115 81 -115 219q0 5 1.5 44.5t30.5 117t76 153.5q87 138 213 268q95 97 226 198q170 130 332 203q144 64 256 64q45 0 86 -9q130 -35 130 -168q0 -43 -14 -93q-32 -115 -181 -333q-91 -134 -193 -259q-177 -219 -224 -219q-14 0 -22 8.5
t-8 19.5q0 4 2 14t23 28q125 102 269.5 279.5t265.5 383.5q52 92 52 159q0 64 -35 102q-50 54 -155 54q-139 0 -314.5 -97.5t-352.5 -258.5q-94 -86 -195 -205q-129 -151 -192 -291q-41 -92 -41 -167q0 -58 27 -108q51 -87 198 -145q109 -42 301 -87q52 -11 159 -41
q155 -42 232 -97q87 -64 87 -157q0 -120 -137 -278q-69 -81 -211 -196q-163 -132 -321 -218q-192 -104 -326 -109z" />
    <glyph glyph-name="T" unicode="T" horiz-adv-x="687" 
d="M19 -873q-26 0 -26 39v9q60 210 226 629q192 481 423 1009q182 392 335 610q-105 -25 -208 -65q-169 -66 -396 -183q-95 -54 -148 -100q5 -9 5 -16q0 -13 -16 -24q-23 -14 -46 -14q-34 0 -34 34q0 31 124 109q230 143 657 269q10 3 21 5q20 5 40 12q27 10 43 36q3 8 8 14
l37 58q38 45 60 45q24 0 24 -19q0 -25 -53 -91q-10 -12 -11 -16q118 27 260 46q159 20 295 20q51 0 127 -4t161.5 -27.5t140.5 -70.5q43 -38 43 -88q0 -26 -13 -58q-10 -25 -34 -25q-28 0 -28 28q0 10 6 25q16 33 16 57q0 79 -196 112q-84 14 -198 14q-159 0 -341 -24
q-205 -27 -264 -53q-30 -12 -49 -45q-120 -162 -332 -598q-371 -825 -489 -1189q-82 -252 -128 -429q-13 -41 -42 -41z" />
    <glyph glyph-name="U" unicode="U" horiz-adv-x="1849" 
d="M1212 -926q-20 0 -27 18q-15 30 -15 78q0 83 40 218q93 318 358 851q181 364 458 837q-101 -148 -219 -318q-276 -399 -500 -694q-279 -367 -482 -574q-218 -223 -332 -223q-53 0 -88 36q-52 53 -52 186q0 218 179 611q271 607 391 942q103 285 103 395q0 57 -34 58
q-31 0 -65 -12q-117 -41 -279 -195q-225 -213 -413 -481q-85 -121 -126 -208q-24 -49 -43 -111q-22 -75 -22 -147q0 -128 86 -191q38 -26 103 -36q16 -6 16 -26q0 -28 -30 -28q-132 24 -187 126q-32 59 -32 144q0 289 405 748q235 266 442 398q87 56 145 56q46 0 73 -42
q8 -15 8 -46q0 -90 -74 -315q-119 -361 -418 -1043l-11 -25q-90 -202 -135 -341q-49 -152 -49 -256q0 -97 37 -141q25 -29 67 -29q195 0 786 783q222 294 491 683q236 340 332 489q115 178 191 280q13 15 27 15q13 0 20 -12q2 -4 2 -10q0 -9 -6 -21q-417 -672 -665 -1135
q-82 -152 -185 -387q-123 -280 -193 -508q-55 -178 -55 -275q0 -46 13 -74q3 -9 3 -16q0 -22 -23 -29q-8 -3 -16 -3z" />
    <glyph glyph-name="V" unicode="V" horiz-adv-x="1321" 
d="M378 -891q-28 0 -49 28q-38 50 -39 160q1 292 119 736q81 305 227 744q185 544 185 625q0 5 -1 22t-21 17q-44 0 -98 -37q-104 -71 -240 -255q-112 -151 -226 -348q-175 -301 -175 -391q0 -27 20 -27q16 0 33 6q12 4 21 4q10 0 17 -4q12 -7 12 -21q0 -1 -1.5 -9.5
t-25.5 -23.5q-28 -17 -58 -17q-57 0 -68 46q-4 15 -4 33q0 90 104 280q88 161 202 331q136 201 261 326q139 140 234 140h6q53 -6 53 -84q0 -12 -3 -42q-6 -61 -151 -483q-21 -61 -24 -64q-143 -387 -235 -745q-113 -437 -122 -755v-8q0 -50 16 -97q14 -42 40 -42
q14 0 33 14q52 41 127 157q78 112 229 380q127 224 204 373q130 251 276 550q464 945 510 945q8 0 17 -7q12 -9 12 -29q0 -13 -8 -26q-206 -354 -388 -694q-224 -417 -445 -848q-141 -276 -224 -420q-44 -78 -72 -127q-180 -313 -280 -313z" />
    <glyph glyph-name="W" unicode="W" horiz-adv-x="2040" 
d="M385 -878h-2q-43 5 -43 100q0 37 7 84q26 197 122 512q66 218 119 368l5 14q17 53 80 213q70 174 152 394q197 528 197 682q0 8 -2 33t-29 26q-126 -3 -343 -208q-223 -210 -413 -481q-85 -121 -128 -208q-24 -49 -42 -111q-21 -75 -21 -147q0 -193 188 -227
q17 -6 17 -25q0 -28 -30 -29q-132 25 -187 127q-32 58 -32 141q0 124 75 286q99 205 329 464q236 268 443 399q87 56 145 56q46 0 72 -42q6 -11 6 -35q0 -67 -47 -235q-58 -201 -156 -476q-86 -239 -162 -443q-46 -120 -59 -160q-25 -75 -74 -234q-130 -420 -173 -656
q-13 -72 -13 -117q0 -18 3 -30q43 25 156 235q92 168 155 302q35 71 92 178q138 262 259 448q146 223 207 223q12 0 23 -10q18 -17 18 -94q0 -69 -10 -222q-6 -94 -11 -198.5t-5 -222.5q0 -208 36 -296q22 -55 60 -55q32 0 74 51q71 87 196 352q184 393 350 878
q176 512 183 726q2 16 11.5 23.5t19.5 7.5q2 0 9.5 -0.5t14.5 -10.5t7 -25v-9q-31 -160 -114 -424t-193.5 -557t-221.5 -543.5t-198 -383.5q-46 -72 -101 -110q-32 -22 -59 -22q-76 0 -104 132q-18 86 -18 228q0 44 3 112q4 100 24 335q16 183 16 237q0 26 -2 41
q-4 22 -18 22q-9 0 -24 -13q-24 -18 -102 -127q-88 -122 -195 -319q-9 -15 -243 -455l-77 -154q-65 -128 -121 -214q-66 -101 -101 -101z" />
    <glyph glyph-name="X" unicode="X" horiz-adv-x="1109" 
d="M26 -934q-26 0 -26 29l1 7q93 272 313 618q160 254 400 580l40 53q14 81 47 229q82 380 109 585q17 137 17 263q-1 56 -16 74t-34 18q-69 0 -234 -166q-140 -141 -274 -320q-160 -214 -239 -397q-43 -99 -52 -158t-9 -87q0 -56 17 -103q26 -71 102 -117q38 -23 106 -26h2
q11 0 19.5 -9.5t8.5 -22.5v-2q0 -12 -9 -21q-9 -10 -33 -10q-68 4 -121 35q-86 52 -112.5 118t-26.5 130q0 109 62 252q83 196 253 420q145 190 290 338q63 64 103 99q91 77 152 77q80 0 80 -135q0 -107 -22 -277q-28 -214 -111 -664l-6 -30l115 154q120 162 244 323.5
t254 315.5t270 292q12 15 25 15q17 0 21 -10t4 -15q0 -11 -8 -24q-269 -249 -558 -619q-127 -163 -250 -327q-65 -86 -130 -171q-74 -404 -100 -629q-19 -163 -19 -290q0 -163 36 -261q19 -51 35 -58.5t26 -7.5q28 0 78 44q12 11 23 11q15 0 25 -14q7 -10 7 -21
q0 -20 -19 -33q-36 -27 -59.5 -31t-32.5 -4q-70 0 -111 105q-48 131 -48 341q0 142 22 322q17 135 69 435q-99 -133 -168 -231q-192 -272 -324 -507q-160 -281 -189 -452q-10 -33 -35 -33z" />
    <glyph glyph-name="Y" unicode="Y" horiz-adv-x="1662" 
d="M667 -913q10 0 36 5t77 43t103 104q135 175 272 463q125 262 149 356q-191 -123 -326.5 -251t-218.5 -246t-116 -210q-41 -115 -41 -180q0 -84 65 -84zM667 -945q-3 0 -30 1.5t-56 40.5q-27 36 -27 101q0 5 1.5 44.5t44.5 141.5q87 194 321 412q191 178 398 317
q113 251 222 512q186 437 294 667l-270 -390q-181 -259 -301 -412q-158 -201 -275 -304q-135 -119 -227 -119q-86 0 -86 134q0 198 179 653q170 436 170 571q0 7 -1 34t-33 28q-126 -3 -344 -208q-222 -210 -412 -481q-85 -120 -128 -208q-63 -136 -63 -258q0 -127 85 -190
q37 -27 103 -37q17 -5 17 -23q0 -30 -30 -30q-131 22 -187 126q-32 59 -32 141q0 125 75 286q96 199 329 464t442 399q89 56 146 56q46 0 71 -42q9 -16 9 -48q0 -30 -12 -98q-28 -143 -165 -503q-178 -467 -178 -640q0 -90 50 -90h8q116 17 306 223q161 175 362 458
q119 167 326 478q113 171 172 251q5 7 9 13q16 27 36 27q16 0 24 -15q4 -7 4 -16q0 -13 -7 -30q-25 -55 -186 -394q-298 -625 -445 -958q15 7 67.5 37t108 62.5t77.5 46.5q19 11 30 11q18 0 18 -14q0 -2 -1 -9.5t-21 -18.5l-293 -177q-31 -54 -104 -217q-123 -276 -223 -453
q-136 -243 -260 -317q-60 -36 -108 -36z" />
    <glyph glyph-name="Z" unicode="Z" horiz-adv-x="1260" 
d="M28 -888q-2 0 -11 1t-15 17q-2 4 -2 9q0 12 10 27q16 23 38 52q76 103 398 508q214 267 434 547q504 645 793 1088q12 17 25 43q23 46 23 76q0 14 -7 30q-9 21 -72 21q-82 0 -219.5 -35t-310.5 -109q-235 -100 -450 -251q-161 -112 -219 -212q-22 -42 -22 -91
q0 -3 0.5 -31.5t25.5 -95.5q2 -7 2 -14q0 -12 -7 -22q-13 -14 -30 -14q-1 0 -11.5 0.5t-25.5 26.5q-24 47 -24 98q0 79 55 166q72 110 224 213q209 141 468 248q177 74 332 116q152 42 246 42q31 0 54 -9q40 -16 40 -61q0 -11 -4 -32.5t-22 -57t-41 -71.5
q-181 -277 -431.5 -618.5t-516.5 -687.5t-493 -637l-113 -146q116 47 278 85q149 35 301 52q93 11 173 11q50 0 95 -4q189 -21 306 -133q13 -18 13 -32q0 -2 -0.5 -11t-11.5 -18.5t-25 -9.5q-1 0 -9 1t-22 16q-53 65 -111 102.5t-134 52.5q-61 12 -136 12q-129 0 -286 -30
q-251 -46 -410 -129q-72 -38 -112 -84q-16 -15 -30 -15z" />
    <glyph glyph-name="a" unicode="a" horiz-adv-x="507" 
d="M-11 87q7 0 18 6q42 24 181 204q36 48 36 72q0 27 -32 27q-35 0 -72 -27q-45 -32 -79 -84t-52 -102q-16 -41 -16 -68q0 -28 16 -28zM274 21q-24 0 -46 15q-49 36 -49 107q0 35 11 74l-38 -50q-17 -29 -79 -91q-60 -52 -104 -53q-13 0 -32 9.5t-28 37.5q-4 13 -4 29
q0 102 124 231q32 34 74 62q56 36 107 36q33 0 63 -20q17 45 50 45q19 0 19 -15q0 -5 -4 -13q-31 -34 -72 -141q-38 -100 -38 -164q0 -10 2.5 -33t29.5 -32q7 -2 15 -2q43 0 105 64q64 68 108 149q20 34 35 34q5 0 10 -5t5 -14q0 -14 -15 -36q-77 -108 -138.5 -166
t-110.5 -58z" />
    <glyph glyph-name="b" unicode="b" horiz-adv-x="478" 
d="M-110 -72h-5q-15 0 -21 17q-3 7 -3 16q0 18 10 47q176 397 509 1071q50 100 95 193q24 48 57 48q5 0 10 -2q21 -8 21 -34q0 -15 -8 -32q-84 -129 -191.5 -321.5t-206.5 -398.5t-160 -374q47 73 86 126q95 128 173 129q21 0 42 -13q25 -21 25 -61q0 -32 -10 -66.5
t-22 -55.5q22 11 68 31q50 21 102 45q15 6 25 6q18 0 18 -13q0 -16 -21 -23q-49 -14 -96 -34l-109 -52q-8 -22 -32.5 -55t-56.5 -62q-49 -47 -84 -47q-16 0 -28.5 12t-12.5 25q0 6 6 18q9 21 80 70q38 25 68 51q18 25 32 61q22 53 22 92t-31 39q-3 0 -16.5 -1.5t-45.5 -30.5
q-59 -58 -104.5 -132.5t-85.5 -150.5q-23 -44 -46 -85q-27 -51 -53 -53z" />
    <glyph glyph-name="c" unicode="c" horiz-adv-x="356" 
d="M51 21q-60 0 -93 33q-29 28 -29 74q0 41 27 96q31 61 67 97q91 91 166 91q22 0 40 -13q24 -18 24 -50q0 -15 -8 -34q-6 -14 -17 -16q-11 0 -11 12q0 4 2 9q10 21 10 39q0 30 -33 30q-30 0 -70 -28q-48 -36 -78 -84q-52 -81 -52 -158q0 -20 9 -41q13 -30 62 -30
q70 0 151 77q67 63 130 154q14 21 28 21q11 0 11 -14q0 -11 -14 -27q-10 -11 -20 -24q-81 -97 -146 -149q-80 -65 -156 -65z" />
    <glyph glyph-name="d" unicode="d" horiz-adv-x="531" 
d="M-14 82q36 0 198 210q35 47 35 72q0 27 -31 27q-33 0 -71 -26q-69 -50 -118 -157q-29 -66 -29 -100q0 -26 16 -26zM211 241l-40 -50q-49 -67 -109 -127q-57 -45 -99 -45q-44 0 -57 47q-4 13 -4 29q0 104 123 231q94 94 167 94q8 0 29 -2q20 -2 49 -31q2 4 4 7q1 2 3 5
q79 158 152 320q157 345 273 540q20 34 33 48q9 10 21 10q5 0 10 -2q21 -9 21 -35q0 -16 -8 -29q-265 -432 -442 -843q-38 -87 -68 -158.5t-30 -128.5q0 -13 4 -34.5t32 -31.5q7 -2 15 -2q43 0 104 64q57 60 109 148q19 34 34 34q6 0 11 -5t5 -13q0 -15 -16 -37
q-77 -109 -138 -165.5t-109 -56.5q-24 0 -47 14q-46 33 -46 108q0 46 14 97z" />
    <glyph glyph-name="e" unicode="e" horiz-adv-x="354" 
d="M83 238q6 0 26.5 2.5t51 24t48 50t17.5 45.5q0 7 -3 12q-7 16 -30 16q-4 0 -20.5 -1.5t-50.5 -25.5q-58 -44 -91 -104q25 -19 52 -19zM48 21q-61 0 -94 33q-28 27 -28 76q0 41 26 94q31 61 67 97q90 90 160 90q12 0 35 -5.5t34 -34.5q4 -9 4 -19q0 -23 -18 -53
q-30 -45 -87 -74q-49 -25 -97 -25q-21 0 -42 6q-15 -51 -15 -85q0 -21 8 -42q12 -30 65 -30q68 0 148 76q67 63 130 154q14 21 28 21q12 0 12 -14q0 -11 -15 -27q-10 -11 -20 -24q-81 -97 -146 -149q-80 -65 -155 -65z" />
    <glyph glyph-name="f" unicode="f" horiz-adv-x="354" 
d="M-176 -583q13 0 34 31q57 92 71 231q8 71 8 158q0 80 -7 174q-20 -44 -51 -149t-55.5 -214.5t-25.5 -165.5q3 -65 26 -65zM-192 -637q-64 0 -64 110q0 96 53 277q58 197 157 440q62 149 159 356q136 289 233 430q20 26 31 26q30 0 30 -21q0 -13 -13 -32
q-58 -94 -238 -446q-185 -363 -205 -446q157 5 307 147q58 54 82 82q13 13 23 13q7 0 12 -6.5t5 -12.5q0 -11 -14 -26q-35 -42 -110 -95.5t-158 -95.5t-141 -46l1 -12q6 -103 6 -179q0 -283 -74 -402q-41 -61 -82 -61z" />
    <glyph glyph-name="g" unicode="g" horiz-adv-x="467" 
d="M-386 -1045h-7q-25 4 -29 50q0 105 128 334q106 183 275 411q18 19 170 408q-16 -23 -67 -77q-63 -61 -114 -61q-45 0 -61 45q-5 12 -5 32q0 80 78 181q127 153 231 153q32 0 64 -21q16 45 51 45q19 -2 19 -12q0 -14 -14 -27q-61 -78 -160 -330l-75 -185q97 122 247 281
q116 118 125 118h3q21 -4 21 -22q0 -14 -27 -34q-228 -195 -425 -463q-80 -194 -154 -348q-170 -382 -222 -447q-28 -31 -52 -31zM-9 85q33 0 154 155q81 98 81 132q0 24 -27 24q-49 0 -100 -43q-64 -66 -99 -145q-27 -63 -27 -97q0 -26 18 -26zM-360 -973q27 23 218 432
q29 59 78 172q-170 -198 -273 -459q-28 -89 -28 -125q0 -20 5 -20z" />
    <glyph glyph-name="h" unicode="h" horiz-adv-x="529" 
d="M-53 0q-11 0 -19.5 8.5t-8.5 23.5l1 9q25 115 109 335.5t192 464.5t205 428q25 46 47 46q8 0 16 -5q18 -9 18 -26q0 -19 -21 -53q-144 -243 -267.5 -518t-180.5 -489q67 104 138 165q40 34 76 34q50 0 50 -63q0 -35 -15 -67q-49 -106 -49 -172q0 -11 3.5 -33.5
t33.5 -32.5q7 -2 15 -2q44 0 104.5 64t107.5 148q20 34 35 34q6 0 11 -4.5t5 -13.5q0 -14 -15 -37q-82 -111 -138 -164q-62 -58 -111 -58q-24 0 -46 14q-46 33 -46 110q0 66 33 152l11 31q6 17 6 31q0 17 -15 17q-20 0 -48 -30q-72 -79 -150 -225q-48 -91 -50 -97
q-13 -25 -37 -25z" />
    <glyph glyph-name="i" unicode="i" horiz-adv-x="298" 
d="M60 22q-24 0 -47 14q-46 33 -46 108q0 109 77 250q15 26 29 26q12 0 20.5 -8t8.5 -21q0 -10 -6 -23q-27 -47 -49 -98q-38 -92 -38 -149q0 -13 4 -34.5t32 -31.5q7 -2 15 -2q43 0 104 64q57 60 109 148q19 34 34 34q6 0 11 -5t5 -13q0 -15 -16 -37q-77 -109 -138 -165.5
t-109 -56.5zM159 563q-12 0 -21 9t-9 26q0 7 6 13t15 10t19 4q21 0 21 -27q0 -17 -9 -26t-22 -9z" />
    <glyph glyph-name="j" unicode="j" horiz-adv-x="260" 
d="M171 568h-3q-34 0 -34 34t32 34q33 -3 33 -34t-28 -34zM-594 -1045h-7q-25 4 -29 50q0 105 128 334q106 183 275 411q18 19 138 316t145 343q9 13 23 13q7 0 16 -3q14 -9 14 -22l-1 -6q-58 -87 -143 -305l-75 -185q97 122 247 281q116 118 125 118q24 0 24 -22
q0 -14 -27 -34q-228 -195 -425 -463q-80 -194 -154 -348q-170 -382 -222 -447q-28 -31 -52 -31zM-574 -982q27 23 218 432q29 59 78 172q-170 -198 -273 -459q-28 -89 -28 -125q0 -20 5 -20z" />
    <glyph glyph-name="k" unicode="k" horiz-adv-x="417" 
d="M-125 -53q-23 0 -23 24q0 11 7 28q92 184 239 519q93 213 189 418.5t187 356.5q20 29 38 29q2 0 12.5 -1t18.5 -22q3 -7 3 -15q0 -15 -11 -32q-20 -29 -69.5 -116t-113 -204.5t-124.5 -238.5t-105 -218.5t-54 -145.5q34 38 75 69q64 46 91 46q9 0 16.5 -5t7.5 -16
q0 -4 -3.5 -14.5t-33.5 -23.5q-46 -21 -81 -42q-66 -41 -114 -125q-16 -30 -16 -54q0 -47 55 -47q64 0 185 75q91 56 138 93q22 15 36 15q2 0 10 -2q7 -2 7 -13v-3q0 -14 -19 -28q-31 -21 -77 -48q-114 -69 -206 -100q-61 -21 -104 -21q-39 0 -64 19q-11 -20 -30 -65
t-34 -73q-13 -19 -33 -19z" />
    <glyph glyph-name="l" unicode="l" horiz-adv-x="298" 
d="M60 22q-24 0 -47 14q-46 33 -46 108q7 102 40.5 188.5t74 173t156.5 310.5q222 401 266 474q19 26 40 27q21 -5 22 -21q0 -24 -43 -93q-46 -83 -104 -174.5t-161 -263.5q-193 -347 -224 -484q-25 -86 -25 -147q0 -25 9 -49q12 -32 42 -32q43 0 104 64q57 60 109 148
q19 34 34 34q6 0 11 -5t5 -13q0 -15 -16 -37q-157 -222 -247 -222z" />
    <glyph glyph-name="m" unicode="m" horiz-adv-x="747" 
d="M-80 17h-3q-19 5 -19 30t55 148q76 169 112 224q15 21 35 21q22 0 22 -21q0 -15 -18 -50q-5 -8 -9 -17t-9 -20q-14 -27 -31 -67l11 13q66 81 117 120q40 30 73 30q31 0 47 -28q9 -18 9 -46q0 -23 -6 -53l51 58q29 32 59 57q39 32 74 32q21 0 32.5 -13t11.5 -38
q-1 -50 -23 -96q-52 -108 -52 -181q0 -9 3 -31.5t33 -33.5q7 -2 15 -2q44 0 104.5 63.5t107.5 148.5q21 35 36 35q5 0 10 -5t5 -14q0 -14 -16 -36q-152 -223 -247 -223q-24 0 -47 15q-46 34 -46 108q0 25 7 64q11 62 33 106q20 48 20 66q0 11 -5 16t-11 5q-40 0 -111 -97
q-73 -102 -108 -197q-5 -17 -15 -38q-19 -42 -44 -42q-8 0 -17 4q-17 7 -17 27q0 25 30 92q67 160 67 213q0 24 -14 24q-35 0 -157 -145q-36 -46 -103 -170l-16 -31q-14 -25 -36 -25z" />
    <glyph glyph-name="n" unicode="n" horiz-adv-x="573" 
d="M334 21q-24 0 -46 15q-48 33 -48 112q0 78 43 172q14 32 14 49q0 21 -19 21q-9 0 -22 -4q-48 -16 -102 -66q-48 -42 -77 -78q-46 -58 -78 -143l-8 -18q-24 -59 -52 -59l-9 1q-18 5 -18 41q0 25 13 62l27 68q40 102 88 205q12 27 37 27q13 0 21 -7t8 -17q0 -6 -3 -15
q-17 -36 -49 -127q56 60 126.5 110.5t128.5 50.5q15 0 29 -8q13 -8 13 -32v-3q-1 -35 -31 -115q-37 -85 -37 -142q0 -15 4.5 -36t32.5 -31q7 -2 14 -2q42 0 103.5 63t109.5 149q20 35 36 35q5 0 10 -5t5 -14q0 -15 -16 -37q-75 -106 -137 -164t-111 -58z" />
    <glyph glyph-name="o" unicode="o" horiz-adv-x="422" 
d="M40 54q29 0 77 68q46 65 62 123q-35 17 -63 45.5t-36 40.5q-31 -36 -58 -116q-20 -59 -20 -100q0 -61 38 -61zM189 276q8 27 8 51q0 57 -44 57q-35 0 -35 -18q0 -15 15 -37q30 -43 56 -53zM22 20q-78 0 -93 86q-1 9 -1 19q0 106 139 255q32 34 71 34q50 0 74 -42
q17 -32 17 -73q0 -20 -5 -39q26 -18 63 -18q11 0 42 5t73 38q18 14 30 14q14 0 14 -12v-8q0 -6 -17 -18q-66 -45 -132 -45q-39 0 -81 17q-14 -53 -65 -130q-57 -83 -129 -83z" />
    <glyph glyph-name="p" unicode="p" horiz-adv-x="462" 
d="M-513 -1016q-26 0 -26 33q0 40 163 409q90 205 278 650q22 52 49 112q48 105 88 208q14 38 40 38q13 0 21 -11q4 -5 4 -14q0 -23 -67 -166q49 68 109 128q56 45 102 45q37 0 54 -47q4 -13 4 -29q0 -46 -24 -97q169 58 182 58q22 0 22 -15q0 -23 -43 -31
q-110 -33 -187 -58q-55 -82 -127 -135q-63 -48 -116 -48q-28 0 -45 10h-2v1q-13 8 -28 23q-164 -322 -399 -1011q-20 -53 -52 -53zM21 44q34 0 70 26q50 36 89 103q-59 -21 -88 -34q-55 -26 -79 -53q-12 -14 -12 -25q0 -2 1 -9.5t19 -7.5zM15 130q45 34 188 85q26 50 32 89
t6 51q0 23 -14 23q-76 -6 -203 -236z" />
    <glyph glyph-name="q" unicode="q" horiz-adv-x="423" 
d="M-279 -963q-37 0 -37 42v13q0 145 439 1042h-3q-80 -98 -148 -98q-40 0 -56 45q-5 17 -5 32q0 108 145 247q86 74 153 74q31 0 64 -19v2q20 41 43 41h10q15 -3 15 -15q0 -8 -30 -46q-102 -158 -276 -544q80 40 196.5 174t169.5 244q15 29 31 29q19 0 19 -15l-2 -9
q-243 -374 -417 -451q19 -29 19 -77q0 -148 -153 -478q-39 -79 -94 -160q-54 -70 -72 -70q0 -3 -11 -3zM-4 100q45 12 159 165q67 76 67 116q0 16 -24 19q-97 0 -182 -159q-36 -70 -36 -120q0 -21 16 -21zM-243 -882q34 35 76 106q65 114 113 226q72 211 72 293q0 40 -7 58
q-3 0 -65 -147q-184 -439 -189 -536z" />
    <glyph glyph-name="r" unicode="r" horiz-adv-x="433" 
d="M203 23q-25 0 -47 14q-39 29 -42.5 62t-3.5 46q0 42 13 91q16 63 44 120q-61 0 -91 9q-15 -40 -38 -77q-25 -41 -41 -41q-5 0 -9.5 3t-4.5 6v2.5t2 5.5q36 68 52 120q-13 10 -13 25q0 8 6 17q12 17 32 17q12 0 23 -12q6 -7 6 -19q0 -11 -8 -26q7 -2 16 -2q47 0 110 26
q8 4 15 4q16 0 25 -12q4 -6 4 -13q0 -14 -19 -46q-5 -7 -8 -14q-71 -140 -71 -215q0 -59 49 -59q43 0 104 64t107 147q20 34 35 34q6 0 11 -5t5 -13q0 -15 -16 -37q-156 -222 -247 -222z" />
    <glyph glyph-name="s" unicode="s" horiz-adv-x="357" 
d="M-49 -131q10 0 23 4q40 15 75 57t56 89q18 41 18 70v8q-67 -48 -136 -118q-61 -62 -61 -92q0 -18 25 -18zM-73 -170q-37 4 -37 42q0 36 41.5 84t129.5 122q34 28 52 45q-17 32 -37 49t-38 29q-13 8 -23 16q-22 19 -22 50q0 15 9 35q16 38 86 87q49 33 76 33q29 0 29 -26
q0 -34 -36 -42h-4q-13 0 -20 10t-13 10t-15 -5q-41 -26 -57 -58q-10 -18 -10 -33q0 -32 64 -66q48 -28 63 -50q107 74 161 119q24 19 40 19q18 0 18 -18t-26 -30q-94 -50 -178 -115q5 -19 5 -39q0 -32 -17 -75t-59.5 -89.5t-91.5 -75t-90 -28.5z" />
    <glyph glyph-name="t" unicode="t" horiz-adv-x="298" 
d="M286 835l-6 -10q-61 -101 -115 -207q-146 -291 -146 -475q0 -28 7 -52q10 -38 48 -38q41 0 98 63q60 66 104 150q19 34 34 34q5 0 10.5 -5t5.5 -14q0 -14 -14 -36q-77 -113 -131 -165q-61 -58 -109 -58q-24 0 -47 15q-51 36 -51 119q0 120 153 482q35 81 94 195
q-159 -4 -312 -14q-25 3 -28.5 12t-3.5 14q0 8 6 16q8 11 23 11h3q196 -7 328 -7q32 60 69 128q46 89 79 91q22 -5 22 -24q0 -21 -31 -72q-7 -10 -11 -18q-20 -35 -61 -104q88 1 144 3l115 2q381 10 493 18q41 -1 41 -26t-41 -25q-121 2 -247 2l-191 -1l-136 -1
q-69 0 -196 -3z" />
    <glyph glyph-name="u" unicode="u" horiz-adv-x="524" 
d="M293 23q-24 0 -47 14q-46 33 -46 111q0 14 9 47q-100 -121 -164 -121q-49 0 -64 43q-10 30 -10 51q0 61 27 133q45 116 77 116h9q10 -1 19 -16q5 -8 5 -17t-5 -19q-32 -58 -57 -118q-17 -51 -17 -88q0 -55 27 -55q37 0 131 114q37 61 47 83q19 51 43 94q15 24 34 25
q19 0 30 -15q5 -7 5 -16q0 -11 -7 -25q-94 -168 -94 -249q0 -9 2.5 -29t30.5 -30q7 -2 15 -2q43 0 105 64q57 60 108 148q19 34 35 34q15 0 15 -18q0 -14 -16 -37q-156 -222 -247 -222z" />
    <glyph glyph-name="v" unicode="v" horiz-adv-x="449" 
d="M38 24q-18 0 -40 24t-22 100q0 66 24 152q36 120 64 120q1 0 10.5 -1t19.5 -19q4 -8 4 -17t-4 -18q-57 -151 -61 -230l-1 -37q0 -43 10 -43q26 6 71 62q57 79 106 176q21 44 44 94q15 33 31 35q14 0 22 -12q3 -5 3 -12q0 -11 -7 -25q-22 -38 -46 -77q36 -33 90 -33
q7 0 26 2t45 22q17 14 29 14q13 0 14 -12v-8q0 -6 -17 -18q-37 -23 -83 -23q-76 0 -116 36l-70 -112q-48 -75 -78 -104q-36 -36 -68 -36z" />
    <glyph glyph-name="w" unicode="w" horiz-adv-x="700" 
d="M291 24q-18 0 -36 12q-48 33 -48 112q0 20 4 41q-56 -93 -92.5 -129t-68.5 -36q-18 0 -36 12q-47 34 -47 110q0 106 78 248q14 23 31 23q18 -1 28 -16q5 -7 5 -16q0 -8 -4 -17q-94 -170 -94 -252q0 -33 17 -50q12 -11 26 -11q30 0 72 55q49 65 100 177q18 41 29 53t22 12
l8 -1q19 -9 19 -27q0 -19 -7 -35q-47 -101 -47 -166v-21q1 -18 19 -36q12 -11 25 -11q65 0 177 242q22 49 47 97q14 22 33 22q16 0 26 -12q5 -7 5 -15q0 -17 -35 -56q-16 -18 -28 -37q38 -33 90 -33q7 0 26.5 2t44.5 22q18 14 30 14q13 0 14 -12v-8q0 -6 -17 -18
q-37 -23 -84 -23q-76 0 -116 36l-71 -112q-83 -140 -145 -140z" />
    <glyph glyph-name="x" unicode="x" horiz-adv-x="441" 
d="M-108 -62q-19 0 -19 16q0 6 4 13q42 67 135 168q-14 58 -14 115q0 51 22 126q13 35 37 35q10 0 20 -7.5t10 -17.5t-6 -26q-21 -62 -21 -126q0 -23 2 -54q233 232 263 232q22 0 22 -21q0 -14 -13 -20q-66 -27 -267 -224q21 -78 61 -86q43 0 132.5 66t158.5 140
q26 32 41 32q6 0 11 -5t5 -13q0 -13 -22 -35q-243 -218 -334 -218q-67 0 -99 74q-63 -74 -113 -153q-7 -11 -16 -11z" />
    <glyph glyph-name="y" unicode="y" horiz-adv-x="496" 
d="M-333 -979q27 23 218 432q29 59 78 172q-170 -198 -273 -459q-28 -89 -28 -125q0 -20 5 -20zM-357 -1045q-32 0 -36 50q0 105 128 334q106 183 275 411q18 19 138 316q31 77 61 155q-101 -160 -167 -160t-73 85q0 108 76 248q16 26 31 26q11 0 19 -8t8 -21q0 -10 -6 -23
q-33 -58 -56.5 -120t-23.5 -104q0 -13 2 -21q10 -31 28 -31q56 0 195 228q21 45 37 73.5t37 28.5q26 0 26 -22q0 -10 -19 -45q-48 -91 -118 -262l-78 -192q97 122 247 281q116 118 125 118q24 0 24 -22q0 -14 -27 -34q-228 -195 -425 -463q-80 -194 -154 -348
q-170 -382 -222 -447q-28 -31 -52 -31z" />
    <glyph glyph-name="z" unicode="z" horiz-adv-x="516" 
d="M118 -58q27 73 27 110q0 35 -30 35q-8 0 -16 -2l-6 -1q-14 0 -16 23q0 27 45 53q104 82 145 138q28 41 28 72t-27 31q-49 0 -185 -122q-26 -30 -51 -30q-8 0 -21 5.5t-13 42.5q0 63 38 63q11 0 24 -10q10 -6 16 -6q5 0 10 4q107 86 170 86q19 0 44 -14q31 -16 31 -70
q0 -40 -24.5 -82.5t-60.5 -78.5t-74 -64q20 -27 20 -70q0 -12 -5 -50q-4 -33 -38 -99l-2 -5q97 122 247 281q116 118 125 118q24 0 24 -22q0 -14 -27 -34q-228 -195 -425 -463q-80 -194 -154 -348q-170 -382 -222 -447q-28 -31 -52 -31h-7q-25 4 -29 50q0 105 128 334
q106 183 275 411q14 15 88 192zM-309 -967q27 23 218 432q29 59 78 172q-170 -198 -273 -459q-28 -89 -28 -125q0 -20 5 -20z" />
    <glyph glyph-name="exclam" unicode="!" horiz-adv-x="726" 
d="M139 -87q-14 0 -22.5 8.5t-8.5 21.5q0 9 3 19q117 306 354 838q80 181 158 360q22 48 54 48q5 0 10 -2q24 -9 24 -37q0 -14 -8 -28q-322 -551 -527 -1197q-10 -31 -37 -31zM59 -318q-15 0 -28 12t-13 30q0 15 10.5 26t26.5 11q17 0 30 -12t13 -30q0 -15 -11 -26t-28 -11z
" />
    <glyph glyph-name="quotedbl" unicode="&#x22;" horiz-adv-x="215" 
d="M27 688q-11 0 -11 9q0 6 8 13q30 24 30 44q0 9 -4.5 20t-4.5 19q0 7 4 15q8 14 27 14q25 0 33 -30q1 -6 1 -12q0 -14 -7.5 -31t-24.5 -34t-38 -24q-8 -3 -13 -3zM116 694q-11 0 -11 8q0 6 9 15q30 24 30 44q0 9 -5 19.5t-5 18.5q0 21 21 27q6 2 10 2q25 0 33 -30
q1 -6 1 -12q0 -33 -32 -64q-28 -28 -51 -28z" />
    <glyph glyph-name="numbersign" unicode="#" horiz-adv-x="859" 
d="M329 -252q-7 0 -14 4q-11 5 -11 19q0 23 157 347q-65 5 -129 5q-60 0 -120 -3q-77 -170 -142 -343q-10 -25 -29 -25q-7 0 -14 4q-11 5 -11 19q0 7 4 17q71 162 150 325q-54 -4 -107 -11h-3q-25 0 -25 22q0 18 22 21q65 3 131 4q67 137 136 273q-71 -4 -140 -13h-2
q-25 0 -25 21q0 6 5 13q8 12 178 12l145 291q19 38 45 38q4 0 8 -1q18 -6 18 -25q0 -13 -8 -27q-87 -135 -164 -276h6q195 -3 238 -5q17 32 145 292q20 38 46 38q4 0 8 -1q17 -6 17 -25q0 -13 -8 -28q-88 -135 -166 -277l109 -3q14 0 25.5 -7t11.5 -18q0 -12 -9.5 -19.5
t-18.5 -7.5h-2q-67 13 -134 20q-62 -114 -136 -271l140 -3q16 0 27 -7.5t11 -18.5t-9 -18.5t-19 -7.5h-2q-81 15 -163 23q-78 -170 -143 -342q-7 -23 -29 -25zM476 148q68 138 136 274q-75 7 -157 7q-45 0 -89 -2q-57 -105 -138 -274q89 0 245 -5h3z" />
    <glyph glyph-name="dollar" unicode="$" horiz-adv-x="559" 
d="M284 249l81 214q22 56 43 113q-63 -7 -121 -40q-73 -43 -87 -114v-12q0 -26 14 -58.5t70 -102.5zM285 -11q51 0 82 13q24 9 24 25q0 28 -97 146q-32 -90 -61 -180q26 -4 52 -4zM133 -274q-9 0 -16 6t-7 14q0 19 68 213q-50 7 -110 23q-28 12 -28 33q0 7 5 16q11 16 30 16
q9 0 16 -4q52 -30 101 -42q37 102 76 205q-96 122 -96 200q0 92 98 156q74 48 143 48h8l58 154q15 43 45 43l3 -1q21 -6 21 -28q0 -11 -5 -23q-40 -77 -76 -156q32 -13 51 -41q32 -47 32 -117q0 -30 -6.5 -62.5t-32.5 -32.5q-9 0 -17 6.5t-10 17.5l1 13q8 40 8 74
q0 82 -42 107q-78 -172 -141 -346q29 -34 54 -66q51 -71 51 -113t-42 -63q-39 -22 -117 -22l-34 1q-31 -101 -58 -201q-9 -28 -31 -28z" />
    <glyph glyph-name="percent" unicode="%" horiz-adv-x="571" 
d="M41 -262q-7 0 -15 4q-10 5 -10 19q0 7 3 17q114 256 329 684q70 138 137 275q19 38 45 38q4 0 8 -1q17 -7 17 -26q0 -13 -7 -26q-282 -437 -478 -959q-9 -25 -29 -25zM249 540q-11 0 -23 4q-32 13 -38.5 40.5t-6.5 43.5q0 27 11 57q18 46 46.5 65.5t51.5 19.5q11 0 21 -4
q33 -13 39.5 -40t6.5 -43q0 -27 -11 -57q-19 -48 -47 -67t-50 -19zM253 581q15 0 32 14q21 19 36 55q10 29 10 53q0 39 -23 49q-5 2 -10 2q-15 0 -31 -15q-21 -19 -36 -55q-10 -29 -10 -53q0 -38 23 -49q4 -1 9 -1zM289 -241q-11 0 -22 3q-33 14 -39.5 41.5t-6.5 42.5
q0 27 11 57q18 47 46.5 66.5t51.5 19.5q11 0 22 -3q32 -15 38.5 -42t6.5 -42q0 -27 -11 -57q-19 -47 -47 -66.5t-50 -19.5zM294 -200q15 0 31 14q21 20 36 55q10 29 10 53q0 39 -23 48q-5 2 -10 2q-14 0 -30 -14q-22 -20 -36 -56q-11 -27 -11 -50q0 -41 23 -50q5 -2 10 -2z
" />
    <glyph glyph-name="ampersand" unicode="&#x26;" horiz-adv-x="671" 
d="M313 -261h-6q-9 0 -17 3q-27 14 -27 50q0 69 75 208q25 46 47 85q-38 -31 -113 -70q-95 -45 -157 -45q-50 0 -74.5 24.5t-24.5 62.5q0 5 2.5 31t37.5 78q44 67 129 120l32 22q-57 21 -57 56q0 6 1 13q20 71 132 120q88 38 162 38q10 0 18 -1q9 24 36.5 76t58.5 100
q46 70 68 70q19 0 19 -20q0 -10 -10 -23q-33 -38 -64 -75q-62 -76 -77 -135q37 -7 37 -34q0 -14 -8.5 -23.5t-22.5 -9.5q-15 0 -35 20q-7 8 -12 10q-10 1 -21 1q-57 0 -124 -21q-41 -13 -71 -33q-42 -27 -42 -58q0 -29 52 -29q54 0 164 29q32 9 52 9q32 0 32 -18v-7
q0 -6 -12 -17.5t-30 -14.5q-26 -5 -51 -8q-82 -10 -140 -37q-38 -19 -95 -60q-128 -90 -128 -161q0 -13 7 -30q9 -23 57 -23q31 0 67 11q57 18 148 74q71 43 155 129q8 8 17 8q11 0 17 -10l2 -5q0 -6 -6 -13q-20 -18 -50 -61q-72 -102 -118 -203q-33 -75 -33 -116
q0 -22 12 -32h12q21 -1 21 -16q0 -3 -1.5 -11t-22.5 -21q-9 -5 -20 -7z" />
    <glyph glyph-name="quotesingle" unicode="'" horiz-adv-x="128" 
d="M26 665q-10 0 -10 8q0 6 9 15q29 22 29 44q0 10 -4.5 20t-4.5 18q0 6 5 15q7 14 26 14q25 0 33 -30q2 -6 2 -12q0 -14 -8 -31t-25 -34t-38 -24q-8 -3 -14 -3z" />
    <glyph glyph-name="parenleft" unicode="(" horiz-adv-x="576" 
d="M151 -345q-12 0 -24 11q-48 45 -75 122.5t-29.5 134t-2.5 72.5q0 213 124 486q72 159 163.5 288.5t183.5 203.5q14 9 28 9q7 0 14 -2q20 -7 21.5 -17.5t1.5 -11.5q0 -18 -29 -40q-90 -53 -181 -173.5t-163.5 -274t-107.5 -305.5q-17 -72 -17 -141q0 -189 117 -304
q11 -12 11 -23q0 -5 -2 -10q-9 -25 -33 -25z" />
    <glyph glyph-name="parenright" unicode=")" horiz-adv-x="576" 
d="M425 982q12 0 24 -10q48 -45 75 -122.5t29.5 -134t2.5 -73.5q0 -212 -124 -485q-72 -159 -163.5 -288.5t-183.5 -203.5q-14 -10 -28 -10q-7 0 -14 3q-20 7 -21.5 17.5t-1.5 11.5q0 18 29 40q90 53 181 173.5t163.5 274t107.5 305.5q16 72 16 140q0 190 -116 305
q-11 11 -11 23q0 5 2 10q9 24 33 24z" />
    <glyph glyph-name="asterisk" unicode="*" horiz-adv-x="256" 
d="M82 659q-14 0 -14 13q0 5 3 11q14 35 34 67l-36 -24q-29 -20 -40 -20q-13 0 -13 14q0 4 2.5 11.5t16 13.5t28.5 11q18 6 37 14q-5 9 -15 19q-6 7 -11.5 14t-7.5 13t-2 12t5.5 13t19.5 7q11 0 19.5 -8t13.5 -33l2 -8q7 27 17 43q15 22 29 22q13 0 13 -15q0 -6 -4 -15.5
t-10 -19t-9 -16.5q5 3 15 10q41 30 53 30t12 -14l-1 -9q-3 -16 -65 -42l-19 -9q5 -6 14 -12q28 -19 28 -36q0 -3 -3 -9q-5 -10 -20 -10q-16 0 -27 15q-10 12 -22 34q-5 -25 -13 -47l-7 -21q-7 -19 -23 -19z" />
    <glyph glyph-name="plus" unicode="+" horiz-adv-x="537" 
d="M164 1l-6 -1q-13 0 -23 10q-7 8 -7 18q0 6 2 12q75 134 120 222q-104 -1 -197 -10h-3q-34 0 -34 27q0 28 34 29l28 -2q121 -10 188 -12q46 95 88 200q14 32 38 32q6 0 15 -4q13 -7 13 -24q0 -10 -8 -22q-70 -106 -107 -183l23 -1q92 0 161 10l4 1q12 0 19.5 -7.5
t7.5 -18.5v-2q0 -10 -8.5 -17t-23.5 -7l-10 1q-96 10 -188 11q-34 -74 -65 -155q-15 -38 -33 -82q-11 -24 -28 -25z" />
    <glyph glyph-name="comma" unicode="," horiz-adv-x="261" 
d="M50 -94q-10 0 -10 7q0 6 9 15q29 22 29 44q0 10 -4.5 20.5t-4.5 18.5q0 6 5 15q7 13 26 13q25 0 33 -30q2 -6 2 -12q0 -14 -8 -30.5t-25 -33.5t-38 -24q-9 -3 -14 -3z" />
    <glyph glyph-name="hyphen" unicode="-" horiz-adv-x="536" 
d="M488 251l-9 1q-97 11 -189 11q-120 0 -237 -11h-3q-34 0 -34 26q0 29 35 30l25 -2q155 -13 252 -13h54q41 0 108 9l4 1q11 0 18.5 -7.5t7.5 -18.5t-8.5 -18.5t-23.5 -7.5z" />
    <glyph glyph-name="hyphen" unicode="&#xad;" horiz-adv-x="536" 
d="M488 251l-9 1q-97 11 -189 11q-120 0 -237 -11h-3q-34 0 -34 26q0 29 35 30l25 -2q155 -13 252 -13h54q41 0 108 9l4 1q11 0 18.5 -7.5t7.5 -18.5t-8.5 -18.5t-23.5 -7.5z" />
    <glyph glyph-name="period" unicode="." horiz-adv-x="309" 
d="M113 -39q-13 0 -22 9t-9 22t9 22.5t22 9.5q14 0 23.5 -9.5t9.5 -22.5t-9.5 -22t-23.5 -9z" />
    <glyph glyph-name="slash" unicode="/" horiz-adv-x="714" 
d="M51 -322h-2q-14 0 -23 10q-6 6 -6 17q0 9 4 22q150 338 409 849q88 175 173 349q25 48 57 48q5 0 10 -2q21 -8 21 -32q0 -16 -9 -33q-351 -544 -597 -1197q-11 -31 -37 -31z" />
    <glyph glyph-name="zero" unicode="0" horiz-adv-x="554" 
d="M93 -254q-33 0 -52 26.5t-22 57t-3 44.5q0 93 42 226q25 78 63 164q47 106 99 191q-5 13 -5 29q0 77 95 170q99 96 215 120q22 7 41 7q23 0 41 -12q31 -22 34 -58.5t3 -48.5q0 -141 -114 -398q-99 -218 -224 -366q-129 -152 -213 -152zM97 -218q37 0 97 58
q62 60 136.5 175t147.5 279q131 297 131 405q0 54 -36 54q-43 0 -122 -75q-141 -134 -250 -364q-68 -143 -107 -288q-30 -110 -30 -176q0 -68 33 -68z" />
    <glyph glyph-name="one" unicode="1" horiz-adv-x="768" 
d="M229 -260q-20 0 -23 14q-80 -4 -153 -10h-4q-33 0 -33 26q0 12 9 21t25 9q71 -7 160 -12q94 215 289 594q83 160 160 316q-148 -72 -314 -188q-11 -7 -21 -7q-20 0 -31 20q-6 9 -6 19q0 5 3 15t24 21l68 28q208 84 316 166q12 8 29 8l8 -1q17 -6 17 -27q0 -13 -8 -26
q-306 -470 -471 -940q33 -2 66 -2q85 0 151 10l4 1q11 0 18.5 -8t7.5 -19v-2q0 -10 -8.5 -16.5t-22.5 -6.5l-10 1q-96 11 -187 11l-34 -1q-8 -14 -29 -14z" />
    <glyph glyph-name="two" unicode="2" horiz-adv-x="730" 
d="M349 -257h-7q-96 12 -189 12q-107 0 -238 -11h-2q-33 0 -33 32q0 34 38 46q79 31 191.5 121.5t227.5 212.5q151 160 240 306q57 94 75 162q9 33 9 54q0 14 -3 27q-9 29 -47 37q-6 1 -13 1q-39 0 -98 -26q-44 -20 -89 -56q-103 -82 -118 -167q-5 -28 -20 -42.5
t-24.5 -15.5t-10.5 -1q-16 0 -27.5 10.5t-11.5 30.5q0 42 41 96q39 50 113 104t151 86q62 25 105 25l18 -1q51 -8 66 -34.5t15 -55.5q0 -50 -30 -120q-36 -88 -92 -170q-166 -240 -407 -456q-103 -92 -176 -146q85 -19 224 -19q70 0 135 9l4 1q11 0 16.5 -7t5.5 -16
q0 -13 -13 -22q-10 -7 -26 -7z" />
    <glyph glyph-name="three" unicode="3" horiz-adv-x="717" 
d="M25 -266q-30 0 -54 9q-74 27 -74 109q0 62 42 130q27 33 42 36t19 3q17 0 25 -11q3 -5 3 -11q0 -10 -9.5 -24t-18.5 -29q-54 -81 -54 -118q0 -6 1 -12q4 -26 44 -41q17 -5 36 -5q65 0 162 64q114 76 218 202q48 58 80 113.5t37.5 85t5.5 40.5q0 75 -97 79
q-87 -47 -171 -53l-8 -1q-37 0 -37 26q0 43 110 58q46 7 83 7l15 -1q54 17 129 89q67 68 82.5 110t15.5 66q0 19 -7 34q-17 33 -44 37.5t-36 4.5q-105 0 -246 -126q-48 -43 -66 -84q-11 -25 -22 -29.5t-17 -4.5q-7 0 -14 4q-15 9 -15 29q0 15 13 33q39 50 113.5 102.5
t157.5 86.5q71 28 121 28q16 0 30 -3q56 -12 67.5 -43.5t11.5 -50.5q0 -99 -118 -211q-50 -48 -99 -80q66 -18 80 -53.5t14 -64.5q0 -82 -73 -193q-101 -153 -254 -253q-76 -50 -154 -73q-38 -11 -70 -11z" />
    <glyph glyph-name="four" unicode="4" horiz-adv-x="662" 
d="M131 -262q-6 0 -13 4q-11 6 -11 18q0 8 3 18q107 240 228 481l-51 1q-107 0 -237 -11h-3q-31 0 -31 26q0 14 14 27q40 40 130 227q72 148 99 208q12 23 29 33q13 9 24 9l6 -1q22 -6 22 -31q0 -16 -8 -29l-3 -6q-163 -247 -247 -410q143 -13 247 -13l24 1q162 324 222 447
q20 38 46 38q4 0 8 -1q17 -7 17 -28q0 -12 -7 -24q-134 -208 -246 -432q49 3 94 9h5q11 0 18.5 -7t7.5 -18q0 -12 -8.5 -19t-25.5 -7h-7q-51 6 -101 9q-121 -244 -215 -493q-9 -24 -30 -26z" />
    <glyph glyph-name="five" unicode="5" horiz-adv-x="776" 
d="M176 -253q-30 0 -56 9q-50 18 -76 55q-28 42 -28 97q0 43 17 88q22 38 53 38q22 0 31 -17q2 -5 2 -11q0 -8 -16 -46q-30 -68 -30 -101q0 -16 8.5 -36t51.5 -35q17 -5 36 -5q74 0 166 79q110 95 177 229q48 95 48 164q0 30 -14 62.5t-66 44.5q-18 5 -41 5q-44 0 -106 -16
q-102 -28 -191 -89q-9 -9 -22 -9q-15 0 -21 7t-6 16q0 15 14 30q56 50 223 368q23 44 37 68q1 2 1 5v16q4 17 23 17l30 -1q93 -6 177 -6q69 0 133 9l4 1q11 0 18 -7.5t7 -18.5q-1 -11 -11 -19q-7 -7 -22 -7l-10 1q-83 9 -188 9q-46 0 -90 -1q-6 -9 -11 -14
q-127 -180 -240 -372q100 50 223 50q132 0 177 -82q22 -40 22 -90q0 -11 -3 -48.5t-33.5 -107t-81 -134t-114 -113t-135.5 -71.5q-35 -11 -67 -11z" />
    <glyph glyph-name="six" unicode="6" horiz-adv-x="658" 
d="M171 -200q74 0 168 81q110 96 178 231q28 57 33 87.5t5 46.5q0 55 -35 78q-22 14 -52 14q-84 0 -192 -98q-120 -107 -211 -294v-6q0 -118 70 -135q17 -5 36 -5zM176 -237q-29 0 -54 9q-51 18 -76 56t-27.5 70.5t-2.5 47.5q0 84 39 200q69 204 205 381q151 194 332 268
q10 3 18 3q10 0 17 -4q15 -11 15 -31q0 -33 -37 -41q-266 -108 -407 -348q-68 -116 -105 -254q-13 -44 -20 -87q106 187 232 279q98 72 180 72q28 0 52 -10q52 -20 71 -79q6 -21 6 -47q0 -30 -9 -67q-19 -83 -71 -165.5t-127 -148t-162 -93.5q-36 -11 -69 -11z" />
    <glyph glyph-name="seven" unicode="7" horiz-adv-x="575" 
d="M94 -258q-8 0 -16 5q-16 9 -16 25q0 8 3 15q100 199 266 483q-54 -1 -106 -6q-34 0 -34 23q0 32 37 33l24 -2q50 -8 101 -8q68 112 236 413l-14 -1q-62 4 -130 4q-136 0 -293 -15q-27 7 -27 30q0 8 2 15q8 25 34 25q5 0 56 -12q96 -7 194 -7q104 0 209 8q12 3 19 3
q25 0 25 -30q0 -11 -10 -27q-133 -191 -256 -406q42 2 85 8q25 0 25 -23q0 -29 -34 -29q-35 4 -98 4q-136 -242 -250 -503q-11 -25 -32 -25z" />
    <glyph glyph-name="eight" unicode="8" horiz-adv-x="727" 
d="M167 -219q6 0 30 2.5t73 37.5q85 64 85 174q0 6 -1.5 35.5t-23 80t-60.5 89.5q-74 -82 -125 -166q-61 -100 -61 -167q0 -4 1 -24.5t28 -44.5q22 -17 54 -17zM257 256q18 11 174 183q154 170 186 213q27 40 27 62q0 6 -4 15t-28 9q-68 -1 -191 -73q-127 -74 -192 -152
q-38 -45 -38 -86q0 -43 17.5 -89t48.5 -82zM158 -261q-16 0 -31 3q-49 9 -76 38q-35 38 -35 94q0 58 48 131q35 53 113 145q54 64 56 75q0 10 -12 23q-67 84 -67 170q0 60 52 125q47 57 119 109t154.5 86t159.5 39h3q69 0 69 -59q0 -8 -4 -31t-32 -67q-38 -57 -98.5 -117.5
t-125.5 -120.5q-115 -108 -159 -161l24 -25q48 -53 73 -119q13 -38 13 -81v-5q0 -102 -104 -195q-35 -30 -80 -46q-30 -11 -60 -11z" />
    <glyph glyph-name="nine" unicode="9" horiz-adv-x="660" 
d="M190 208q84 0 193 99q118 107 210 294v5q0 119 -69 136q-18 6 -36 6q-74 0 -168 -82q-109 -94 -178 -232q-28 -56 -33 -87t-5 -47q0 -55 35 -78q21 -14 51 -14zM50 -251q-11 0 -18 5q-16 11 -16 29q0 12 8 25t30 18q265 106 406 347q91 153 125 341q-107 -189 -232 -280
q-97 -71 -180 -71q-28 0 -51 9q-54 20 -71 79q-6 21 -6 47q0 31 9 68q18 83 70 165.5t127.5 147.5t162.5 94q37 10 69 10q28 0 53 -8q52 -17 76.5 -55t27.5 -72t3 -50q0 -84 -39 -197q-68 -203 -206 -381q-150 -194 -331 -269q-9 -2 -17 -2z" />
    <glyph glyph-name="colon" unicode=":" horiz-adv-x="237" 
d="M174 356q-19 0 -32 13.5t-13 31.5q0 19 13 32.5t32 13.5t32.5 -13.5t13.5 -32.5q0 -18 -13.5 -31.5t-32.5 -13.5zM63 111q-19 0 -33 13t-14 32t14 32t33 13t32 -13t13 -32t-13 -32t-32 -13z" />
    <glyph glyph-name="semicolon" unicode=";" horiz-adv-x="254" 
d="M192 363q-19 0 -33 13.5t-14 32.5q0 18 14 31.5t33 13.5q18 0 32 -13.5t14 -31.5q0 -19 -14 -32.5t-32 -13.5zM27 71q-11 0 -11 9q0 6 8 14q30 24 30 44q0 10 -4.5 20.5t-4.5 17.5t5 15q6 15 26 15q25 0 34 -31l1 -11q0 -14 -8 -31.5t-25 -34t-38 -24.5q-8 -3 -13 -3z
" />
    <glyph glyph-name="semicolon" unicode="&#x37e;" horiz-adv-x="254" 
d="M192 363q-19 0 -33 13.5t-14 32.5q0 18 14 31.5t33 13.5q18 0 32 -13.5t14 -31.5q0 -19 -14 -32.5t-32 -13.5zM27 71q-11 0 -11 9q0 6 8 14q30 24 30 44q0 10 -4.5 20.5t-4.5 17.5t5 15q6 15 26 15q25 0 34 -31l1 -11q0 -14 -8 -31.5t-25 -34t-38 -24.5q-8 -3 -13 -3z
" />
    <glyph glyph-name="less" unicode="&#x3c;" horiz-adv-x="596" 
d="M416 120q-9 0 -19 5q-166 81 -360 114q-21 5 -21 24q0 23 33 34l62 13q66 13 138 30q165 37 278 90q10 4 19 4q22 0 32 -21q2 -5 2 -10q0 -25 -34 -32q-72 -11 -191.5 -39t-238.5 -65q131 -67 306 -89q22 -4 22 -25q0 -20 -18 -31q-4 -2 -10 -2z" />
    <glyph glyph-name="equal" unicode="=" horiz-adv-x="606" 
d="M555 351h-7q-98 11 -191 11q-122 0 -235 -10q-36 0 -36 26q0 29 33 30l27 -2q154 -13 255 -13q91 0 157 9q16 0 24 -7t8 -18q0 -26 -35 -26zM489 171l-10 1q-103 11 -199 11q-101 0 -228 -10h-6q-14 0 -22 7t-8 19q0 11 9 20t25 9l36 -2q143 -14 242 -14q84 0 162 10l4 1
q11 0 18.5 -7.5t7.5 -20.5q0 -10 -8.5 -17t-22.5 -7z" />
    <glyph glyph-name="greater" unicode="&#x3e;" horiz-adv-x="596" 
d="M180 434q8 0 19 -5q165 -81 360 -114q21 -5 21 -24q0 -23 -33 -34l-63 -12q-65 -14 -137 -30q-165 -38 -279 -90q-9 -5 -18 -5q-23 0 -32 21q-2 5 -2 10q0 25 34 32q71 11 190.5 39t239.5 65q-132 67 -306 90q-23 3 -23 25q0 19 18 30q5 2 11 2z" />
    <glyph glyph-name="question" unicode="?" horiz-adv-x="926" 
d="M174 -88q-13 0 -22 10q-4 5 -4 13q0 10 7 26q112 192 326 518q34 48 176 273q161 257 161 327q0 29 -14 45q-27 32 -80 32q-52 0 -130 -33q-140 -61 -219 -160q-56 -71 -56 -125q0 -15 4.5 -38t42.5 -48q11 -9 11 -24q0 -16 -13.5 -33.5t-37.5 -17.5q-16 0 -33 12
q-41 52 -41 114q0 87 78 181q76 90 187 153q120 68 220 68q98 0 120 -78q4 -15 4 -34q0 -66 -35 -142q-30 -63 -81.5 -143t-106.5 -163q-66 -96 -116 -176q-201 -325 -305 -526q-16 -31 -43 -31zM59 -308q-17 0 -26 11t-9 24q0 18 16 33q13 11 30 11q16 0 25.5 -10t9.5 -22
q0 -21 -15 -34t-31 -13z" />
    <glyph glyph-name="at" unicode="@" horiz-adv-x="1021" 
d="M424 89q23 0 79 64q40 47 102 128q29 39 31 50.5t2 15.5q0 24 -30 24q-31 0 -64 -24q-41 -29 -72.5 -76.5t-46.5 -90t-15 -65.5q0 -26 14 -26zM307 -340q-147 0 -223 97q-68 87 -68 220q0 91 31 197q58 199 195 380q144 192 313 266q87 38 174 38q100 0 164 -49
q59 -45 86 -113.5t27 -144.5q0 -112 -44 -219q-50 -123 -149 -226q-25 -25 -54 -47q-42 -30 -75 -30q-21 0 -41 12q-38 28 -41.5 56.5t-3.5 43.5q0 31 9 67l-34 -47q-15 -25 -68 -77l-11 -12q-51 -42 -88 -42q-43 0 -52 30q-7 26 -7 40q0 95 113 212q30 30 68 55
q52 34 96 34q32 0 60 -19q15 42 46 42q17 0 17 -14q0 -5 -4 -12q-26 -27 -66 -129q-35 -89 -35 -147q0 -52 30 -63q6 -2 13 -2q31 0 78 41q38 33 75 78q131 155 138 366v14q0 66 -24 125q-25 65 -79 108q-58 45 -141 45q-158 0 -318 -148q-149 -137 -254 -342
q-108 -210 -108 -369q0 -172 103 -246q56 -40 149 -41q85 0 189 95q13 11 24 11q5 0 9 -3q14 -6 15 -15t1 -11q0 -15 -16 -28q-106 -77 -219 -77z" />
    <glyph glyph-name="bracketleft" unicode="[" horiz-adv-x="1077" 
d="M430 -336h-4q-128 9 -208 9q-78 0 -150 -7h-6q-24 0 -35 16q-7 11 -7 24q0 10 4 21q133 303 408 848q175 350 179 360q9 21 19.5 32.5t28.5 11.5l9 -1q120 -15 210 -15q71 0 138 12l8 1q14 0 24 -10q8 -8 8 -20v-3q0 -15 -10.5 -24t-27.5 -9l-11 1q-99 16 -200 16
q-61 0 -118 -5q-319 -470 -597 -1199q71 -22 157 -22t186 26q6 2 11 2q11 0 19.5 -8t8.5 -22t-11 -24.5t-33 -10.5z" />
    <glyph glyph-name="backslash" unicode="\" horiz-adv-x="714" 
d="M663 -322q-26 0 -37 31q-246 653 -597 1197q-9 17 -9 33q0 24 21 32q5 2 11 2q32 0 56 -48q85 -174 173 -349q259 -511 409 -849q4 -13 4 -22q0 -11 -6 -17q-9 -10 -22 -10h-3z" />
    <glyph glyph-name="bracketright" unicode="]" horiz-adv-x="1077" 
d="M646 979l5 -1q127 -9 207 -9q79 0 151 7l5 1q25 0 36 -17q6 -10 6 -24q0 -9 -3 -21q-133 -302 -408 -848q-175 -350 -179 -360q-9 -21 -19.5 -32t-29.5 -11h-8q-121 15 -211 15q-70 0 -137 -12h-9q-14 0 -23 9t-9 24q1 14 11.5 23t27.5 9l11 -1q98 -16 200 -16
q61 0 118 5q319 470 597 1199q-71 22 -157 22t-186 -26q-6 -1 -12 -1q-10 0 -18.5 7.5t-8.5 21.5t11 25t32 11z" />
    <glyph glyph-name="asciicircum" unicode="^" horiz-adv-x="333" 
d="M241 678q-16 0 -26 13q-3 6 -3 13q0 6 2 14q55 146 55 278q-51 -45 -104.5 -116.5t-96.5 -150.5q-7 -13 -21 -13q-11 0 -20.5 8t-10.5 22q0 14 13 26q137 125 235 286q9 14 26 14q27 0 27 -34q0 -11 -15 -81q-29 -146 -35 -255q-1 -24 -26 -24z" />
    <glyph glyph-name="underscore" unicode="_" horiz-adv-x="781" 
d="M52 -294h-7q-29 0 -29 26q0 4 2 11t10.5 13t21.5 6q70 -5 204 -9q115 -4 231 -4q19 0 97 0.5t153 10.5h2q12 0 20 -7.5t8 -18.5q0 -12 -8.5 -19t-22.5 -7l-10 1q-128 15 -301 15q-220 0 -371 -18z" />
    <glyph glyph-name="braceleft" unicode="{" horiz-adv-x="800" 
d="M187 -337q-81 0 -121 35q-46 39 -46 109q0 47 21 100l29 70q97 216 97 294q0 81 -87 114q-14 7 -14 19q0 20 20 22q48 5 93 19q98 30 160 119q54 75 111 209q55 129 94 169q35 35 93 35q45 0 114 -18q29 -9 29 -38q0 -28 -22 -38q-5 -2 -11 -2q-11 0 -25 7q-46 25 -75 28
q-33 0 -53.5 -16.5t-44 -57.5t-49.5 -91q-74 -144 -132 -220q-84 -111 -215 -138q57 -43 57 -122q0 -33 -14 -85q-21 -78 -72 -224q-48 -127 -48 -170v-4q0 -55 60 -55q19 0 46 6l13 1q15 0 25 -9t10 -25q-1 -16 -12 -29t-31 -14z" />
    <glyph glyph-name="braceright" unicode="}" horiz-adv-x="800" 
d="M613 977q81 0 121 -35q46 -39 46 -109q0 -47 -21 -100l-29 -70q-97 -216 -97 -294q0 -81 87 -114q14 -7 14 -19q0 -20 -20 -22q-48 -5 -93 -19q-98 -30 -160 -119q-54 -75 -111 -209q-55 -129 -94 -169q-35 -35 -93 -35q-45 0 -114 18q-29 9 -29 38q0 28 22 38q5 2 11 2
q11 0 25 -7q46 -25 75 -28q33 0 53.5 16.5t44 57.5t49.5 91q74 144 132 220q84 111 215 138q-57 43 -57 122q0 33 14 85q21 78 72 224q48 127 48 170v4q0 55 -60 55q-19 0 -46 -6l-13 -1q-15 0 -25 9t-10 25q1 16 12 29t31 14z" />
    <glyph glyph-name="asciitilde" unicode="~" horiz-adv-x="359" 
d="M227 190q-30 0 -49 33q-15 27 -27 64q-14 42 -20 44t-8 2q-19 0 -42 -78l-13 -39q-10 -18 -24 -18q-15 0 -21.5 11.5t-6.5 17.5q0 9 5 18q32 53 57.5 79t38.5 29.5t19 3.5q40 0 69 -76q4 -11 7 -24q8 -34 13.5 -38t8.5 -4q28 0 64 96q10 23 17.5 24.5t9.5 1.5q9 0 15 -10
q3 -5 3 -11q0 -9 -5 -21q-28 -50 -53 -74.5t-38 -27.5t-20 -3z" />
    <glyph glyph-name="exclamdown" unicode="&#xa1;" horiz-adv-x="726" 
d="M590 977q14 0 22.5 -8.5t8.5 -21.5q0 -9 -3 -19q-117 -306 -354 -838q-80 -181 -158 -360q-22 -48 -54 -48q-5 0 -10 2q-24 9 -24 37q0 14 8 28q322 551 527 1197q10 31 37 31zM670 1208q15 0 28 -12t13 -30q0 -15 -10.5 -26t-26.5 -11q-17 0 -30 12t-13 30q0 15 11 26
t28 11z" />
    <glyph glyph-name="cent" unicode="&#xa2;" horiz-adv-x="571" 
d="M41 -258h-2q-11 0 -19 8q-4 5 -4 13q0 25 147 327q-59 33 -59 110q0 45 26 99q33 65 71 103q85 89 165 98q61 121 119 240q20 38 45 38q5 0 9 -1q17 -7 17 -26q0 -13 -8 -26q-73 -113 -139 -231q25 -11 34 -37q5 -11 5 -24q0 -17 -7.5 -35t-20.5 -18q-11 0 -11 10
q0 5 3 12q10 23 10 41q0 26 -23 32q-100 -178 -185 -363q14 -6 29 -6q17 0 43 10.5t54 37.5t41 54q9 16 20 16q13 0 18 -17q1 -3 1 -7q0 -13 -11 -28q-20 -26 -58 -49q-74 -46 -137 -46l-15 1q-70 -155 -129 -311q-7 -25 -29 -25zM186 138q81 165 164 329q-19 -8 -39 -21
q-58 -44 -92 -103q-45 -79 -45 -148q0 -33 12 -57z" />
    <glyph glyph-name="sterling" unicode="&#xa3;" horiz-adv-x="839" 
d="M38 -257q-22 0 -22 21q0 18 19 38q15 17 63 21q95 91 207 331l31 67q-43 -3 -83 -8h-3q-23 0 -23 22q0 7 3 14q5 11 19 11h2q46 -6 98 -9l83 192q50 124 89 189q61 103 133 134q37 16 75 16q44 0 82 -28q12 -9 12 -19q0 -15 -11 -21q-9 -5 -14 -5q-7 0 -15 5
q-46 35 -86 35q-102 0 -194 -219q-20 -47 -36 -89q-14 -37 -26 -66l-55 -125h13q46 0 90 4l3 1q18 0 18 -19q0 -7 -4 -14q-5 -9 -19 -9h-4q-52 9 -101 9h-9q-120 -276 -226 -396l12 -4q44 -15 94 -27.5t81.5 -14t41.5 -1.5q111 0 207 71q16 12 28 12q4 0 7 -1
q14 -5 14.5 -13t0.5 -9q0 -15 -16 -30q-60 -43 -113 -52.5t-94 -9.5q-65 0 -173 22q-81 15 -113 15q-10 0 -19 -1q-45 -40 -67 -40z" />
    <glyph glyph-name="yen" unicode="&#xa5;" horiz-adv-x="551" 
d="M290 334q64 128 100 207q-51 -75 -92 -75q-15 0 -29 9q-37 27 -37 88q0 87 61 199q13 20 25 20q8 0 14.5 -6t6.5 -16q0 -8 -5 -18q-26 -48 -44 -96q-24 -62 -24 -104q0 -28 14 -43q10 -9 21 -9q41 0 105 120l40 76q16 41 34 76q13 20 27 20q2 0 10.5 -0.5t15.5 -15.5
q2 -6 2 -13q0 -15 -8 -29q-69 -125 -156 -294q-25 -50 -49 -97h13q44 0 85 8l5 1q15 0 15 -20q0 -23 -21 -23h-5q-54 9 -104 9l-29 -58h16q45 0 88 4h4q17 0 17 -17q0 -8 -4 -15q-6 -9 -19 -9h-4q-54 9 -105 9h-7q-125 -258 -188 -431q-17 -44 -40 -44q-5 0 -12 4
q-11 6 -11 27q0 32 183 379q17 33 33 64q-41 -2 -83 -8h-3q-24 0 -24 22q0 7 4 14q6 11 20 11h1q51 -7 101 -9q14 29 28 56q-42 -2 -92 -8h-2q-17 0 -17 20q0 11 4.5 19t13.5 8l16 -2q50 -7 91 -10z" />
    <glyph glyph-name="franc" unicode="&#x20a3;" horiz-adv-x="780" 
d="M327 334q11 27 23 55q12 25 24 55q50 123 89 189q87 148 203 148q48 0 86 -27q12 -9 12 -20q0 -14 -10 -19.5t-16 -5.5t-13 5q-48 35 -87 35q-102 0 -194 -219q-20 -47 -36 -89q-14 -37 -26 -66q-8 -20 -18 -42h9q44 0 85 8l4 1q16 0 16 -20q0 -7 -4 -13q-5 -10 -17 -10
h-5q-51 8 -98 9q-11 -25 -22 -53q-1 -3 -2 -5h4q45 0 88 4h4q17 0 17 -18q0 -7 -4 -14q-6 -9 -19 -9h-4q-51 8 -98 9q-87 -213 -146 -320q-44 -81 -90 -132q-20 -22 -34 -24l-9 -1h-6q-17 1 -17 23t18 37q96 94 206 333q17 37 37 83q-44 -2 -91 -8h-3q-24 0 -24 21q0 8 4 15
q6 11 19 11h2q54 -7 107 -10q11 28 24 57q-42 -2 -94 -8h-3q-8 0 -12 6.5t-4 15.5t4.5 17t13.5 8l16 -2q50 -7 91 -10z" />
    <glyph glyph-name="lira" unicode="&#x20a4;" horiz-adv-x="839" 
d="M38 -257q-22 0 -22 21q0 18 19 38q15 17 63 21q95 91 207 331l31 67q-43 -3 -83 -8h-3q-23 0 -23 22q0 7 3 14q5 11 19 11h2q46 -6 98 -9l25 55q-45 -2 -85 -7h-2q-18 0 -18 23q0 8 4.5 16t14.5 8q84 -10 98 -11l11 24l35 84q50 124 89 189q61 103 133 134q37 16 75 16
q44 0 82 -28q12 -9 12 -19q0 -15 -11 -21q-9 -5 -14 -5q-7 0 -15 5q-46 35 -86 35q-102 0 -194 -219q-20 -47 -36 -89q-14 -37 -26 -66l-18 -41l-1 -1h15q46 0 88 8h4q16 0 16 -19q0 -23 -21 -23h-5q-51 9 -99 9h-8l-26 -58h13q46 0 90 4l3 1q18 0 18 -19q0 -7 -4 -14
q-5 -9 -19 -9h-4q-52 9 -101 9h-9q-120 -276 -226 -396l12 -4q44 -15 94 -27.5t81.5 -14t41.5 -1.5q111 0 207 71q16 12 28 12q4 0 7 -1q14 -5 14.5 -13t0.5 -9q0 -15 -16 -30q-60 -43 -113 -52.5t-94 -9.5q-65 0 -173 22q-81 15 -113 15q-10 0 -19 -1q-45 -40 -67 -40z" />
    <glyph glyph-name="Euro" unicode="&#x20ac;" horiz-adv-x="674" 
d="M198 334q16 -1 31 -1q44 0 85 8l4 1q16 0 16 -20q0 -6 -4.5 -14.5t-16.5 -8.5h-5q-54 9 -106 9h-15l-3 -8q-10 -25 -18 -50h24q45 0 88 4h4q17 0 17 -18q0 -7 -4 -14q-5 -9 -19 -9h-4q-54 9 -105 9h-10q-38 -123 -38 -235q0 -118 47 -161q40 -36 106 -36q14 0 29 2l6 1
q25 0 25 -22q0 -23 -26 -28l-28 -1q-115 0 -161 88q-32 60 -32 149q0 108 41 242q-41 -2 -84 -8h-3q-23 0 -23 22q0 7 3 14q6 11 19 11h2q48 -7 96 -9q10 27 21 56q-36 -3 -79 -8h-3q-17 0 -17 22q0 9 4.5 17t13.5 8l17 -2q40 -6 75 -9q78 192 191 323q50 56 100.5 89.5
t75.5 34.5t27 1q46 0 87 -34q9 -10 9 -19l-1 -6q-6 -20 -25 -20q-10 0 -20 8q-34 28 -70 28q-72 0 -161 -102q-108 -126 -183 -304z" />
    <glyph glyph-name="questiondown" unicode="&#xbf;" horiz-adv-x="694" 
d="M547 751h2q13 0 23 -10q6 -6 6 -17q0 -9 -4 -22q-85 -191 -255 -518q-6 -10 -11 -21q-65 -123 -128 -252q-118 -239 -118 -317q2 -36 21 -55q32 -32 84 -32t126 34q132 60 198 160q39 60 39 113q0 19 -9 45.5t-50 51.5q-15 11 -15 29q0 15 9 29q12 17 36 17q15 0 34 -12
q58 -63 58 -138q0 -78 -55 -156q-64 -91 -166 -154q-111 -68 -210 -68t-131 78q-11 26 -11 64q0 58 18 112q21 63 61.5 143t84.5 163q53 96 92 176q157 326 234 526q11 31 37 31zM634 971q16 0 28 -11.5t12 -28.5q0 -16 -12 -27.5t-28 -11.5q-17 0 -28.5 11.5t-11.5 27.5
q0 17 11.5 28.5t28.5 11.5z" />
    <glyph glyph-name="multiply" unicode="&#xd7;" horiz-adv-x="502" 
d="M331 65q-17 0 -24 21q-29 83 -67 153q-85 -69 -170 -149q-24 -21 -37 -21q-17 0 -17 17q0 16 18 29q97 64 193 147q-44 78 -90 144q-6 9 -6 18q0 15 16 26q11 7 22 7q15 0 22 -12l1 -3q28 -72 65 -155q134 118 178 162q17 12 31 12q20 0 20 -19q0 -14 -23 -32
q-93 -68 -195 -148q46 -95 93 -152q4 -5 4 -11q0 -16 -16 -27q-10 -7 -18 -7z" />
    <glyph glyph-name="divide" unicode="&#xf7;" horiz-adv-x="541" 
d="M305 356q-19 0 -32.5 13.5t-13.5 31.5q0 19 13.5 32.5t32.5 13.5t32.5 -13.5t13.5 -32.5q0 -18 -13.5 -31.5t-32.5 -13.5zM193 111q-19 0 -33 13t-14 32t14 32t33 13t32.5 -13t13.5 -32t-13.5 -32t-32.5 -13zM488 251l-9 1q-97 11 -189 11q-120 0 -237 -11h-3
q-34 0 -34 26q0 29 35 30l25 -2q155 -13 252 -13h54q41 0 108 9l4 1q11 0 18.5 -7.5t7.5 -18.5t-8.5 -18.5t-23.5 -7.5z" />
    <glyph glyph-name="minus" unicode="&#x2212;" horiz-adv-x="536" 
d="M488 251l-9 1q-97 11 -189 11q-120 0 -237 -11h-3q-34 0 -34 26q0 29 35 30l25 -2q155 -13 252 -13h54q41 0 108 9l4 1q11 0 18.5 -7.5t7.5 -18.5t-8.5 -18.5t-23.5 -7.5z" />
    <glyph glyph-name="Thorn" unicode="&#xde;" horiz-adv-x="963" 
d="M199 -80q72 0 145 33q144 64 280 271q70 110 127 256q64 167 64 290q0 6 -1 42t-31 83q-27 38 -73 38q-58 0 -129 -52q-146 -114 -303 -367q-103 -168 -226 -410q-40 -79 -63 -119q106 -65 210 -65zM-415 -905q-11 0 -19 10q-4 7 -4 17q0 13 7 32q139 262 321 782l39 109
q108 285 250 800q60 219 177 658q10 40 35 40q9 0 16 -7q11 -9 11 -28q0 -15 -112 -394q-197 -670 -309 -999q226 425 413 640q184 212 307 212q20 0 45.5 -9.5t48.5 -43.5q40 -60 40 -152q0 -119 -59 -276.5t-141 -279.5q-142 -220 -326 -303q-83 -39 -172 -39q-10 0 -65 2
t-158 65q-153 -434 -268 -710l-37 -93q-15 -33 -40 -33z" />
    <glyph glyph-name="germandbls" unicode="&#xdf;" horiz-adv-x="1001" 
d="M101 391q23 14 84 71q156 145 318 348q203 255 294 481q31 79 31 124q0 35 -25 35q-3 0 -20.5 -1.5t-87.5 -63.5q-62 -56 -151.5 -187t-182.5 -290t-164.5 -300t-95.5 -217zM-127 -962q-59 0 -59 37q0 1 1 8t12 12q4 1 10 1q10 0 25 -5q11 -3 25 -3q105 0 282 128
q97 71 199 179q162 172 261 369q72 150 72 288q0 55 -15.5 122t-64 126.5t-120.5 86.5q-48 18 -104 18q-29 0 -61 -5q-19 -3 -31 -4q-19 -1 -44 -7q-81 -21 -131 -50q-19 -12 -28 -12q-11 0 -24 20q-7 -23 -19 -47q-25 -48 -100 -237q-110 -274 -163 -460q-69 -234 -69 -412
q0 -30 2 -60q8 2 15 2q26 0 26 -30v-12q-1 -9 -13 -29q-28 -22 -48 -22q-6 0 -19 3.5t-23 31.5t-12 68q0 49 3 80q28 234 150 574q106 296 205 518q145 325 308 611q194 338 347 478q84 75 146 75q16 0 37.5 -9.5t25.5 -57.5l1 -11q0 -46 -28 -121q-51 -133 -132 -266
t-171 -248.5t-171 -197t-132 -112.5q47 0 74 3q39 7 75 7q161 0 264 -122q99 -117 99 -290q0 -43 -11.5 -123.5t-78.5 -200.5q-115 -202 -322.5 -401.5t-369.5 -266.5q-57 -24 -101 -24z" />
    <glyph glyph-name="Eth" unicode="&#xd0;" horiz-adv-x="1882" 
d="M253 -900q65 0 145 18q155 36 321 134q276 161 533 441q190 208 318 411q145 232 253 540q-312 -132 -578.5 -260t-562.5 -301q-148 -281 -218 -427q-2 -4 -6 -7q-29 -61 -56 -113l-20 -49q-17 -32 -46 -32q-18 0 -18 28q0 19 9 36q100 172 271 513q-80 -50 -168 -120
q-197 -156 -307 -328q-92 -144 -92 -289q0 -6 1 -36t24 -69q55 -90 197 -90zM1004 649q-137 -224 -291 -509q481 276 1116 543q31 92 63 246q35 170 35 299q0 16 -1.5 62t-22.5 101.5t-68 75.5q-19 9 -45 9q-33 0 -77 -16q-143 -54 -310 -242q-168 -192 -381 -538l212 1
q41 0 110 10q13 0 20.5 -7.5t7.5 -18.5t-8.5 -18t-23.5 -7h-10q-73 9 -326 9zM982 680q332 541 563 720q141 110 250 110q3 0 27 -1t62 -25q98 -66 98 -283q0 -225 -87 -489q187 92 215 92q18 0 22 -20v-1q0 -19 -30 -30q-96 -32 -220 -85q-104 -298 -284 -583
q-157 -249 -351 -457q-300 -322 -637 -472q-194 -87 -337 -87q-27 0 -79.5 6.5t-104.5 45.5q-89 69 -89 198q0 41 10 86q24 105 84 202q112 179 319 338q109 84 213 143q101 207 200 412q39 79 73 149l-73 -1q-121 0 -239 -10q-36 0 -36 26q0 28 35 30l25 -2
q155 -13 252 -13h51q122 250 186 373q40 80 69 153q57 143 57 222q0 20 -4.5 39t-19.5 32.5t-42 13.5q-124 0 -344 -208q-223 -212 -413 -481q-85 -121 -127 -208q-24 -50 -42 -111q-22 -76 -22 -147q0 -194 189 -228q17 -5 17 -25q0 -27 -31 -28q-132 24 -186 127
q-33 59 -33 143q0 290 405 748q234 266 441 398q88 56 146 56q46 0 73 -41q19 -35 19 -81q0 -136 -127 -378q-68 -133 -181 -369zM930 649q-66 -138 -147 -310q94 167 180 310h-33z" />
    <glyph glyph-name="eth" unicode="&#xf0;" horiz-adv-x="432" 
d="M14 103q38 0 198 210q35 47 35 74q0 25 -31 25q-33 0 -71 -26q-69 -50 -118 -157q-29 -65 -29 -102q0 -24 16 -24zM88 -187q-7 0 -16 4q-16 7 -16 27q0 10 5 24q62 182 138 344q-49 -67 -108 -127q-57 -45 -97 -45q-3 0 -25.5 2t-34.5 45q-4 13 -4 29q0 104 123 231
q94 94 167 94q8 0 28.5 -2t50.5 -31q90 179 193 407q-101 -4 -191 -13h-3q-34 0 -34 33q0 35 35 38q101 -12 212 -19q114 249 219 426q34 58 54 58q5 0 10 -2q21 -9 21 -35q0 -16 -8 -29q-115 -190 -241 -419h30q77 0 147 12h4q12 0 20 -9t8 -26q0 -12 -8.5 -20.5
t-23.5 -8.5l-10 1q-96 13 -187 13q-207 -380 -331 -708q-54 -143 -85 -253q-11 -41 -42 -41z" />
    <glyph glyph-name="Ntilde" unicode="&#xd1;" horiz-adv-x="1772" 
d="M297 -905q-12 0 -20 12q-5 7 -5 17q0 13 7 32q29 54 92 208q146 354 317 838q197 562 285 913q52 210 52 309q0 91 -59 91q-50 0 -128 -55q-131 -87 -262 -214q-151 -151 -270 -305q-155 -199 -225 -377q-46 -114 -46 -208q0 -129 104 -192q40 -21 107 -26q18 -4 18 -25
q0 -24 -28 -28q-68 6 -120 35q-116 68 -116 219q0 110 53 241q75 184 231 381q122 156 285 310q292 280 418 280q4 0 25 -2t41 -36q16 -26 16 -75q0 -15 -2 -33q-20 -222 -200 -782q-143 -448 -338 -982q156 313 370.5 685.5t434.5 698.5q157 230 323 366q131 108 216 108
q21 0 37 -7q59 -26 59 -124q0 -71 -34 -188q-38 -129 -97 -259q-53 -121 -174 -361q-78 -153 -152 -309q-167 -353 -214 -623q-14 -79 -14 -153v-45q0 -42 18 -113q30 -118 160 -121q27 -1 36.5 -9t9.5 -24q-1 -5 -10.5 -13t-27.5 -8l-9 1q-152 19 -194 181q-17 72 -17 160
q0 74 12 153q28 165 87 330q88 252 289 652q92 185 151 312q142 324 142 456q0 8 -2 34t-28 41q-13 6 -29 6q-71 0 -201 -113q-75 -65 -153 -157q-168 -198 -486 -752q-306 -534 -561 -1039q-123 -244 -134 -277q-15 -35 -40 -35zM1661 1587q-29 0 -49 34q-13 22 -27 62
q-13 44 -22 46l-7 1q-17 0 -42 -79q-5 -17 -12 -36q-11 -19 -24 -19q-16 0 -22 11t-6 18q0 8 5 18q31 53 56.5 79t38.5 29.5t19 3.5q31 0 51.5 -36t25.5 -64q8 -34 13.5 -38t8.5 -4q27 0 64 96q10 23 17.5 24.5t9.5 1.5q9 0 15 -9q3 -6 3 -13q0 -9 -5 -20q-28 -50 -53 -74.5
t-38.5 -28t-19.5 -3.5z" />
    <glyph glyph-name="ntilde" unicode="&#xf1;" horiz-adv-x="576" 
d="M339 21q-24 0 -46 15q-48 33 -48 112q0 78 43 172q14 32 14 49q0 21 -19 21q-9 0 -22 -4q-48 -16 -102 -66q-48 -42 -77 -78q-46 -58 -78 -143l-8 -18q-24 -59 -52 -59l-9 1q-18 5 -18 41q0 25 13 62q70 177 115 273q12 27 37 27q13 0 21 -7t8 -17q0 -6 -3 -15
q-17 -36 -49 -127q56 60 126.5 110.5t128.5 50.5q42 0 42 -40q0 -35 -31 -118q-37 -85 -37 -142q0 -15 4.5 -36t32.5 -31q7 -2 14 -2q42 0 103.5 63t109.5 149q20 35 36 35q5 0 10 -5t5 -14q0 -15 -16 -37q-157 -222 -248 -222zM375 495q-36 0 -61 42q-16 27 -34 78
q-16 55 -28 57l-7 2q-22 0 -53 -99q-7 -22 -16 -46q-13 -23 -29 -23q-21 0 -28.5 13.5t-7.5 21.5q0 11 7 24q39 66 70.5 98.5t48 36.5t24.5 4q39 0 64 -44.5t31 -80.5q11 -42 17.5 -47t10.5 -5q33 0 80 120q12 29 21.5 31t11.5 2q12 0 19 -12q4 -7 4 -16q0 -11 -6 -25
q-35 -63 -66 -93.5t-48 -34.5t-25 -4z" />
    <glyph glyph-name="thorn" unicode="&#xfe;" horiz-adv-x="393" 
d="M12 41q34 0 70 26q69 50 118 158q29 65 29 99q0 26 -16 26q-39 0 -198 -211q-35 -47 -35 -71q0 -27 32 -27zM-428 -781q-30 0 -30 24q0 33 278 646q91 196 178 392q195 439 299 783q13 38 41 38q13 0 21 -11q4 -5 4 -14t-5 -23l-167 -413q-148 -369 -163 -401
q49 68 108 128q56 45 97 45q3 0 25.5 -2t34.5 -45q4 -13 4 -29q0 -103 -123 -231q-93 -97 -165 -97q-6 0 -24.5 2t-48.5 31q-149 -298 -323 -776q-17 -47 -41 -47z" />
    <glyph glyph-name="quoteleft" unicode="&#x2018;" horiz-adv-x="128" 
d="M100 799q11 0 11 -8q0 -6 -9 -15q-30 -22 -30 -44q0 -9 4.5 -19.5t4.5 -18.5q0 -6 -4 -15q-7 -14 -27 -14q-24 0 -33 30q-1 6 -1 12q0 14 8 31t25 34t38 24q8 3 13 3z" />
    <glyph glyph-name="quoteright" unicode="&#x2019;" horiz-adv-x="128" 
d="M26 665q-10 0 -10 8q0 6 9 15q29 22 29 44q0 10 -4.5 20t-4.5 18q0 6 5 15q7 14 26 14q25 0 33 -30q2 -6 2 -12q0 -14 -8 -31t-25 -34t-38 -24q-8 -3 -14 -3z" />
    <glyph glyph-name="quotesinglbase" unicode="&#x201a;" horiz-adv-x="128" 
d="M26 -91q-10 0 -10 8q0 6 9 15q29 22 29 44q0 10 -4.5 20t-4.5 18q0 6 5 15q7 14 26 14q25 0 33 -30q2 -6 2 -12q0 -14 -8 -31t-25 -34t-38 -24q-8 -3 -14 -3z" />
    <glyph glyph-name="quotedblleft" unicode="&#x201c;" horiz-adv-x="215" 
d="M188 828q11 0 11 -8q0 -6 -8 -14q-30 -23 -30 -43q0 -10 4.5 -21t4.5 -19q0 -6 -4 -15q-8 -14 -27 -14q-25 0 -33 31q-1 6 -1 12q0 13 7.5 30.5t24.5 34t38 23.5q8 3 13 3zM99 822q11 0 11 -8q0 -6 -9 -14q-30 -24 -30 -45q0 -9 5 -19.5t5 -18.5q0 -20 -21 -27
q-5 -2 -10 -2q-25 0 -33 30q-1 6 -1 12q0 34 32 65q28 27 51 27z" />
    <glyph glyph-name="quotedblright" unicode="&#x201d;" horiz-adv-x="215" 
d="M27 688q-11 0 -11 9q0 6 8 13q30 24 30 44q0 9 -4.5 20t-4.5 19q0 7 4 15q8 14 27 14q25 0 33 -30q1 -6 1 -12q0 -14 -7.5 -31t-24.5 -34t-38 -24q-8 -3 -13 -3zM116 694q-11 0 -11 8q0 6 9 15q30 24 30 44q0 9 -5 19.5t-5 18.5q0 21 21 27q6 2 10 2q25 0 33 -30
q1 -6 1 -12q0 -33 -32 -64q-28 -28 -51 -28z" />
    <glyph glyph-name="quotedblbase" unicode="&#x201e;" horiz-adv-x="215" 
d="M15 -88q-11 0 -11 9q0 6 8 13q30 24 30 44q0 9 -4.5 20t-4.5 19q0 7 4 15q8 14 27 14q25 0 33 -30q1 -6 1 -12q0 -14 -7.5 -31t-24.5 -34t-38 -24q-8 -3 -13 -3zM104 -82q-11 0 -11 8q0 6 9 15q30 24 30 44q0 9 -5 19.5t-5 18.5q0 21 21 27q6 2 10 2q25 0 33 -30
q1 -6 1 -12q0 -33 -32 -64q-28 -28 -51 -28z" />
    <glyph glyph-name="lessequal" unicode="&#x2264;" horiz-adv-x="596" 
d="M416 120q-9 0 -19 5q-166 81 -360 114q-21 5 -21 24q0 23 33 34l62 13q66 13 138 30q165 37 278 90q10 4 19 4q22 0 32 -21q2 -5 2 -10q0 -25 -34 -32q-72 -11 -191.5 -39t-238.5 -65q131 -67 306 -89q22 -4 22 -25q0 -20 -18 -31q-4 -2 -10 -2zM488 -9l-9 1
q-97 11 -189 11q-120 0 -237 -11h-3q-34 0 -34 26q0 29 35 30l25 -2q155 -13 252 -13h54q41 0 108 9l4 1q11 0 18.5 -7.5t7.5 -18.5t-8.5 -18.5t-23.5 -7.5z" />
    <glyph glyph-name="greaterequal" unicode="&#x2265;" horiz-adv-x="615" 
d="M180 434q8 0 19 -5q165 -81 360 -114q21 -5 21 -24q0 -23 -33 -34l-63 -12q-65 -14 -137 -30q-165 -38 -279 -90q-9 -5 -18 -5q-23 0 -32 21q-2 5 -2 10q0 25 34 32q71 11 190.5 39t239.5 65q-132 67 -306 90q-23 3 -23 25q0 19 18 30q5 2 11 2zM107 -9q-15 0 -23.5 7.5
t-8.5 18.5t8 18.5t18 7.5l5 -1q66 -9 108 -9h53q97 0 252 13l26 2q35 -1 35 -30q0 -26 -35 -26h-2q-117 11 -238 11q-91 0 -188 -11z" />
    <glyph glyph-name="ordmasculine" unicode="&#xba;" horiz-adv-x="279" 
d="M51 578q-35 0 -35 53q0 57 39 148q22 46 37 70l-1 1v10q0 33 37 67q40 37 83 47q9 2 16 2q36 0 36 -56q-1 -49 -44 -146q-37 -83 -85 -139.5t-83 -56.5zM52 602q20 0 62 53q37 50 76 135q48 113 48 148q0 15 -6 16q-24 0 -72 -58q-33 -41 -64 -102q-50 -111 -50 -173
q0 -19 5 -19h1z" />
    <glyph glyph-name="uni00B9" unicode="&#xb9;" horiz-adv-x="319" 
d="M104 584h-5q-5 0 -9 4q-12 -1 -24 -1t-30 -2q-20 0 -20 15q0 3 2 7t6 7.5t10 3.5q28 -4 56 -5q26 55 108 221q28 51 52 102q-49 -26 -102 -63q-6 -3 -10 -3q-20 0 -20 21q0 11 13 17t27 11q78 32 116 61q2 2 4 2.5t4 1.5t8 1q13 -6 13 -18q0 -3 -0.5 -5t-1 -3l-1.5 -3
q-110 -171 -174 -345q48 0 73 4q18 0 18 -16q0 -14 -21 -14q-19 2 -80 4q-5 -4 -12 -5z" />
    <glyph glyph-name="uni00B2" unicode="&#xb2;" horiz-adv-x="343" 
d="M194 585q-34 4 -65 4q-46 0 -95 -4q-18 0 -18 17t18 24q40 15 109 80q90 87 131 164q24 44 24 67q0 19 -15 23q-43 0 -87 -46q-18 -20 -22 -41q-4 -25 -25 -29q-22 0 -22 22q4 37 60.5 79t99.5 42q11 0 22 -5q18 -10 18 -37q0 -29 -23 -73q-37 -71 -114 -153
q-63 -65 -110 -102q29 -5 72 -5q26 0 51 3q15 0 15 -15q-3 -15 -24 -15z" />
    <glyph glyph-name="uni00B3" unicode="&#xb3;" horiz-adv-x="335" 
d="M71 585q-13 0 -25 4q-30 13 -30 47q0 22 13 45q0 1 0.5 2.5t2.5 2.5q14 17 28 17t14 -13q0 -5 -7 -17q-21 -33 -21 -46q0 -10 15 -16q5 -1 11 -1q29 0 74 35q60 48 88 104q14 24 14 42q0 24 -31 26q-31 -17 -64 -20q-23 0 -23 16t29 23q7 2 14 2q5 3 40 4q20 6 44 32
q34 37 34 66q0 24 -23 24q-25 0 -67 -29q-49 -37 -49 -54q0 -2 1 -3q4 -4 4 -9q0 -11 -11 -15q-6 -6 -15 -6q-4 0 -9 3q-12 8 -12 20t11 29q35 43 103 74q28 11 47 11q32 0 42 -23q5 -9 5 -19q0 -50 -71 -107q30 -14 30 -49q0 -43 -44 -98q-58 -75 -136 -100q-13 -4 -26 -4z
" />
    <glyph glyph-name="dotlessi" unicode="&#x131;" horiz-adv-x="127" 
d="M50 -244h-8q-13 0 -21 14q-5 10 -5 26l1 16q7 58 18 243q21 356 21 572q0 81 -3 142q0 33 30 33q7 0 14 -4t10.5 -10.5t3.5 -16.5v-4q-30 -233 -40 -946q0 -58 -21 -65z" />
    <glyph glyph-name="endash" unicode="&#x2013;" horiz-adv-x="536" 
d="M488 251l-9 1q-97 11 -189 11q-120 0 -237 -11h-3q-34 0 -34 26q0 29 35 30l25 -2q155 -13 252 -13h54q41 0 108 9l4 1q11 0 18.5 -7.5t7.5 -18.5t-8.5 -18.5t-23.5 -7.5z" />
    <glyph glyph-name="emdash" unicode="&#x2014;" horiz-adv-x="882" 
d="M52 252q-36 0 -36 26q0 28 34 30l26 -2q155 -13 252 -13l370 2q42 0 111 10q13 0 20.5 -7.5t7.5 -18.5t-8.5 -18t-23.5 -7h-10q-78 9 -363 9l-142 -1q-120 0 -238 -10z" />
    <glyph glyph-name="bullet" unicode="&#x2022;" horiz-adv-x="309" 
d="M113 -125q-30 0 -52.5 22.5t-22.5 54.5t22.5 55t52.5 23q33 0 55.5 -23t22.5 -55t-22.5 -54.5t-55.5 -22.5z" />
    <glyph glyph-name="periodcentered" unicode="&#xb7;" horiz-adv-x="308" 
d="M82 -74q-13 0 -22.5 9t-9.5 22t9.5 22.5t22.5 9.5t22.5 -9.5t9.5 -22.5t-9.5 -22t-22.5 -9z" />
    <glyph glyph-name="guilsinglleft" unicode="&#x2039;" horiz-adv-x="485" 
d="M335 139q-9 0 -19 5q-165 81 -279 95q-21 5 -21 24q0 23 33 34l62 13q66 13 138 30q39 5 153 58q9 4 18 4q23 0 32 -21q2 -5 2 -10q0 -25 -34 -32q-71 -11 -128 -23t-176 -49q51 -48 225 -70q23 -4 23 -25q0 -20 -18 -30q-5 -3 -11 -3z" />
    <glyph glyph-name="guilsinglright" unicode="&#x203a;" horiz-adv-x="456" 
d="M135 402q9 0 19 -5q165 -81 279 -95q21 -5 21 -24q0 -23 -33 -33l-62 -13q-66 -14 -138 -30q-39 -6 -153 -58q-9 -5 -18 -5q-23 0 -32 22q-2 5 -2 10q0 24 34 31q71 11 128 23t176 49q-51 48 -225 71q-23 3 -23 25q0 19 18 30q5 2 11 2z" />
    <glyph glyph-name="guillemotleft" unicode="&#xab;" horiz-adv-x="754" 
d="M335 139q-9 0 -19 5q-165 81 -279 95q-21 5 -21 24q0 23 33 34l62 13q66 13 138 30q39 5 153 58q9 4 18 4q23 0 32 -21q2 -5 2 -10q0 -25 -34 -32q-71 -11 -128 -23t-176 -49q51 -48 225 -70q23 -4 23 -25q0 -20 -18 -30q-5 -3 -11 -3zM546 158q-7 0 -15 4
q-130 64 -220 75q-16 3 -16 18q0 19 26 27l49 10q52 11 108 24q31 4 121 45q7 4 14 4q18 0 25 -17q2 -4 2 -8q0 -19 -27 -25q-56 -9 -100.5 -18t-138.5 -38q39 -38 177 -56q18 -3 18 -20q0 -15 -15 -23q-3 -2 -8 -2z" />
    <glyph glyph-name="guillemotright" unicode="&#xbb;" horiz-adv-x="751" 
d="M321 402q8 0 19 -5q165 -81 279 -95q21 -5 21 -24q0 -23 -33 -33l-63 -13q-65 -14 -137 -30q-40 -6 -153 -58q-10 -5 -18 -5q-23 0 -32 22q-2 5 -2 10q0 24 34 31q71 11 127.5 23t176.5 49q-51 48 -225 71q-23 3 -23 25q0 19 18 30q5 2 11 2zM110 383q6 0 15 -3
q130 -64 219 -75q17 -4 17 -19q0 -18 -26 -27l-49 -10q-52 -10 -109 -23q-31 -5 -120 -46q-8 -3 -14 -3q-18 0 -25 16q-2 4 -2 8q0 20 27 25q56 9 100.5 18.5t138.5 38.5q-40 38 -177 55q-18 3 -18 20q0 16 14 24q4 1 9 1z" />
    <glyph glyph-name="dagger" unicode="&#x2020;" horiz-adv-x="564" 
d="M32 -255q-16 0 -16 26q0 20 16 53q140 263 268 538q-81 -2 -155 -10q-27 0 -27 26q0 29 27 30q102 -10 170 -14q26 54 59 117q79 153 119 245q12 25 31 25q13 0 20 -11q4 -5 4 -12q0 -10 -7 -23q-124 -202 -182 -340h36q60 0 106 7l4 1q8 0 14.5 -7.5t6.5 -20.5
q0 -11 -7 -17.5t-23 -6.5q-81 11 -153 12q-162 -297 -263 -561q-23 -57 -48 -57z" />
    <glyph glyph-name="copyright" unicode="&#xa9;" horiz-adv-x="889" 
d="M268 -223q117 0 233 117q103 104 190 263q79 146 114 253q31 96 31 174q0 36 -7 68q-28 119 -182 126h-3q-138 0 -277 -131q-128 -120 -216 -301q-90 -184 -90 -331q0 -238 207 -238zM270 -249q-88 1 -145 40t-83 103t-26 138q0 78 27 169q52 176 170 332
q126 167 275 233q77 33 155 33q90 0 145 -39q85 -59 85 -190q0 -75 -23 -156q-34 -119 -123 -270q-98 -165 -212 -271q-128 -120 -245 -122zM390 78l-8 -1q-41 0 -74 25q-39 33 -39 102q0 52 22 95q32 65 71 103q97 98 172 98q5 0 19 -1t32 -14q24 -19 24 -51q0 -17 -8 -37
q-7 -17 -21 -17q-10 0 -10 11q0 4 3 11q10 23 10 41q0 31 -29 31q-32 0 -75 -27q-62 -41 -111 -122q-42 -70 -42 -131q0 -47 32 -74q17 -14 43 -14q28 0 56 16t51 39t34 47q9 16 19 16q14 0 18 -17q1 -3 1 -7q0 -13 -10 -28q-27 -37 -77 -63.5t-103 -30.5z" />
    <glyph glyph-name="registered" unicode="&#xae;" horiz-adv-x="337" 
d="M106 572q-29 0 -49.5 16.5t-30.5 44t-10 62.5q0 42 14 87q17 58 50 105.5t73 75.5t78 28q59 0 79 -52q10 -25 11 -42q0 -119 -60 -216q-70 -109 -155 -109zM129 602q29 0 56 25q57 50 89 147q21 59 21 107q0 81 -56 86q-48 0 -109 -105q-10 -15 -22 -15q-4 0 -7 0.5
t-5 0.5q-5 0 -7 -4q-31 -67 -31 -135q0 -11 2 -35t19 -47.5t50 -24.5zM198 697q-7 0 -12 6l-28 59l-23 -50q-3 -10 -15 -10q-17 0 -17 16q0 4 2 8q29 42 43 73.5t22 67.5q1 7 4.5 9.5t8.5 3t9 0.5q29 0 42 -17q8 -10 8 -21q0 -17 -13 -32q-16 -18 -51 -24q1 -21 12.5 -38.5
t21.5 -24.5q6 -5 6 -10q0 -3 -2 -6q-6 -10 -18 -10zM178 801q12 4 20.5 11t10.5 12t2 8q0 12 -14 12z" />
    <glyph glyph-name="section" unicode="&#xa7;" horiz-adv-x="369" 
d="M-272 -474q-30 0 -55 11q-57 26 -57 95q0 62 45 137q54 87 97 87q31 -5 33 -17t2 -14q0 -17 -22 -33q-62 -54 -94 -127q-13 -33 -13 -58q0 -53 62 -53q99 0 177 104q73 97 101 209q9 38 10 75q0 48 -17 143q-14 80 -14 123q0 88 51 148q34 39 103 72q-34 99 -34 181
q0 106 49 210q72 144 186 144q62 0 96 -48q24 -34 24 -88q-2 -67 -47 -121q-22 -24 -44 -24q-35 0 -35 27q0 14 13 27q56 51 56 128q0 76 -60 76q-40 0 -88 -43q-40 -36 -70 -93q-32 -69 -37 -113q-6 -53 -6 -74q0 -74 24 -155q40 -127 40 -180q0 -52 -37 -96t-126 -90v-2
q13 -79 13 -133q0 -92 -51 -198q-67 -138 -167 -203q-43 -27 -70.5 -30.5t-37.5 -3.5zM33 145q124 61 124 172q0 44 -12 86q-60 -33 -85 -75t-28 -73t-3 -45q0 -32 4 -65z" />
    <glyph glyph-name="degree" unicode="&#xb0;" horiz-adv-x="279" 
d="M51 578q-35 0 -35 53q0 57 39 148q22 46 37 70l-1 1v10q0 16 9 31q10 19 28 36q40 37 83 47q9 2 16 2q36 0 36 -56q-1 -49 -44 -146q-37 -83 -85 -138q-48 -58 -83 -58zM52 602q20 0 62 53q37 50 76 135q48 113 48 148q0 15 -6 16q-24 0 -72 -58q-33 -41 -64 -102
q-50 -111 -50 -173q0 -19 5 -19h1z" />
    <glyph glyph-name="bar" unicode="|" horiz-adv-x="127" 
d="M50 -244h-8q-13 0 -21 14q-5 10 -5 26l1 16q7 58 18 243q21 356 21 572q0 81 -3 142q0 33 30 33q7 0 14 -4t10.5 -10.5t3.5 -16.5v-4q-30 -233 -40 -946q0 -58 -21 -65z" />
    <glyph glyph-name="Agrave" unicode="&#xc0;" horiz-adv-x="1365" 
d="M36 -940q-13 0 -24.5 9t-11.5 27q0 2 0.5 13t24.5 33q62 63 244 315t399 586q-75 -7 -142 -7q-332 0 -332 216q0 252 390 656q161 166 344.5 318t342.5 244q98 56 159 56h3q62 -7 62 -90q0 -65 -34 -174q-3 -10 -5 -18q-40 -138 -98.5 -297.5t-126.5 -332.5
q-111 -287 -135 -345l-44 -110q191 62 315 135q5 4 10 4q11 0 11 -12q0 -9 -9 -16q-152 -92 -344 -152q-206 -509 -206 -785q0 -44 9 -107.5t52 -121.5q3 -5 3 -10q0 -7 -9 -16q-13 -14 -33 -14q-11 0 -19 8q-60 71 -60 213q0 272 220 821q-137 -40 -278 -58
q-364 -569 -627 -955q-24 -33 -51 -33zM611 74q35 0 81 6q216 334 407 656q199 336 288 532q59 132 59 186q0 34 -26 35q-129 -3 -385 -208q-268 -214 -506 -481q-109 -121 -168 -207q-62 -93 -97 -197q-22 -65 -22 -118q0 -116 110 -165q88 -40 215 -40zM738 86
q138 20 271 60q45 110 81 195l37 91q206 504 290 813q-184 -379 -679 -1159zM1482 1597q-32 0 -32 74q0 32 8 62q14 56 48 56q16 0 25 -12q7 -10 7 -19q0 -18 -20 -29q-15 -8 -21 -30q-9 -27 -9 -61q0 -7 3 -29q0 -11 -9 -12z" />
    <glyph glyph-name="Aacute" unicode="&#xc1;" horiz-adv-x="1365" 
d="M36 -940q-13 0 -24.5 9t-11.5 27q0 2 0.5 13t24.5 33q62 63 244 315t399 586q-75 -7 -142 -7q-332 0 -332 216q0 252 390 656q161 166 344.5 318t342.5 244q98 56 159 56h3q62 -7 62 -90q0 -65 -34 -174q-3 -10 -5 -18q-40 -138 -98.5 -297.5t-126.5 -332.5
q-111 -287 -135 -345l-44 -110q191 62 315 135q5 4 10 4q11 0 11 -12q0 -9 -9 -16q-152 -92 -344 -152q-206 -509 -206 -785q0 -44 9 -107.5t52 -121.5q3 -5 3 -10q0 -7 -9 -16q-13 -14 -33 -14q-11 0 -19 8q-60 71 -60 213q0 272 220 821q-137 -40 -278 -58
q-364 -569 -627 -955q-24 -33 -51 -33zM611 74q35 0 81 6q216 334 407 656q199 336 288 532q59 132 59 186q0 34 -26 35q-129 -3 -385 -208q-268 -214 -506 -481q-109 -121 -168 -207q-62 -93 -97 -197q-22 -65 -22 -118q0 -116 110 -165q88 -40 215 -40zM738 86
q138 20 271 60q45 110 81 195l37 91q206 504 290 813q-184 -379 -679 -1159zM1478 1592q-11 0 -11 9q0 5 8 13q12 10 26 30q26 37 26 63q0 8 -3 15q-4 10 -4 18q0 6 4 15q7 13 26 13q27 0 34 -30q1 -5 1 -9q0 -18 -13.5 -45t-36.5 -54q-33 -38 -57 -38z" />
    <glyph glyph-name="Acircumflex" unicode="&#xc2;" horiz-adv-x="1364" 
d="M36 -940q-13 0 -24.5 9t-11.5 27q0 2 0.5 13t24.5 33q62 63 244 315t399 586q-75 -7 -142 -7q-332 0 -332 216q0 252 390 656q161 166 344.5 318t342.5 244q98 56 159 56h3q62 -7 62 -90q0 -65 -34 -174q-3 -10 -5 -18q-40 -138 -98.5 -297.5t-126.5 -332.5
q-111 -287 -135 -345l-44 -110q191 62 315 135q5 4 10 4q11 0 11 -12q0 -9 -9 -16q-152 -92 -344 -152q-206 -509 -206 -785q0 -44 9 -107.5t52 -121.5q3 -5 3 -10q0 -7 -9 -16q-13 -14 -33 -14q-11 0 -19 8q-60 71 -60 213q0 272 220 821q-137 -40 -278 -58
q-364 -569 -627 -955q-24 -33 -51 -33zM611 74q35 0 81 6q216 334 407 656q199 336 288 532q59 132 59 186q0 34 -26 35q-129 -3 -385 -208q-268 -214 -506 -481q-109 -121 -168 -207q-62 -93 -97 -197q-22 -65 -22 -118q0 -116 110 -165q88 -40 215 -40zM738 86
q138 20 271 60q45 110 81 195l37 91q206 504 290 813q-184 -379 -679 -1159zM1559 1543q-16 0 -25 14q-4 5 -4 13q0 6 3 14q53 144 53 278q-50 -45 -103 -116.5t-96 -151.5q-9 -12 -23 -12q-10 0 -19.5 8t-10.5 21q0 14 13 27q140 127 235 285q10 15 26 15q26 0 26 -34
q0 -14 -15 -89q-29 -156 -33 -247q-3 -25 -27 -25z" />
    <glyph glyph-name="Atilde" unicode="&#xc3;" horiz-adv-x="1365" 
d="M36 -940q-13 0 -24.5 9t-11.5 27q0 2 0.5 13t24.5 33q62 63 244 315t399 586q-75 -7 -142 -7q-332 0 -332 216q0 252 390 656q161 166 344.5 318t342.5 244q98 56 159 56h3q62 -7 62 -90q0 -65 -34 -174q-3 -10 -5 -18q-40 -138 -98.5 -297.5t-126.5 -332.5
q-111 -287 -135 -345l-44 -110q191 62 315 135q5 4 10 4q11 0 11 -12q0 -9 -9 -16q-152 -92 -344 -152q-206 -509 -206 -785q0 -44 9 -107.5t52 -121.5q3 -5 3 -10q0 -7 -9 -16q-13 -14 -33 -14q-11 0 -19 8q-60 71 -60 213q0 272 220 821q-137 -40 -278 -58
q-364 -569 -627 -955q-24 -33 -51 -33zM611 74q35 0 81 6q216 334 407 656q199 336 288 532q59 132 59 186q0 34 -26 35q-129 -3 -385 -208q-268 -214 -506 -481q-109 -121 -168 -207q-62 -93 -97 -197q-22 -65 -22 -118q0 -116 110 -165q88 -40 215 -40zM738 86
q138 20 271 60q45 110 81 195l37 91q206 504 290 813q-184 -379 -679 -1159zM1578 1610q-29 0 -49 34q-13 22 -27 62q-14 44 -22 46l-7 1q-17 0 -42 -79q-5 -17 -13 -36q-10 -19 -23 -19q-16 0 -22 11t-6 18q0 8 5 18q31 53 56.5 79t38.5 29.5t19 3.5q31 0 51.5 -36
t24.5 -64q9 -34 14.5 -38t8.5 -4q27 0 64 96q9 23 16.5 24.5t10.5 1.5q9 0 14 -9q4 -6 4 -13q0 -9 -5 -20q-28 -50 -53 -74.5t-38.5 -28t-19.5 -3.5z" />
    <glyph glyph-name="Adieresis" unicode="&#xc4;" horiz-adv-x="1365" 
d="M36 -940q-13 0 -24.5 9t-11.5 27q0 2 0.5 13t24.5 33q62 63 244 315t399 586q-75 -7 -142 -7q-332 0 -332 216q0 252 390 656q161 166 344.5 318t342.5 244q98 56 159 56h3q62 -7 62 -90q0 -65 -34 -174q-3 -10 -5 -18q-40 -138 -98.5 -297.5t-126.5 -332.5
q-111 -287 -135 -345l-44 -110q191 62 315 135q5 4 10 4q11 0 11 -12q0 -9 -9 -16q-152 -92 -344 -152q-206 -509 -206 -785q0 -44 9 -107.5t52 -121.5q3 -5 3 -10q0 -7 -9 -16q-13 -14 -33 -14q-11 0 -19 8q-60 71 -60 213q0 272 220 821q-137 -40 -278 -58
q-364 -569 -627 -955q-24 -33 -51 -33zM611 74q35 0 81 6q216 334 407 656q199 336 288 532q59 132 59 186q0 34 -26 35q-129 -3 -385 -208q-268 -214 -506 -481q-109 -121 -168 -207q-62 -93 -97 -197q-22 -65 -22 -118q0 -116 110 -165q88 -40 215 -40zM738 86
q138 20 271 60q45 110 81 195l37 91q206 504 290 813q-184 -379 -679 -1159zM1426 1620q-19 0 -32.5 13.5t-13.5 32.5t13.5 32t32.5 13t32.5 -13t13.5 -32t-13.5 -32.5t-32.5 -13.5zM1574 1618q-19 0 -32.5 13.5t-13.5 32.5q0 18 13.5 31.5t32.5 13.5t32.5 -13.5t13.5 -31.5
q0 -19 -13.5 -32.5t-32.5 -13.5z" />
    <glyph glyph-name="Aring" unicode="&#xc5;" horiz-adv-x="1365" 
d="M36 -940q-13 0 -24.5 9t-11.5 27q0 2 0.5 13t24.5 33q62 63 244 315t399 586q-75 -7 -142 -7q-332 0 -332 216q0 252 390 656q161 166 344.5 318t342.5 244q98 56 159 56h3q62 -7 62 -90q0 -65 -34 -174q-3 -10 -5 -18q-40 -138 -98.5 -297.5t-126.5 -332.5
q-111 -287 -135 -345l-44 -110q191 62 315 135q5 4 10 4q11 0 11 -12q0 -9 -9 -16q-152 -92 -344 -152q-206 -509 -206 -785q0 -44 9 -107.5t52 -121.5q3 -5 3 -10q0 -7 -9 -16q-13 -14 -33 -14q-11 0 -19 8q-60 71 -60 213q0 272 220 821q-137 -40 -278 -58
q-364 -569 -627 -955q-24 -33 -51 -33zM611 74q35 0 81 6q216 334 407 656q199 336 288 532q59 132 59 186q0 34 -26 35q-129 -3 -385 -208q-268 -214 -506 -481q-109 -121 -168 -207q-62 -93 -97 -197q-22 -65 -22 -118q0 -116 110 -165q88 -40 215 -40zM738 86
q138 20 271 60q45 110 81 195l37 91q206 504 290 813q-184 -379 -679 -1159zM1496 1595q-25 0 -39.5 18t-16.5 36.5t-2 25.5q0 62 42 123q21 30 47 48t51 18q24 0 38 -14.5t16.5 -32t2.5 -29.5q0 -41 -20 -87q-27 -62 -71 -91q-22 -15 -48 -15zM1517 1627q44 2 77 69
q22 45 22 85q0 51 -40 56q-23 0 -52 -58q-7 -9 -15 -9h-4q-7 0 -8 -2q-22 -48 -22 -85q0 -19 7.5 -36.5t34.5 -19.5z" />
    <glyph glyph-name="AE" unicode="&#xc6;" horiz-adv-x="1792" 
d="M738 86q138 20 271 60q45 110 81 196l37 90q206 503 290 814q-183 -380 -679 -1160zM1398 1294q48 111 48 160q0 33 -26 35q-129 -3 -385 -207q-268 -215 -506 -481q-109 -122 -168 -208q-63 -93 -97 -197q-22 -65 -22 -118q0 -116 110 -165q87 -39 215 -39h44q35 0 81 6
q216 334 407 657q187 316 277 509q-107 -45 -226 -102q-92 -47 -160 -106q18 -5 18 -20v-2q0 -13 -10 -19q-22 -14 -44 -14q-36 0 -36 34q0 38 187 145q122 68 293 132zM1467 1283l-6 -21q-3 -10 -5 -18q-40 -138 -99 -297.5t-126 -332.5q-111 -288 -135 -345l-44 -110
q50 16 95 33q4 7 7 15q92 211 189 411q211 438 451 772q-145 -35 -327 -107zM1125 149q-51 -18 -90 -31q-205 -509 -205 -784q0 -45 8 -108.5t52 -121.5q3 -6 3 -10q0 -8 -8 -16q-14 -14 -34 -14q-10 0 -19 8q-60 71 -60 213q0 272 220 821q-137 -40 -278 -58
q-364 -570 -627 -955q-24 -33 -50 -33q-15 0 -26 9t-11 27q0 2 0.5 13t24.5 33q62 63 243.5 315t399.5 586q-75 -7 -142 -7q-332 0 -332 217q0 251 390 655q161 166 344.5 318t342.5 244q99 56 159 56h3q62 -7 62 -89q0 -47 -17 -113q186 66 271 84q22 4 45 10q27 8 44 36
q72 118 93 118q23 0 23 -18q0 -26 -53 -92l-14 -18q70 17 168 34q217 35 404 35q15 0 77.5 -1t157.5 -20q156 -34 214 -122q18 -27 18 -60q0 -44 -32 -96q-31 -44 -56 -44q-16 0 -22 16q-3 7 -3 15q0 27 25.5 69t25.5 68q0 8 -6 26q-15 40 -152 74q-142 35 -321 35
q-163 0 -344 -35l-47 -8q-95 -16 -125 -32q-53 -28 -382 -611q-247 -433 -289 -575l11 5q30 15 70 31q46 20 109 35q59 15 106 15q9 1 25 1q20 -1 20 -21q0 -11 -5 -16q-11 -8 -40 -8q-12 0 -24 -2q-122 -20 -221 -58q-65 -25 -77 -36q-18 -16 -74 -181q-64 -177 -93 -339
q-19 -103 -19 -187q0 -177 82 -256.5t186 -79.5q80 0 170 46q112 57 284 218l125 130q14 17 30 17q7 0 15 -3q11 -5 11 -16q0 -17 -33 -49l-110 -111q-40 -33 -80 -69q-33 -32 -70 -63q-82 -69 -180 -110q-75 -31 -157 -31q-140 0 -229 84q-60 56 -80 135q-18 61 -18 139
q0 97 31 225t105 327q27 70 45 131q4 19 12 34z" />
    <glyph glyph-name="OE" unicode="&#x152;" horiz-adv-x="2301" 
d="M1507 98q-115 -312 -263 -558q-164 -273 -330 -406q-128 -104 -244 -104q-60 0 -120 34q-221 119 -221 448q0 196 86 458q115 352 319 684q218 354 429 485q16 10 29 10q7 0 18.5 -6.5t11.5 -26.5q0 -18 -21 -34q-208 -128 -427 -468q-206 -320 -324 -659
q-88 -248 -88 -446q0 -47 9 -125t60 -162t130 -133q50 -31 105 -31q156 0 353 250q108 138 212 325q87 157 134 266q34 77 64 150q-63 -44 -137 -108q-69 -60 -88 -93q-10 -18 -20 -18q-4 0 -9 1q-14 7 -14 19q0 62 290 254q176 452 176 772q0 12 -0.5 82t-35.5 185l-2 7
q-6 -3 -11 -6q-92 -47 -161 -106q18 -5 18.5 -20t-9.5 -21q-23 -14 -45 -14q-35 0 -35 34q0 38 186 145q22 12 45 24q-42 112 -112 188q-116 118 -255 118q-8 0 -46.5 -1t-111 -26t-146.5 -63q-178 -90 -340.5 -232.5t-287.5 -311.5t-192 -340q-41 -108 -41 -207
q0 -6 0.5 -37.5t21.5 -79.5q31 -69 114 -104q18 -8 46 -9q19 -5 19 -25q0 -26 -28 -28q-44 3 -104 38l-9 6q-105 79 -105 216q0 57 15 118q53 222 234 464q130 174 297.5 323t343.5 239q167 86 312 86q172 0 288 -121q74 -79 117 -196q108 53 244 103q228 83 325 104
q22 4 45 10q27 8 45 36q72 118 92 118q24 0 24 -18q0 -26 -54 -92l-14 -18q70 17 168 34q217 35 404 35q15 0 77.5 -1t157.5 -20q157 -34 214 -122q18 -27 18 -60q0 -44 -32 -96q-31 -44 -56 -44q-15 0 -22 16q-3 7 -3 15q0 27 25.5 69t25.5 68q0 8 -6 26q-15 40 -152 74
q-142 35 -321 35q-163 0 -344 -35l-47 -8q-95 -16 -125 -32q-53 -28 -382 -611q-248 -436 -289 -577q50 29 136 57q93 31 160 31q9 1 25 1q20 -1 20 -21q0 -11 -5 -16q-11 -8 -39 -8q-12 0 -24 -2q-123 -20 -222 -58q-65 -25 -77 -36q-18 -16 -73 -181q-64 -177 -94 -339
q-19 -103 -19 -187q0 -177 82 -256.5t187 -79.5q80 0 169 46q112 57 284 218l125 130q14 17 30 17q8 0 15 -3q11 -5 11 -16q0 -17 -33 -49l-110 -111q-40 -33 -79 -69q-34 -32 -71 -63q-81 -69 -180 -110q-75 -31 -157 -31q-140 0 -229 84q-59 56 -80 135q-18 61 -18 139
q0 97 31 225t105 327q27 70 45 131q-16 -7 -33 -17zM1620 1164q2 -5 3 -10q41 -137 41 -296q0 -315 -139 -711q14 9 26 18q19 14 31 42q92 211 188 411q212 438 452 772q-250 -60 -602 -226z" />
    <glyph glyph-name="Ccedilla" unicode="&#xc7;" horiz-adv-x="1308" 
d="M263 -921q-26 6 -49 18q-63 31 -106 91q-85 114 -85 309q0 27 3 77q7 113 49 279q80 313 267 670q87 167 192 325q219 330 440 514q188 156 297 156q75 0 91 -74q8 -36 8 -80q0 -137 -76 -354q-70 -196 -180 -390q-47 -82 -98 -152q-88 -119 -147 -119q-35 0 -35 28
q0 25 25 29q49 11 127 105q96 117 192 314q45 91 81 190q76 207 76 342v25q-1 63 -22 83q-18 16 -45 16q-62 0 -158 -65t-209 -183q-215 -222 -420 -563q-101 -166 -179 -331q-243 -505 -243 -842q0 -175 79 -279q40 -55 96 -83q50 -25 109 -25q112 0 227 96
q132 112 297 348q174 248 359 593q77 142 82.5 146.5t11.5 4.5q12 0 12 -16l-1 -7q-1 -7 -63 -119q-138 -248 -222 -386q-260 -417 -459 -587q-133 -112 -257 -113q-12 0 -24 1q-12 -22 -64 -104q22 0 35 -5q29 -15 33 -37t4 -31q0 -28 -12 -60q-14 -44 -44 -81.5t-61 -52
t-55 -14.5q-54 0 -82 42q-14 20 -14 44q0 48 28 48q21 0 21 -22q0 -4 -0.5 -6t-0.5 -3q-4 -8 -4 -33q0 -43 40 -43q52 0 97 64q23 31 36 66q15 39 15 66q0 39 -32 39q-7 0 -15 -2q-20 0 -20 18q0 5 52 115z" />
    <glyph glyph-name="Egrave" unicode="&#xc8;" horiz-adv-x="1034" 
d="M1321 1693q-32 0 -32 75q0 31 8 61q14 56 48 56q16 0 25 -12q7 -10 7 -18q0 -19 -20 -30q-15 -8 -21 -30q-9 -27 -9 -60q0 -8 3 -30q0 -11 -9 -12zM476 -797q-137 0 -225 82q-95 92 -95 268q0 95 30 220t103 320q26 69 43 129q-98 -47 -242 -171q-67 -59 -86 -91
q-10 -18 -20 -18q-4 0 -8 2q-14 6 -14 19q0 60 284 248q35 23 57 34.5t40 25t30 41.5q90 205 185 402q206 428 441 754q-258 -62 -632 -237q-90 -47 -155 -107q-16 -23 -17.5 -38t-17.5 -16q-35 0 -35 33q0 38 183 142q129 72 312 139q223 81 317 102q22 4 44 10q27 8 44 35
q70 115 91 115q22 0 22 -17q0 -26 -52 -91l-13 -17q285 67 559 67q14 0 75.5 -0.5t153.5 -19.5q154 -33 210 -119q17 -27 17 -58q0 -72 -40 -72q-8 0 -18 3q-21 10 -21 29q0 7 3 16q16 30 16 50q0 8 -6 26q-14 39 -150.5 72.5t-312.5 33.5q-167 0 -382 -42q-93 -16 -122 -31
q-52 -27 -373 -597q-244 -427 -284 -564q50 28 133 55q95 32 182 32q19 -2 19 -21q0 -24 -43 -24q-12 0 -24 -2q-120 -19 -217 -56q-63 -25 -75 -35q-18 -17 -72 -178q-62 -173 -91 -331q-19 -101 -19 -183q0 -174 80 -251t183 -77q78 0 166 44q109 56 277 214l123 127
q14 17 29 17q7 0 14 -3q11 -6 11 -16q0 -17 -32 -48l-108 -108q-39 -33 -77 -69q-33 -30 -69 -61q-80 -68 -176 -107q-74 -31 -153 -31z" />
    <glyph glyph-name="Eacute" unicode="&#xc9;" horiz-adv-x="1034" 
d="M1311 1708q-11 0 -11 9q0 5 8 14q12 9 26 29q26 37 26 63q0 8 -3 15q-4 10 -4 18q0 6 5 15q7 13 25 13q27 0 34 -30q1 -4 1 -9q0 -18 -13 -45t-37 -54q-32 -38 -57 -38zM476 -797q-137 0 -225 82q-95 92 -95 268q0 95 30 220t103 320q26 69 43 129q-98 -47 -242 -171
q-67 -59 -86 -91q-10 -18 -20 -18q-4 0 -8 2q-14 6 -14 19q0 60 284 248q35 23 57 34.5t40 25t30 41.5q90 205 185 402q206 428 441 754q-258 -62 -632 -237q-90 -47 -155 -107q-16 -23 -17.5 -38t-17.5 -16q-35 0 -35 33q0 38 183 142q129 72 312 139q223 81 317 102
q22 4 44 10q27 8 44 35q70 115 91 115q22 0 22 -17q0 -26 -52 -91l-13 -17q285 67 559 67q14 0 75.5 -0.5t153.5 -19.5q154 -33 210 -119q17 -27 17 -58q0 -72 -40 -72q-8 0 -18 3q-21 10 -21 29q0 7 3 16q16 30 16 50q0 8 -6 26q-14 39 -150.5 72.5t-312.5 33.5
q-167 0 -382 -42q-93 -16 -122 -31q-52 -27 -373 -597q-244 -427 -284 -564q50 28 133 55q95 32 182 32q19 -2 19 -21q0 -24 -43 -24q-12 0 -24 -2q-120 -19 -217 -56q-63 -25 -75 -35q-18 -17 -72 -178q-62 -173 -91 -331q-19 -101 -19 -183q0 -174 80 -251t183 -77
q78 0 166 44q109 56 277 214l123 127q14 17 29 17q7 0 14 -3q11 -6 11 -16q0 -17 -32 -48l-108 -108q-39 -33 -77 -69q-33 -30 -69 -61q-80 -68 -176 -107q-74 -31 -153 -31z" />
    <glyph glyph-name="Ecircumflex" unicode="&#xca;" horiz-adv-x="1034" 
d="M1433 1700q-16 0 -25 14q-4 6 -4 13q0 6 3 14q53 144 53 278q-50 -45 -103 -116.5t-96 -150.5q-9 -13 -23 -13q-10 0 -19.5 8t-10.5 21q0 14 13 27q140 127 235 285q10 15 26 15q26 0 26 -34q0 -14 -15 -89q-29 -155 -33 -247q-3 -25 -27 -25zM476 -797q-137 0 -225 82
q-95 92 -95 268q0 95 30 220t103 320q26 69 43 129q-98 -47 -242 -171q-67 -59 -86 -91q-10 -18 -20 -18q-4 0 -8 2q-14 6 -14 19q0 60 284 248q35 23 57 34.5t40 25t30 41.5q90 205 185 402q206 428 441 754q-258 -62 -632 -237q-90 -47 -155 -107q-16 -23 -17.5 -38
t-17.5 -16q-35 0 -35 33q0 38 183 142q129 72 312 139q223 81 317 102q22 4 44 10q27 8 44 35q70 115 91 115q22 0 22 -17q0 -26 -52 -91l-13 -17q285 67 559 67q14 0 75.5 -0.5t153.5 -19.5q154 -33 210 -119q17 -27 17 -58q0 -72 -40 -72q-8 0 -18 3q-21 10 -21 29
q0 7 3 16q16 30 16 50q0 8 -6 26q-14 39 -150.5 72.5t-312.5 33.5q-167 0 -382 -42q-93 -16 -122 -31q-52 -27 -373 -597q-244 -427 -284 -564q50 28 133 55q95 32 182 32q19 -2 19 -21q0 -24 -43 -24q-12 0 -24 -2q-120 -19 -217 -56q-63 -25 -75 -35q-18 -17 -72 -178
q-62 -173 -91 -331q-19 -101 -19 -183q0 -174 80 -251t183 -77q78 0 166 44q109 56 277 214l123 127q14 17 29 17q7 0 14 -3q11 -6 11 -16q0 -17 -32 -48l-108 -108q-39 -33 -77 -69q-33 -30 -69 -61q-80 -68 -176 -107q-74 -31 -153 -31z" />
    <glyph glyph-name="Edieresis" unicode="&#xcb;" horiz-adv-x="1034" 
d="M1249 1774q-19 0 -32.5 13t-13.5 32t13.5 32t32.5 13t32.5 -13t13.5 -32t-13.5 -32t-32.5 -13zM1397 1771q-19 0 -32.5 13.5t-13.5 32.5t13.5 32t32.5 13t32.5 -13t13.5 -32t-13.5 -32.5t-32.5 -13.5zM476 -797q-137 0 -225 82q-95 92 -95 268q0 95 30 220t103 320
q26 69 43 129q-98 -47 -242 -171q-67 -59 -86 -91q-10 -18 -20 -18q-4 0 -8 2q-14 6 -14 19q0 60 284 248q35 23 57 34.5t40 25t30 41.5q90 205 185 402q206 428 441 754q-258 -62 -632 -237q-90 -47 -155 -107q-16 -23 -17.5 -38t-17.5 -16q-35 0 -35 33q0 38 183 142
q129 72 312 139q223 81 317 102q22 4 44 10q27 8 44 35q70 115 91 115q22 0 22 -17q0 -26 -52 -91l-13 -17q285 67 559 67q14 0 75.5 -0.5t153.5 -19.5q154 -33 210 -119q17 -27 17 -58q0 -72 -40 -72q-8 0 -18 3q-21 10 -21 29q0 7 3 16q16 30 16 50q0 8 -6 26
q-14 39 -150.5 72.5t-312.5 33.5q-167 0 -382 -42q-93 -16 -122 -31q-52 -27 -373 -597q-244 -427 -284 -564q50 28 133 55q95 32 182 32q19 -2 19 -21q0 -24 -43 -24q-12 0 -24 -2q-120 -19 -217 -56q-63 -25 -75 -35q-18 -17 -72 -178q-62 -173 -91 -331
q-19 -101 -19 -183q0 -174 80 -251t183 -77q78 0 166 44q109 56 277 214l123 127q14 17 29 17q7 0 14 -3q11 -6 11 -16q0 -17 -32 -48l-108 -108q-39 -33 -77 -69q-33 -30 -69 -61q-80 -68 -176 -107q-74 -31 -153 -31z" />
    <glyph glyph-name="Igrave" unicode="&#xcc;" horiz-adv-x="1391" 
d="M29 -960h-2q-27 0 -27 30l1 8q5 29 93 76q62 33 118 56q215 88 426 136q319 766 596 1308q65 154 65 248q0 54 -22 88.5t-59 49.5t-82 15q-103 -1 -259 -58l-6 -2q-17 -7 -33 -7q-29 0 -29 33q0 32 134 111q64 39 101 56q239 118 583 218q10 3 22 5q20 4 41 11
q27 10 46 38l49 72q6 7 18 18q32 28 46 28q24 0 24 -17q0 -5 -3.5 -15t-13.5 -25t-21 -29t-21 -26t-14 -17q98 23 125 25q84 19 200 32q66 7 137 7q137 0 178 -51q13 -16 13 -40q0 -17 -6 -37q-11 -30 -32 -30q-10 0 -18 6.5t-8 18.5q0 3 0.5 7.5t0.5 10.5q0 74 -166 74h-34
q-67 -1 -186 -20q-83 -14 -99 -17l-64 -13q-38 -7 -68 -20t-53 -46q-229 -282 -536 -901q-277 -560 -482 -1097q44 11 155 21q81 7 167 7q191 -1 296 -51q58 -28 58 -78q0 -22 -12 -48t-27 -26q-9 0 -15 8t-6 17q0 5 2 10q4 12 4 23q0 9 -5 22q-27 74 -328 74
q-162 0 -306 -23q-14 -34 -34 -93q-18 -43 -44 -43q-10 0 -16.5 7.5t-6.5 18.5q0 10 20 57l16 40q-162 -39 -401 -137l-157 -74l3 -5q10 -13 11 -26q-7 -8 -20 -13.5t-27 -5.5zM1303 785q195 361 386 610q-108 -25 -215.5 -65t-211.5 -88.5t-202 -98.5l-180 -113l21 8
q28 10 68 22q85 27 155 27q11 0 39 -1.5t68 -21.5q90 -46 90 -160q0 -52 -18 -119zM1925 1689q-32 0 -32 74q0 32 8 62q14 56 49 56q16 0 24 -12q7 -10 7 -19q0 -18 -20 -29q-15 -8 -21 -30q-9 -27 -9 -61q0 -7 3 -29q0 -11 -9 -12z" />
    <glyph glyph-name="Iacute" unicode="&#xcd;" horiz-adv-x="1391" 
d="M29 -960h-2q-27 0 -27 30l1 8q5 29 93 76q62 33 118 56q215 88 426 136q319 766 596 1308q65 154 65 248q0 54 -22 88.5t-59 49.5t-82 15q-103 -1 -259 -58l-6 -2q-17 -7 -33 -7q-29 0 -29 33q0 32 134 111q64 39 101 56q239 118 583 218q10 3 22 5q20 4 41 11
q27 10 46 38l49 72q6 7 18 18q32 28 46 28q24 0 24 -17q0 -5 -3.5 -15t-13.5 -25t-21 -29t-21 -26t-14 -17q98 23 125 25q84 19 200 32q66 7 137 7q137 0 178 -51q13 -16 13 -40q0 -17 -6 -37q-11 -30 -32 -30q-10 0 -18 6.5t-8 18.5q0 3 0.5 7.5t0.5 10.5q0 74 -166 74h-34
q-67 -1 -186 -20q-83 -14 -99 -17l-64 -13q-38 -7 -68 -20t-53 -46q-229 -282 -536 -901q-277 -560 -482 -1097q44 11 155 21q81 7 167 7q191 -1 296 -51q58 -28 58 -78q0 -22 -12 -48t-27 -26q-9 0 -15 8t-6 17q0 5 2 10q4 12 4 23q0 9 -5 22q-27 74 -328 74
q-162 0 -306 -23q-14 -34 -34 -93q-18 -43 -44 -43q-10 0 -16.5 7.5t-6.5 18.5q0 10 20 57l16 40q-162 -39 -401 -137l-157 -74l3 -5q10 -13 11 -26q-7 -8 -20 -13.5t-27 -5.5zM1303 785q195 361 386 610q-108 -25 -215.5 -65t-211.5 -88.5t-202 -98.5l-180 -113l21 8
q28 10 68 22q85 27 155 27q11 0 39 -1.5t68 -21.5q90 -46 90 -160q0 -52 -18 -119zM1859 1684q-11 0 -11 9q0 5 8 13q12 10 26 30q26 37 26 63q0 8 -3 15q-4 10 -4 18q0 6 4 15q7 13 26 13q26 0 34 -30q1 -5 1 -9q0 -18 -13.5 -45t-36.5 -54q-33 -38 -57 -38z" />
    <glyph glyph-name="Icircumflex" unicode="&#xce;" horiz-adv-x="1391" 
d="M29 -960h-2q-27 0 -27 30l1 8q5 29 93 76q62 33 118 56q215 88 426 136q319 766 596 1308q65 154 65 248q0 54 -22 88.5t-59 49.5t-82 15q-103 -1 -259 -58l-6 -2q-17 -7 -33 -7q-29 0 -29 33q0 32 134 111q64 39 101 56q239 118 583 218q10 3 22 5q20 4 41 11
q27 10 46 38l49 72q6 7 18 18q32 28 46 28q24 0 24 -17q0 -5 -3.5 -15t-13.5 -25t-21 -29t-21 -26t-14 -17q98 23 125 25q84 19 200 32q66 7 137 7q137 0 178 -51q13 -16 13 -40q0 -17 -6 -37q-11 -30 -32 -30q-10 0 -18 6.5t-8 18.5q0 3 0.5 7.5t0.5 10.5q0 74 -166 74h-34
q-67 -1 -186 -20q-83 -14 -99 -17l-64 -13q-38 -7 -68 -20t-53 -46q-229 -282 -536 -901q-277 -560 -482 -1097q44 11 155 21q81 7 167 7q191 -1 296 -51q58 -28 58 -78q0 -22 -12 -48t-27 -26q-9 0 -15 8t-6 17q0 5 2 10q4 12 4 23q0 9 -5 22q-27 74 -328 74
q-162 0 -306 -23q-14 -34 -34 -93q-18 -43 -44 -43q-10 0 -16.5 7.5t-6.5 18.5q0 10 20 57l16 40q-162 -39 -401 -137l-157 -74l3 -5q10 -13 11 -26q-7 -8 -20 -13.5t-27 -5.5zM1303 785q195 361 386 610q-108 -25 -215.5 -65t-211.5 -88.5t-202 -98.5l-180 -113l21 8
q28 10 68 22q85 27 155 27q11 0 39 -1.5t68 -21.5q90 -46 90 -160q0 -52 -18 -119zM1976 1635q-16 0 -26 14q-3 5 -3 13q0 6 3 14q53 144 53 278q-50 -45 -103.5 -116.5t-95.5 -151.5q-9 -12 -23 -12q-11 0 -20 8t-11 21q0 14 14 27q140 127 234 285q11 15 27 15
q26 0 26 -34q0 -14 -15 -89q-29 -156 -34 -247q-2 -25 -26 -25z" />
    <glyph glyph-name="Idieresis" unicode="&#xcf;" horiz-adv-x="1391" 
d="M29 -960h-2q-27 0 -27 30l1 8q5 29 93 76q62 33 118 56q215 88 426 136q319 766 596 1308q65 154 65 248q0 54 -22 88.5t-59 49.5t-82 15q-103 -1 -259 -58l-6 -2q-17 -7 -33 -7q-29 0 -29 33q0 32 134 111q64 39 101 56q239 118 583 218q10 3 22 5q20 4 41 11
q27 10 46 38l49 72q6 7 18 18q32 28 46 28q24 0 24 -17q0 -5 -3.5 -15t-13.5 -25t-21 -29t-21 -26t-14 -17q98 23 125 25q84 19 200 32q66 7 137 7q137 0 178 -51q13 -16 13 -40q0 -17 -6 -37q-11 -30 -32 -30q-10 0 -18 6.5t-8 18.5q0 3 0.5 7.5t0.5 10.5q0 74 -166 74h-34
q-67 -1 -186 -20q-83 -14 -99 -17l-64 -13q-38 -7 -68 -20t-53 -46q-229 -282 -536 -901q-277 -560 -482 -1097q44 11 155 21q81 7 167 7q191 -1 296 -51q58 -28 58 -78q0 -22 -12 -48t-27 -26q-9 0 -15 8t-6 17q0 5 2 10q4 12 4 23q0 9 -5 22q-27 74 -328 74
q-162 0 -306 -23q-14 -34 -34 -93q-18 -43 -44 -43q-10 0 -16.5 7.5t-6.5 18.5q0 10 20 57l16 40q-162 -39 -401 -137l-157 -74l3 -5q10 -13 11 -26q-7 -8 -20 -13.5t-27 -5.5zM1303 785q195 361 386 610q-108 -25 -215.5 -65t-211.5 -88.5t-202 -98.5l-180 -113l21 8
q28 10 68 22q85 27 155 27q11 0 39 -1.5t68 -21.5q90 -46 90 -160q0 -52 -18 -119zM1823 1712q-19 0 -32 13.5t-13 32.5t13 32t32 13t33 -13t14 -32t-14 -32.5t-33 -13.5zM1972 1710q-19 0 -32.5 13.5t-13.5 32.5q0 18 13.5 31.5t32.5 13.5t32.5 -13.5t13.5 -31.5
q0 -19 -13.5 -32.5t-32.5 -13.5z" />
    <glyph glyph-name="Ograve" unicode="&#xd2;" 
d="M671 -969q-61 0 -121 33q-221 119 -221 448q0 196 86 457q116 353 319 684q218 355 429 486q16 10 29 10q7 0 18 -6.5t12 -26.5q0 -18 -21 -34q-208 -127 -428 -469q-205 -318 -324 -658q-86 -248 -86 -446q0 -46 8.5 -124.5t59.5 -163t130 -133.5q50 -31 105 -31
q156 0 353 251q108 138 212 324q88 158 134 267q262 588 262 977q0 12 -0.5 82t-35.5 185q-43 141 -126 231q-116 118 -255 118q-7 0 -46 -1t-111.5 -26t-146.5 -63q-178 -90 -340.5 -232.5t-287.5 -311.5t-192 -340q-41 -108 -41 -206q0 -7 0.5 -38.5t21.5 -79.5
q30 -70 114 -104q18 -8 46 -9q19 -5 19 -25q0 -25 -28 -28q-44 4 -104 38l-9 6q-105 79 -105 216q0 57 15 118q53 222 234 464q130 174 297.5 323t343.5 239q167 86 311 86q174 0 289 -121q88 -95 133 -243q41 -137 41 -295q0 -332 -154 -752q-116 -318 -266 -567
q-164 -273 -330 -406q-129 -103 -243 -103zM1338 1589q-32 0 -32 74q0 32 8 62q14 56 48 56q16 0 25 -12q7 -10 7 -19q0 -18 -20 -29q-15 -8 -21 -30q-9 -27 -9 -61q0 -7 3 -29q0 -11 -9 -12z" />
    <glyph glyph-name="Oacute" unicode="&#xd3;" 
d="M671 -969q-61 0 -121 33q-221 119 -221 448q0 196 86 457q116 353 319 684q218 355 429 486q16 10 29 10q7 0 18 -6.5t12 -26.5q0 -18 -21 -34q-208 -127 -428 -469q-205 -318 -324 -658q-86 -248 -86 -446q0 -46 8.5 -124.5t59.5 -163t130 -133.5q50 -31 105 -31
q156 0 353 251q108 138 212 324q88 158 134 267q262 588 262 977q0 12 -0.5 82t-35.5 185q-43 141 -126 231q-116 118 -255 118q-7 0 -46 -1t-111.5 -26t-146.5 -63q-178 -90 -340.5 -232.5t-287.5 -311.5t-192 -340q-41 -108 -41 -206q0 -7 0.5 -38.5t21.5 -79.5
q30 -70 114 -104q18 -8 46 -9q19 -5 19 -25q0 -25 -28 -28q-44 4 -104 38l-9 6q-105 79 -105 216q0 57 15 118q53 222 234 464q130 174 297.5 323t343.5 239q167 86 311 86q174 0 289 -121q88 -95 133 -243q41 -137 41 -295q0 -332 -154 -752q-116 -318 -266 -567
q-164 -273 -330 -406q-129 -103 -243 -103zM1295 1584q-10 0 -10 9q0 5 8 13q12 10 25 30q26 37 26 63q0 8 -2 15q-4 10 -4 18q0 6 4 15q7 13 26 13q26 0 34 -30v-9q0 -18 -13 -45t-36 -54q-33 -38 -58 -38z" />
    <glyph glyph-name="Ocircumflex" unicode="&#xd4;" 
d="M671 -969q-61 0 -121 33q-221 119 -221 448q0 196 86 457q116 353 319 684q218 355 429 486q16 10 29 10q7 0 18 -6.5t12 -26.5q0 -18 -21 -34q-208 -127 -428 -469q-205 -318 -324 -658q-86 -248 -86 -446q0 -46 8.5 -124.5t59.5 -163t130 -133.5q50 -31 105 -31
q156 0 353 251q108 138 212 324q88 158 134 267q262 588 262 977q0 12 -0.5 82t-35.5 185q-43 141 -126 231q-116 118 -255 118q-7 0 -46 -1t-111.5 -26t-146.5 -63q-178 -90 -340.5 -232.5t-287.5 -311.5t-192 -340q-41 -108 -41 -206q0 -7 0.5 -38.5t21.5 -79.5
q30 -70 114 -104q18 -8 46 -9q19 -5 19 -25q0 -25 -28 -28q-44 4 -104 38l-9 6q-105 79 -105 216q0 57 15 118q53 222 234 464q130 174 297.5 323t343.5 239q167 86 311 86q174 0 289 -121q88 -95 133 -243q41 -137 41 -295q0 -332 -154 -752q-116 -318 -266 -567
q-164 -273 -330 -406q-129 -103 -243 -103zM1506 1578q-16 0 -25 13q-3 6 -3 13q0 6 2 14q54 144 54 278q-51 -45 -104 -116.5t-96 -150.5q-8 -13 -22 -13q-11 0 -20.5 8t-10.5 22q0 13 13 26q140 127 235 286q10 14 26 14q27 0 27 -34q0 -14 -16 -88q-29 -156 -33 -248
q-3 -24 -27 -24z" />
    <glyph glyph-name="Otilde" unicode="&#xd5;" 
d="M671 -969q-61 0 -121 33q-221 119 -221 448q0 196 86 457q116 353 319 684q218 355 429 486q16 10 29 10q7 0 18 -6.5t12 -26.5q0 -18 -21 -34q-208 -127 -428 -469q-205 -318 -324 -658q-86 -248 -86 -446q0 -46 8.5 -124.5t59.5 -163t130 -133.5q50 -31 105 -31
q156 0 353 251q108 138 212 324q88 158 134 267q262 588 262 977q0 12 -0.5 82t-35.5 185q-43 141 -126 231q-116 118 -255 118q-7 0 -46 -1t-111.5 -26t-146.5 -63q-178 -90 -340.5 -232.5t-287.5 -311.5t-192 -340q-41 -108 -41 -206q0 -7 0.5 -38.5t21.5 -79.5
q30 -70 114 -104q18 -8 46 -9q19 -5 19 -25q0 -25 -28 -28q-44 4 -104 38l-9 6q-105 79 -105 216q0 57 15 118q53 222 234 464q130 174 297.5 323t343.5 239q167 86 311 86q174 0 289 -121q88 -95 133 -243q41 -137 41 -295q0 -332 -154 -752q-116 -318 -266 -567
q-164 -273 -330 -406q-129 -103 -243 -103zM1493 1635q-29 0 -49 34q-13 22 -27 62q-13 44 -22 46l-7 1q-17 0 -42 -79q-5 -17 -12 -37q-11 -18 -24 -18q-16 0 -22 11t-6 17q0 9 5 19q31 53 56.5 79t38.5 29t19 3q31 0 51.5 -35.5t25.5 -64.5q8 -33 13.5 -37.5t8.5 -4.5
q27 0 64 97q10 23 17.5 24.5t9.5 1.5q9 0 15 -9q3 -6 3 -13q0 -9 -5 -20q-28 -51 -53 -75t-38.5 -27.5t-19.5 -3.5z" />
    <glyph glyph-name="Odieresis" unicode="&#xd6;" 
d="M671 -969q-61 0 -121 33q-221 119 -221 448q0 196 86 457q116 353 319 684q218 355 429 486q16 10 29 10q7 0 18 -6.5t12 -26.5q0 -18 -21 -34q-208 -127 -428 -469q-205 -318 -324 -658q-86 -248 -86 -446q0 -46 8.5 -124.5t59.5 -163t130 -133.5q50 -31 105 -31
q156 0 353 251q108 138 212 324q88 158 134 267q262 588 262 977q0 12 -0.5 82t-35.5 185q-43 141 -126 231q-116 118 -255 118q-7 0 -46 -1t-111.5 -26t-146.5 -63q-178 -90 -340.5 -232.5t-287.5 -311.5t-192 -340q-41 -108 -41 -206q0 -7 0.5 -38.5t21.5 -79.5
q30 -70 114 -104q18 -8 46 -9q19 -5 19 -25q0 -25 -28 -28q-44 4 -104 38l-9 6q-105 79 -105 216q0 57 15 118q53 222 234 464q130 174 297.5 323t343.5 239q167 86 311 86q174 0 289 -121q88 -95 133 -243q41 -137 41 -295q0 -332 -154 -752q-116 -318 -266 -567
q-164 -273 -330 -406q-129 -103 -243 -103zM1332 1645q-19 0 -32 13.5t-13 32.5q0 18 13 31.5t32 13.5t32.5 -13.5t13.5 -31.5q0 -19 -13.5 -32.5t-32.5 -13.5zM1481 1643q-19 0 -33 13.5t-14 31.5q0 19 14 32.5t33 13.5t32.5 -13.5t13.5 -32.5q0 -18 -13.5 -31.5
t-32.5 -13.5z" />
    <glyph glyph-name="Oslash" unicode="&#xd8;" 
d="M376 -1075q-2 0 -10 4q-12 6 -12 24q0 10 7 24q70 119 93 159q-125 129 -125 376q0 196 86 458q115 352 319 684q218 354 429 485q16 10 29 10q30 0 30 -33q0 -18 -21 -34q-208 -128 -427 -468q-206 -320 -324 -659q-88 -248 -88 -446q0 -47 9 -125t60 -162
q18 -30 39 -56q140 244 1085 2072q-37 78 -90 136q-116 118 -255 118q-8 0 -46.5 -1t-111 -26t-146.5 -63q-178 -90 -340.5 -232.5t-287.5 -311.5t-192 -340q-41 -108 -41 -207q0 -6 0.5 -37.5t21.5 -79.5q31 -69 114 -104q18 -8 46 -9q19 -5 19 -25q0 -26 -28 -28
q-43 3 -113 44q-105 79 -105 216q0 57 15 118q53 222 234 464q130 174 297.5 323t343.5 239q167 86 312 86q246 0 372 -242q28 58 48 106q10 20 26 20q7 0 14.5 -3.5t12 -10t4.5 -13.5t-5 -18l-74 -138q64 -156 64 -361q0 -331 -154 -751q-116 -317 -266 -567
q-164 -273 -330 -406q-128 -104 -244 -104q-89 0 -183 76l-65 -132q-25 -49 -46 -49zM666 -942q156 0 353 250q108 138 212 325q87 157 134 266q262 587 262 977q0 12 -0.5 82t-35.5 185l-12 37q-754 -1408 -1077 -2046q82 -76 164 -76z" />
    <glyph glyph-name="Ugrave" unicode="&#xd9;" horiz-adv-x="1800" 
d="M1212 -962q-20 0 -27 18q-15 30 -15 78q0 83 40 218q93 318 358 851q181 364 458 837q-101 -148 -219 -318q-276 -399 -500 -694q-279 -367 -482 -574q-218 -223 -332 -223q-53 0 -88 36q-52 53 -52 186q0 218 179 611q271 607 391 942q103 285 103 395q0 57 -34 58
q-31 0 -65 -12q-117 -41 -279 -195q-225 -213 -413 -481q-85 -121 -126 -208q-24 -49 -43 -111q-22 -75 -22 -147q0 -128 86 -191q38 -26 103 -36q16 -6 16 -26q0 -28 -30 -28q-132 24 -187 126q-32 59 -32 144q0 289 405 748q235 266 442 398q87 56 145 56q46 0 73 -42
q8 -15 8 -46q0 -90 -74 -315q-119 -361 -418 -1043l-11 -25q-90 -202 -135 -341q-49 -152 -49 -256q0 -97 37 -141q25 -29 67 -29q195 0 786 783q222 294 491 683q236 340 332 489q115 178 191 280q13 15 27 15q13 0 20 -12q2 -4 2 -10q0 -9 -6 -21q-417 -672 -665 -1135
q-82 -152 -185 -387q-123 -280 -193 -508q-55 -178 -55 -275q0 -46 13 -74q3 -9 3 -16q0 -22 -23 -29q-8 -3 -16 -3zM1633 1495q-32 0 -32 75q0 31 8 61q14 56 49 56q16 0 24 -12q7 -9 7 -18q0 -18 -20 -30q-15 -8 -21 -29q-9 -28 -9 -61q0 -7 3 -30q0 -11 -9 -12z" />
    <glyph glyph-name="Uacute" unicode="&#xda;" horiz-adv-x="1800" 
d="M1212 -962q-20 0 -27 18q-15 30 -15 78q0 83 40 218q93 318 358 851q181 364 458 837q-101 -148 -219 -318q-276 -399 -500 -694q-279 -367 -482 -574q-218 -223 -332 -223q-53 0 -88 36q-52 53 -52 186q0 218 179 611q271 607 391 942q103 285 103 395q0 57 -34 58
q-31 0 -65 -12q-117 -41 -279 -195q-225 -213 -413 -481q-85 -121 -126 -208q-24 -49 -43 -111q-22 -75 -22 -147q0 -128 86 -191q38 -26 103 -36q16 -6 16 -26q0 -28 -30 -28q-132 24 -187 126q-32 59 -32 144q0 289 405 748q235 266 442 398q87 56 145 56q46 0 73 -42
q8 -15 8 -46q0 -90 -74 -315q-119 -361 -418 -1043l-11 -25q-90 -202 -135 -341q-49 -152 -49 -256q0 -97 37 -141q25 -29 67 -29q195 0 786 783q222 294 491 683q236 340 332 489q115 178 191 280q13 15 27 15q13 0 20 -12q2 -4 2 -10q0 -9 -6 -21q-417 -672 -665 -1135
q-82 -152 -185 -387q-123 -280 -193 -508q-55 -178 -55 -275q0 -46 13 -74q3 -9 3 -16q0 -22 -23 -29q-8 -3 -16 -3zM1579 1524q-11 0 -11 9q0 5 8 13q12 10 26 30q26 37 26 63q0 8 -3 15q-4 10 -4 18q0 6 4 15q7 13 26 13q26 0 34 -30q1 -5 1 -9q0 -18 -13.5 -45t-36.5 -54
q-33 -38 -57 -38z" />
    <glyph glyph-name="Ucircumflex" unicode="&#xdb;" horiz-adv-x="1800" 
d="M1212 -962q-20 0 -27 18q-15 30 -15 78q0 83 40 218q93 318 358 851q181 364 458 837q-101 -148 -219 -318q-276 -399 -500 -694q-279 -367 -482 -574q-218 -223 -332 -223q-53 0 -88 36q-52 53 -52 186q0 218 179 611q271 607 391 942q103 285 103 395q0 57 -34 58
q-31 0 -65 -12q-117 -41 -279 -195q-225 -213 -413 -481q-85 -121 -126 -208q-24 -49 -43 -111q-22 -75 -22 -147q0 -128 86 -191q38 -26 103 -36q16 -6 16 -26q0 -28 -30 -28q-132 24 -187 126q-32 59 -32 144q0 289 405 748q235 266 442 398q87 56 145 56q46 0 73 -42
q8 -15 8 -46q0 -90 -74 -315q-119 -361 -418 -1043l-11 -25q-90 -202 -135 -341q-49 -152 -49 -256q0 -97 37 -141q25 -29 67 -29q195 0 786 783q222 294 491 683q236 340 332 489q115 178 191 280q13 15 27 15q13 0 20 -12q2 -4 2 -10q0 -9 -6 -21q-417 -672 -665 -1135
q-82 -152 -185 -387q-123 -280 -193 -508q-55 -178 -55 -275q0 -46 13 -74q3 -9 3 -16q0 -22 -23 -29q-8 -3 -16 -3zM1752 1461q-16 0 -26 13q-3 6 -3 13t3 15q53 143 53 277q-50 -45 -103.5 -116.5t-95.5 -150.5q-9 -13 -23 -13q-11 0 -20 8t-11 22q0 13 14 26
q140 127 234 286q11 14 27 14q26 0 26 -33q0 -15 -15 -89q-29 -156 -34 -247q-2 -25 -26 -25z" />
    <glyph glyph-name="Udieresis" unicode="&#xdc;" horiz-adv-x="1800" 
d="M1212 -962q-20 0 -27 18q-15 30 -15 78q0 83 40 218q93 318 358 851q181 364 458 837q-101 -148 -219 -318q-276 -399 -500 -694q-279 -367 -482 -574q-218 -223 -332 -223q-53 0 -88 36q-52 53 -52 186q0 218 179 611q271 607 391 942q103 285 103 395q0 57 -34 58
q-31 0 -65 -12q-117 -41 -279 -195q-225 -213 -413 -481q-85 -121 -126 -208q-24 -49 -43 -111q-22 -75 -22 -147q0 -128 86 -191q38 -26 103 -36q16 -6 16 -26q0 -28 -30 -28q-132 24 -187 126q-32 59 -32 144q0 289 405 748q235 266 442 398q87 56 145 56q46 0 73 -42
q8 -15 8 -46q0 -90 -74 -315q-119 -361 -418 -1043l-11 -25q-90 -202 -135 -341q-49 -152 -49 -256q0 -97 37 -141q25 -29 67 -29q195 0 786 783q222 294 491 683q236 340 332 489q115 178 191 280q13 15 27 15q13 0 20 -12q2 -4 2 -10q0 -9 -6 -21q-417 -672 -665 -1135
q-82 -152 -185 -387q-123 -280 -193 -508q-55 -178 -55 -275q0 -46 13 -74q3 -9 3 -16q0 -22 -23 -29q-8 -3 -16 -3zM1563 1416q-19 0 -32.5 13t-13.5 32t13.5 32t32.5 13t32.5 -13t13.5 -32t-13.5 -32t-32.5 -13zM1711 1413q-19 0 -32.5 13.5t-13.5 32.5t13.5 32t32.5 13
t32.5 -13t13.5 -32t-13.5 -32.5t-32.5 -13.5z" />
    <glyph glyph-name="Ydieresis" unicode="&#x178;" horiz-adv-x="1662" 
d="M667 -913q10 0 36 5t77 43t103 104q135 175 272 463q125 262 149 356q-191 -123 -326.5 -251t-218.5 -246t-116 -210q-41 -115 -41 -180q0 -84 65 -84zM667 -945q-3 0 -30 1.5t-56 40.5q-27 36 -27 101q0 5 1.5 44.5t44.5 141.5q87 194 321 412q191 178 398 317
q113 251 222 512q186 437 294 667l-270 -390q-181 -259 -301 -412q-158 -201 -275 -304q-135 -119 -227 -119q-86 0 -86 134q0 198 179 653q170 436 170 571q0 7 -1 34t-33 28q-126 -3 -344 -208q-222 -210 -412 -481q-85 -120 -128 -208q-63 -136 -63 -258q0 -127 85 -190
q37 -27 103 -37q17 -5 17 -23q0 -30 -30 -30q-131 22 -187 126q-32 59 -32 141q0 125 75 286q96 199 329 464t442 399q89 56 146 56q46 0 71 -42q9 -16 9 -48q0 -30 -12 -98q-28 -143 -165 -503q-178 -467 -178 -640q0 -90 50 -90h8q116 17 306 223q161 175 362 458
q119 167 326 478q113 171 172 251q5 7 9 13q16 27 36 27q16 0 24 -15q4 -7 4 -16q0 -13 -7 -30q-25 -55 -186 -394q-298 -625 -445 -958q15 7 67.5 37t108 62.5t77.5 46.5q19 11 30 11q18 0 18 -14q0 -2 -1 -9.5t-21 -18.5l-293 -177q-31 -54 -104 -217q-123 -276 -223 -453
q-136 -243 -260 -317q-60 -36 -108 -36zM1443 1464q-19 0 -32.5 13t-13.5 32t13.5 32t32.5 13t32.5 -13t13.5 -32t-13.5 -32t-32.5 -13zM1591 1461q-19 0 -32.5 13.5t-13.5 32.5t13.5 32t32.5 13t32.5 -13t13.5 -32t-13.5 -32.5t-32.5 -13.5z" />
    <glyph glyph-name="Yacute" unicode="&#xdd;" horiz-adv-x="1662" 
d="M667 -913q10 0 36 5t77 43t103 104q135 175 272 463q125 262 149 356q-191 -123 -326.5 -251t-218.5 -246t-116 -210q-41 -115 -41 -180q0 -84 65 -84zM667 -945q-3 0 -30 1.5t-56 40.5q-27 36 -27 101q0 5 1.5 44.5t44.5 141.5q87 194 321 412q191 178 398 317
q113 251 222 512q186 437 294 667l-270 -390q-181 -259 -301 -412q-158 -201 -275 -304q-135 -119 -227 -119q-86 0 -86 134q0 198 179 653q170 436 170 571q0 7 -1 34t-33 28q-126 -3 -344 -208q-222 -210 -412 -481q-85 -120 -128 -208q-63 -136 -63 -258q0 -127 85 -190
q37 -27 103 -37q17 -5 17 -23q0 -30 -30 -30q-131 22 -187 126q-32 59 -32 141q0 125 75 286q96 199 329 464t442 399q89 56 146 56q46 0 71 -42q9 -16 9 -48q0 -30 -12 -98q-28 -143 -165 -503q-178 -467 -178 -640q0 -90 50 -90h8q116 17 306 223q161 175 362 458
q119 167 326 478q113 171 172 251q5 7 9 13q16 27 36 27q16 0 24 -15q4 -7 4 -16q0 -13 -7 -30q-25 -55 -186 -394q-298 -625 -445 -958q15 7 67.5 37t108 62.5t77.5 46.5q19 11 30 11q18 0 18 -14q0 -2 -1 -9.5t-21 -18.5l-293 -177q-31 -54 -104 -217q-123 -276 -223 -453
q-136 -243 -260 -317q-60 -36 -108 -36zM1449 1502q-11 0 -11 8q0 6 8 14q12 10 26 29q26 38 26 63q0 8 -3 15q-4 10 -4 18q0 7 5 15q7 14 25 14q27 0 34 -31q1 -4 1 -9q0 -17 -13 -44.5t-37 -53.5q-32 -38 -57 -38z" />
    <glyph glyph-name="Zcaron" unicode="&#x17d;" horiz-adv-x="1260" 
d="M28 -888q-2 0 -11 1t-15 17q-2 4 -2 9q0 12 10 27q77 109 436 560q214 267 434 547q504 645 793 1088q12 17 25 43q23 46 23 76q0 14 -7 30q-9 21 -72 21q-82 0 -219.5 -35t-310.5 -109q-235 -100 -450 -251q-161 -112 -219 -212q-22 -42 -22 -91q0 -3 0.5 -31.5
t25.5 -95.5q2 -7 2 -14q0 -12 -7 -22q-13 -14 -30 -14q-1 0 -11.5 0.5t-25.5 26.5q-24 47 -24 98q0 79 55 166q72 110 224 213q209 141 468 248q177 74 332 116q152 42 246 42t94 -70q0 -11 -4 -32q-9 -46 -63 -129q-308 -473 -948 -1306l-606 -783q116 47 278 85
q149 35 301 52q93 11 173 11q258 0 401 -137q13 -18 13 -32q0 -19 -11.5 -29t-25.5 -10q-1 0 -9 1t-22 16q-53 65 -111 102.5t-134 52.5q-61 12 -136 12q-129 0 -286 -30q-251 -46 -410 -129q-72 -38 -112 -84q-16 -15 -30 -15zM1167 1583q-26 0 -26 42q0 21 2 73
q3 59 3 111q0 79 -6 141v5q0 25 27 25q12 0 22 -10q5 -6 6 -16l-1 -10q-20 -93 -20 -185q0 -44 8 -98q44 52 86 130.5t72 162.5q6 17 24 17q8 0 19.5 -7t11.5 -22q0 -11 -9 -23q-117 -145 -189 -318q-9 -18 -30 -18z" />
    <glyph glyph-name="Scaron" unicode="&#x160;" horiz-adv-x="1351" 
d="M239 -953h-13q-147 0 -207 133q-19 43 -19 97q0 42 16 58t35 16q26 0 26 -30v-6q-3 -13 -3 -47q0 -6 0.5 -24t15.5 -51q35 -68 98 -87q33 -10 71 -10q100 0 245 70q169 83 349 224q162 128 228 208q101 120 101 227q0 9 -3 43q-12 118 -262 189q-60 17 -156 41
q-81 20 -164 45q-190 56 -288 125q-115 81 -115 219q0 5 1.5 44.5t30.5 117t76 153.5q87 138 213 268q95 97 226 198q170 130 332 203q144 64 256 64q45 0 86 -9q130 -35 130 -168q0 -43 -14 -93q-32 -115 -181 -333q-91 -134 -193 -259q-177 -219 -224 -219q-14 0 -22 8.5
t-8 19.5q0 4 2 14t23 28q125 102 269.5 279.5t265.5 383.5q52 92 52 159q0 64 -35 102q-50 54 -155 54q-139 0 -314.5 -97.5t-352.5 -258.5q-94 -86 -195 -205q-129 -151 -192 -291q-41 -92 -41 -167q0 -58 27 -108q51 -87 198 -145q109 -42 301 -87q52 -11 159 -41
q155 -42 232 -97q87 -64 87 -157q0 -120 -137 -278q-69 -81 -211 -196q-163 -132 -321 -218q-192 -104 -326 -109zM1271 1630q-26 0 -26 42q0 22 2 73q3 59 3 112q0 78 -6 141v4q0 26 27 26q12 0 22 -10q5 -7 6 -17l-1 -10q-20 -93 -20 -185q0 -44 8 -98q44 52 86 131
t72 163q6 17 24 17q8 0 19.5 -7.5t11.5 -22.5q0 -11 -9 -23q-117 -144 -189 -318q-9 -18 -30 -18z" />
    <glyph glyph-name="agrave" unicode="&#xe0;" horiz-adv-x="507" 
d="M-11 87q36 0 199 210q36 48 36 72q0 27 -32 27q-35 0 -72 -27q-45 -32 -79 -84t-52 -102q-16 -41 -16 -68q0 -28 16 -28zM274 21q-24 0 -46 15q-49 36 -49 107q0 35 11 74l-38 -50q-17 -29 -79 -91q-60 -52 -104 -53q-13 0 -32 9q-32 16 -32 67q0 102 124 231
q32 34 74 62q56 36 107 36q33 0 63 -20q17 45 50 45q19 0 19 -15q0 -5 -4 -13q-31 -34 -72 -141q-38 -100 -38 -164q0 -10 2.5 -33t29.5 -32q7 -2 15 -2q43 0 105 64q64 68 108 149q20 34 35 34q5 0 10 -5t5 -14q0 -14 -15 -36q-159 -224 -249 -224zM208 496q-23 0 -46 56
q-18 41 -18 78t24 46q6 3 13 3t15 -5t10.5 -11.5t2.5 -12.5q0 -11 -8 -22t-8 -27q0 -40 28 -89l1 -6q0 -10 -14 -10z" />
    <glyph glyph-name="aacute" unicode="&#xe1;" horiz-adv-x="507" 
d="M-11 87q7 0 18 6q42 24 181 204q36 48 36 72q0 27 -32 27q-35 0 -72 -27q-45 -32 -79 -84t-52 -102q-16 -41 -16 -68q0 -28 16 -28zM274 21q-24 0 -46 15q-49 36 -49 107q0 35 11 74l-38 -50q-17 -29 -79 -91q-60 -52 -104 -53q-13 0 -32 9.5t-28 37.5q-4 13 -4 29
q0 102 124 231q32 34 74 62q56 36 107 36q33 0 63 -20q17 45 50 45q19 0 19 -15q0 -5 -4 -13q-31 -34 -72 -141q-38 -100 -38 -164q0 -10 2.5 -33t29.5 -32q7 -2 15 -2q43 0 105 64q64 68 108 149q20 34 35 34q5 0 10 -5t5 -14q0 -14 -15 -36q-77 -108 -138.5 -166
t-110.5 -58zM182 536q-11 0 -11 8q0 5 8 13q12 9 25 28q25 36 25 60q0 8 -3 15q-4 9 -4 17q0 6 4 14q7 13 25 13q25 0 32 -29q1 -4 1 -9q0 -16 -12.5 -42t-34.5 -52q-32 -36 -55 -36z" />
    <glyph glyph-name="acircumflex" unicode="&#xe2;" horiz-adv-x="507" 
d="M-11 87q7 0 18 6q42 24 181 204q36 48 36 72q0 27 -32 27q-35 0 -72 -27q-45 -32 -79 -84t-52 -102q-16 -41 -16 -68q0 -28 16 -28zM274 21q-24 0 -46 15q-49 36 -49 107q0 35 11 74l-38 -50q-17 -29 -79 -91q-60 -52 -104 -53q-13 0 -32 9.5t-28 37.5q-4 13 -4 29
q0 102 124 231q32 34 74 62q56 36 107 36q33 0 63 -20q17 45 50 45q19 0 19 -15q0 -5 -4 -13q-31 -34 -72 -141q-38 -100 -38 -164q0 -10 2.5 -33t29.5 -32q7 -2 15 -2q43 0 105 64q64 68 108 149q20 34 35 34q5 0 10 -5t5 -14q0 -14 -15 -36q-77 -108 -138.5 -166
t-110.5 -58zM343 565q-16 0 -25 13q-3 5 -3 12q0 6 3 14q27 89 27 217q-54 -53 -90 -92t-77 -115q-8 -12 -21 -12q-11 0 -19.5 7.5t-10.5 20.5q0 13 13 25q98 76 200 225q10 14 25 14q26 0 26 -32q0 -14 -8 -92q-11 -94 -15 -181q-2 -24 -25 -24z" />
    <glyph glyph-name="atilde" unicode="&#xe3;" horiz-adv-x="507" 
d="M-11 87q7 0 18 6q42 24 181 204q36 48 36 72q0 27 -32 27q-35 0 -72 -27q-45 -32 -79 -84t-52 -102q-16 -41 -16 -68q0 -28 16 -28zM274 21q-24 0 -46 15q-49 36 -49 107q0 35 11 74l-38 -50q-17 -29 -79 -91q-60 -52 -104 -53q-13 0 -32 9.5t-28 37.5q-4 13 -4 29
q0 102 124 231q32 34 74 62q56 36 107 36q33 0 63 -20q17 45 50 45q19 0 19 -15q0 -5 -4 -13q-31 -34 -72 -141q-38 -100 -38 -164q0 -10 2.5 -33t29.5 -32q7 -2 15 -2q43 0 105 64q64 68 108 149q20 34 35 34q5 0 10 -5t5 -14q0 -14 -15 -36q-77 -108 -138.5 -166
t-110.5 -58zM306 546q-28 0 -47 32q-12 21 -26 60q-13 42 -21 44l-6 1q-16 0 -40 -76q-6 -16 -13 -35q-9 -17 -22 -17q-16 0 -21.5 10.5t-5.5 16.5q0 8 5 18q30 50 54 75t37 28t18 3q30 0 49.5 -34t23.5 -61q8 -33 13.5 -37t8.5 -4q25 0 61 93q9 22 16 23t9 1q9 0 15 -8
q3 -6 3 -12q0 -9 -5 -20q-27 -48 -50.5 -71.5t-36.5 -26.5t-19 -3z" />
    <glyph glyph-name="adieresis" unicode="&#xe4;" horiz-adv-x="507" 
d="M-11 87q7 0 18 6q42 24 181 204q36 48 36 72q0 27 -32 27q-35 0 -72 -27q-45 -32 -79 -84t-52 -102q-16 -41 -16 -68q0 -28 16 -28zM274 21q-24 0 -46 15q-49 36 -49 107q0 35 11 74l-38 -50q-17 -29 -79 -91q-60 -52 -104 -53q-13 0 -32 9.5t-28 37.5q-4 13 -4 29
q0 102 124 231q32 34 74 62q56 36 107 36q33 0 63 -20q17 45 50 45q19 0 19 -15q0 -5 -4 -13q-31 -34 -72 -141q-38 -100 -38 -164q0 -10 2.5 -33t29.5 -32q7 -2 15 -2q43 0 105 64q64 68 108 149q20 34 35 34q5 0 10 -5t5 -14q0 -14 -15 -36q-77 -108 -138.5 -166
t-110.5 -58zM166 556q-19 0 -31.5 12.5t-12.5 30.5t12.5 30.5t31.5 12.5q18 0 31 -12.5t13 -30.5t-13 -30.5t-31 -12.5zM307 554q-18 0 -31 12.5t-13 30.5t13 31t31 13q19 0 32 -13t13 -31t-13 -30.5t-32 -12.5z" />
    <glyph glyph-name="aring" unicode="&#xe5;" horiz-adv-x="507" 
d="M-11 87q7 0 18 6q42 24 181 204q36 48 36 72q0 27 -32 27q-35 0 -72 -27q-45 -32 -79 -84t-52 -102q-16 -41 -16 -68q0 -28 16 -28zM274 21q-24 0 -46 15q-49 36 -49 107q0 35 11 74l-38 -50q-17 -29 -79 -91q-60 -52 -104 -53q-13 0 -32 9.5t-28 37.5q-4 13 -4 29
q0 102 124 231q32 34 74 62q56 36 107 36q33 0 63 -20q17 45 50 45q19 0 19 -15q0 -5 -4 -13q-31 -34 -72 -141q-38 -100 -38 -164q0 -10 2.5 -33t29.5 -32q7 -2 15 -2q43 0 105 64q64 68 108 149q20 34 35 34q5 0 10 -5t5 -14q0 -14 -15 -36q-77 -108 -138.5 -166
t-110.5 -58zM205 532q-24 0 -38.5 17t-15.5 35t-1 24q0 59 39 117q20 29 45 46.5t49 17.5q23 0 36 -14t15.5 -30.5t2.5 -28.5q0 -39 -19 -83q-25 -59 -68 -87q-21 -14 -45 -14zM224 562q42 2 74 66q21 44 21 82q0 48 -38 53q-22 0 -50 -55q-6 -10 -14 -10l-4 1q-6 0 -8 -2
q-20 -46 -20 -82q0 -17 6.5 -34t32.5 -19z" />
    <glyph glyph-name="ae" unicode="&#xe6;" horiz-adv-x="744" 
d="M-11 87q7 0 18 6q42 24 181 204q36 48 36 72q0 27 -32 27q-35 0 -72 -27q-45 -32 -79 -84t-52 -102q-16 -41 -16 -68q0 -28 16 -28zM473 238q6 0 26.5 2.5t51 24t48 50t17.5 45.5q0 7 -3 12q-7 16 -30 16q-4 0 -20.5 -1.5t-50.5 -25.5q-58 -44 -91 -104q25 -19 52 -19z
M349 49q-41 -28 -75 -28q-24 0 -46 15q-49 36 -49 107q0 35 11 74l-38 -50q-17 -29 -79 -91q-60 -52 -104 -53q-13 0 -32 9.5t-28 37.5q-4 13 -4 29q0 102 124 231q32 34 74 62q56 36 107 36q33 0 63 -20q17 45 50 45q19 0 19 -15q0 -5 -4 -13q-31 -34 -72 -141
q-38 -100 -38 -164q0 -10 2.5 -33t29.5 -32q7 -2 15 -2q25 0 54 20q-13 23 -13 57q0 41 26 94q31 61 67 97q90 90 160 90q12 0 35 -5.5t34 -34.5q4 -9 4 -19q0 -23 -18 -53q-30 -45 -87 -74q-49 -25 -97 -25q-21 0 -42 6q-15 -51 -15 -85q0 -21 8 -42q12 -30 65 -30
q68 0 148 76q67 63 130 154q14 21 28 21q12 0 12 -14q0 -11 -15 -27q-10 -11 -20 -24q-81 -97 -146 -149q-80 -65 -155 -65q-57 0 -89 28z" />
    <glyph glyph-name="oe" unicode="&#x153;" horiz-adv-x="664" 
d="M40 54q29 0 77 68q46 65 62 123q-35 17 -63 45.5t-36 40.5q-31 -36 -58 -116q-20 -59 -20 -100q0 -61 38 -61zM399 238q6 0 26.5 2.5t51 24t48 50t17.5 45.5q0 7 -3 12q-7 16 -30 16q-4 0 -20.5 -1.5t-50.5 -25.5q-58 -44 -91 -104q25 -19 52 -19zM189 276q8 27 8 51
q0 57 -44 57q-35 0 -35 -18q0 -15 15 -37q30 -43 56 -53zM265 219q-24 4 -49 14q-14 -53 -65 -130q-57 -83 -129 -83q-78 0 -93 86q-1 9 -1 19q0 106 139 255q32 34 71 34q50 0 74 -42q17 -32 17 -73q0 -20 -5 -39q23 -16 54 -18q27 49 57 79q90 90 160 90q12 0 35 -5.5
t34 -34.5q4 -9 4 -19q0 -23 -18 -53q-30 -45 -87 -74q-49 -25 -97 -25q-21 0 -42 6q-15 -51 -15 -85q0 -21 8 -42q12 -30 65 -30q68 0 148 76q67 63 130 154q14 21 28 21q12 0 12 -14q0 -11 -15 -27q-10 -11 -20 -24q-81 -97 -146 -149q-80 -65 -155 -65q-61 0 -94 33
q-28 27 -28 76q0 39 23 89z" />
    <glyph glyph-name="ccedilla" unicode="&#xe7;" horiz-adv-x="365" 
d="M-109 -264q-57 4 -83 34q-12 15 -12 33q0 35 25 35q20 0 20 -17q0 -2 -3 -7t-3 -23q0 -32 38 -32q47 0 88 47q46 53 46 97q0 29 -29 29q-6 0 -13 -2q-19 0 -19 13q0 4 49 87q-21 8 -37 24q-29 28 -29 74q0 41 27 96q31 61 67 97q91 91 166 91q22 0 40 -13q24 -18 24 -50
q0 -15 -8 -34q-6 -14 -17 -16q-11 0 -11 12q0 4 2 9q10 21 10 39q0 30 -33 30q-30 0 -70 -28q-48 -36 -78 -84q-52 -81 -52 -158q0 -71 71 -71q121 0 281 231q14 21 28 21q11 0 11 -14q0 -11 -14 -27q-10 -11 -20 -24q-81 -97 -146 -149q-80 -65 -156 -65h-11
q-18 -16 -58 -73q19 0 31 -4q17 -9 26 -25t9 -28q0 -54 -51 -106q-48 -49 -106 -49z" />
    <glyph glyph-name="egrave" unicode="&#xe8;" horiz-adv-x="354" 
d="M83 238q6 0 26.5 2.5t51 24t48 50t17.5 45.5q0 7 -3 12q-7 16 -30 16q-4 0 -20.5 -1.5t-50.5 -25.5q-58 -44 -91 -104q25 -19 52 -19zM48 21q-61 0 -94 33q-28 27 -28 76q0 41 26 94q31 61 67 97q90 90 160 90q12 0 35 -5.5t34 -34.5q4 -9 4 -19q0 -23 -18 -53
q-30 -45 -87 -74q-49 -25 -97 -25q-21 0 -42 6q-15 -51 -15 -85q0 -21 8 -42q12 -30 65 -30q121 0 278 230q14 21 28 21q12 0 12 -14q0 -11 -15 -27l-20 -24q-81 -97 -146 -149q-80 -65 -155 -65zM225 462q-22 0 -54 43q-18 24 -29 52q-10 23 -10 40q0 20 15 31q8 6 17 6
q3 0 11 -2.5t13.5 -9.5t5.5 -17q0 -8 -3.5 -16t-3.5 -16q0 -27 32 -71q23 -23 23 -28q0 -4 -5 -8t-12 -4z" />
    <glyph glyph-name="eacute" unicode="&#xe9;" horiz-adv-x="354" 
d="M83 238q6 0 26.5 2.5t51 24t48 50t17.5 45.5q0 7 -3 12q-7 16 -30 16q-4 0 -20.5 -1.5t-50.5 -25.5q-58 -44 -91 -104q25 -19 52 -19zM48 21q-61 0 -94 33q-28 27 -28 76q0 41 26 94q31 61 67 97q90 90 160 90q12 0 35 -5.5t34 -34.5q4 -9 4 -19q0 -23 -18 -53
q-30 -45 -87 -74q-49 -25 -97 -25q-21 0 -42 6q-15 -51 -15 -85q0 -21 8 -42q12 -30 65 -30q68 0 148 76q67 63 130 154q14 21 28 21q12 0 12 -14q0 -11 -15 -27q-10 -11 -20 -24q-81 -97 -146 -149q-80 -65 -155 -65zM191 446q-11 0 -11 8q0 5 10 13.5t23 27.5q25 36 25 60
q0 8 -3.5 16t-3.5 16q0 6 4 14q7 13 25 13q25 0 32 -29q1 -4 1 -9q0 -39 -47 -94q-32 -36 -55 -36z" />
    <glyph glyph-name="ecircumflex" unicode="&#xea;" horiz-adv-x="354" 
d="M83 238q6 0 26.5 2.5t51 24t48 50t17.5 45.5q0 7 -3 12q-7 16 -30 16q-4 0 -20.5 -1.5t-50.5 -25.5q-58 -44 -91 -104q25 -19 52 -19zM48 21q-61 0 -94 33q-28 27 -28 76q0 41 26 94q31 61 67 97q90 90 160 90q12 0 35 -5.5t34 -34.5q4 -9 4 -19q0 -23 -18 -53
q-30 -45 -87 -74q-49 -25 -97 -25q-21 0 -42 6q-15 -51 -15 -85q0 -21 8 -42q12 -30 65 -30q68 0 148 76q67 63 130 154q14 21 28 21q12 0 12 -14q0 -11 -15 -27q-10 -11 -20 -24q-81 -97 -146 -149q-80 -65 -155 -65zM301 442q-16 0 -27 11q-5 5 -6 13q5 38 5 60
q0 54 -16 126q-44 -44 -66 -91t-37 -90q-7 -10 -20 -10q-10 0 -22.5 8t-12.5 19q0 9 9 17q58 73 134 195q8 11 23 11q25 0 31 -26q2 -7 9 -82q9 -94 17 -142v-3q0 -16 -21 -16z" />
    <glyph glyph-name="edieresis" unicode="&#xeb;" horiz-adv-x="354" 
d="M83 238q6 0 26.5 2.5t51 24t48 50t17.5 45.5q0 7 -3 12q-7 16 -30 16q-4 0 -20.5 -1.5t-50.5 -25.5q-58 -44 -91 -104q25 -19 52 -19zM48 21q-61 0 -94 33q-28 27 -28 76q0 41 26 94q31 61 67 97q90 90 160 90q12 0 35 -5.5t34 -34.5q4 -9 4 -19q0 -23 -18 -53
q-30 -45 -87 -74q-49 -25 -97 -25q-21 0 -42 6q-15 -51 -15 -85q0 -21 8 -42q12 -30 65 -30q68 0 148 76q67 63 130 154q14 21 28 21q12 0 12 -14q0 -11 -15 -27q-10 -11 -20 -24q-81 -97 -146 -149q-80 -65 -155 -65zM162 473q-19 0 -31.5 12.5t-12.5 30.5t12.5 30.5
t31.5 12.5q18 0 31 -12.5t13 -30.5t-13 -30.5t-31 -12.5zM288 471q-18 0 -31 12.5t-13 30.5t13 31t31 13q19 0 32 -13t13 -31t-13 -30.5t-32 -12.5z" />
    <glyph glyph-name="igrave" unicode="&#xec;" horiz-adv-x="298" 
d="M60 22q-24 0 -47 14q-46 33 -46 108q0 109 77 250q15 26 29 26q12 0 20.5 -8t8.5 -21q0 -10 -6 -23q-27 -47 -49 -98q-38 -92 -38 -149q0 -13 4 -34.5t32 -31.5q7 -2 15 -2q43 0 104 64q57 60 109 148q19 34 34 34q6 0 11 -5t5 -13q0 -15 -16 -37q-77 -109 -138 -165.5
t-109 -56.5zM150 483q-22 0 -52 47q-32 52 -32 89q0 24 17 35q8 6 16 6q5 0 13 -3.5t12.5 -10.5t4.5 -15q0 -9 -5 -18t-5 -20q0 -37 45 -92q2 -4 2 -7q0 -11 -16 -11z" />
    <glyph glyph-name="iacute" unicode="&#xed;" horiz-adv-x="298" 
d="M60 22q-24 0 -47 14q-46 33 -46 108q0 109 77 250q15 26 29 26q12 0 20.5 -8t8.5 -21q0 -10 -6 -23q-27 -47 -49 -98q-38 -92 -38 -149q0 -13 4 -34.5t32 -31.5q7 -2 15 -2q43 0 104 64q57 60 109 148q19 34 34 34q6 0 11 -5t5 -13q0 -15 -16 -37q-77 -109 -138 -165.5
t-109 -56.5zM75 479q-11 0 -11 8q0 5 10 13.5t23 27.5q25 36 25 60q0 8 -3.5 16t-3.5 16q0 6 4 14q7 13 25 13q25 0 32 -29q1 -4 1 -9q0 -39 -47 -94q-32 -36 -55 -36z" />
    <glyph glyph-name="icircumflex" unicode="&#xee;" horiz-adv-x="298" 
d="M60 22q-24 0 -47 14q-46 33 -46 108q0 109 77 250q15 26 29 26q12 0 20.5 -8t8.5 -21q0 -10 -6 -23q-27 -47 -49 -98q-38 -92 -38 -149q0 -13 4 -34.5t32 -31.5q7 -2 15 -2q43 0 104 64q57 60 109 148q19 34 34 34q6 0 11 -5t5 -13q0 -15 -16 -37q-77 -109 -138 -165.5
t-109 -56.5zM211 475q-16 0 -27 11q-5 5 -6 13q5 38 5 60q0 54 -16 126q-44 -44 -66 -91t-37 -90q-7 -10 -20 -10q-10 0 -22.5 8t-12.5 19q0 9 9 17q58 73 134 195q8 11 23 11q25 0 31 -26q2 -7 9 -82q9 -94 17 -142v-3q0 -16 -21 -16z" />
    <glyph glyph-name="idieresis" unicode="&#xef;" horiz-adv-x="298" 
d="M60 22q-24 0 -47 14q-46 33 -46 108q0 109 77 250q15 26 29 26q12 0 20.5 -8t8.5 -21q0 -10 -6 -23q-27 -47 -49 -98q-38 -92 -38 -149q0 -13 4 -34.5t32 -31.5q7 -2 15 -2q43 0 104 64q57 60 109 148q19 34 34 34q6 0 11 -5t5 -13q0 -15 -16 -37q-77 -109 -138 -165.5
t-109 -56.5zM60 537q-16 0 -27 11t-11 27q0 15 11 26t27 11t27.5 -11t11.5 -26q0 -16 -11.5 -27t-27.5 -11zM184 535q-16 0 -27 11t-11 27q0 15 11 26.5t27 11.5t27.5 -11.5t11.5 -26.5q0 -16 -11.5 -27t-27.5 -11z" />
    <glyph glyph-name="ograve" unicode="&#xf2;" horiz-adv-x="422" 
d="M40 54q29 0 77 68q46 65 62 123q-35 17 -63 45.5t-36 40.5q-31 -36 -58 -116q-20 -59 -20 -100q0 -61 38 -61zM189 276q8 27 8 51q0 57 -44 57q-35 0 -35 -18q0 -15 15 -37q30 -43 56 -53zM22 20q-78 0 -93 86q-1 9 -1 19q0 106 139 255q32 34 71 34q50 0 74 -42
q17 -32 17 -73q0 -20 -5 -39q26 -18 63 -18q11 0 42 5t73 38q18 14 30 14q14 0 14 -12v-8q0 -6 -17 -18q-66 -45 -132 -45q-39 0 -81 17q-14 -53 -65 -130q-57 -83 -129 -83zM207 437q-22 0 -52 47q-32 52 -32 89q0 24 17 35q8 6 16 6q5 0 13 -3.5t12.5 -10.5t4.5 -15
q0 -9 -5 -18t-5 -20q0 -37 45 -92q2 -4 2 -7q0 -11 -16 -11z" />
    <glyph glyph-name="oacute" unicode="&#xf3;" horiz-adv-x="422" 
d="M40 54q29 0 77 68q46 65 62 123q-35 17 -63 45.5t-36 40.5q-31 -36 -58 -116q-20 -59 -20 -100q0 -61 38 -61zM189 276q8 27 8 51q0 57 -44 57q-35 0 -35 -18q0 -15 15 -37q30 -43 56 -53zM22 20q-78 0 -93 86q-1 9 -1 19q0 106 139 255q32 34 71 34q50 0 74 -42
q17 -32 17 -73q0 -20 -5 -39q26 -18 63 -18q11 0 42 5t73 38q18 14 30 14q14 0 14 -12v-8q0 -6 -17 -18q-66 -45 -132 -45q-39 0 -81 17q-14 -53 -65 -130q-57 -83 -129 -83zM163 452q-11 0 -11 8q0 5 10 13.5t23 27.5q25 36 25 60q0 8 -3.5 16t-3.5 16q0 6 4 14q7 13 25 13
q25 0 32 -29q1 -4 1 -9q0 -39 -47 -94q-32 -36 -55 -36z" />
    <glyph glyph-name="ocircumflex" unicode="&#xf4;" horiz-adv-x="422" 
d="M40 54q29 0 77 68q46 65 62 123q-35 17 -63 45.5t-36 40.5q-31 -36 -58 -116q-20 -59 -20 -100q0 -61 38 -61zM189 276q8 27 8 51q0 57 -44 57q-35 0 -35 -18q0 -15 15 -37q30 -43 56 -53zM22 20q-78 0 -93 86q-1 9 -1 19q0 106 139 255q32 34 71 34q50 0 74 -42
q17 -32 17 -73q0 -20 -5 -39q26 -18 63 -18q11 0 42 5t73 38q18 14 30 14q14 0 14 -12v-8q0 -6 -17 -18q-66 -45 -132 -45q-39 0 -81 17q-14 -53 -65 -130q-57 -83 -129 -83zM289 454q-16 0 -27 11q-5 5 -6 13q5 38 5 60q0 54 -16 126q-44 -44 -66 -91t-37 -90
q-7 -10 -20 -10q-10 0 -22.5 8t-12.5 19q0 9 9 17q58 73 134 195q8 11 23 11q25 0 31 -26q2 -7 9 -82q9 -94 17 -142v-3q0 -16 -21 -16z" />
    <glyph glyph-name="otilde" unicode="&#xf5;" horiz-adv-x="422" 
d="M40 54q29 0 77 68q46 65 62 123q-35 17 -63 45.5t-36 40.5q-31 -36 -58 -116q-20 -59 -20 -100q0 -61 38 -61zM189 276q8 27 8 51q0 57 -44 57q-35 0 -35 -18q0 -15 15 -37q30 -43 56 -53zM22 20q-78 0 -93 86q-1 9 -1 19q0 106 139 255q32 34 71 34q50 0 74 -42
q17 -32 17 -73q0 -20 -5 -39q26 -18 63 -18q11 0 42 5t73 38q18 14 30 14q14 0 14 -12v-8q0 -6 -17 -18q-66 -45 -132 -45q-39 0 -81 17q-14 -53 -65 -130q-57 -83 -129 -83zM258 461q-28 0 -47 32q-12 21 -26 60q-13 42 -21 44l-6 1q-16 0 -40 -76l-13 -35q-9 -17 -22 -17
q-16 0 -21.5 10.5t-5.5 16.5q0 8 5 18q30 50 54 75t37 28t18 3q30 0 49.5 -34t23.5 -61q10 -41 22 -41q25 0 61 93q9 22 16 23t9 1q9 0 15 -8q3 -6 3 -12q0 -9 -5 -20q-27 -48 -50.5 -71.5t-36.5 -26.5t-19 -3z" />
    <glyph glyph-name="odieresis" unicode="&#xf6;" horiz-adv-x="422" 
d="M40 54q29 0 77 68q46 65 62 123q-35 17 -63 45.5t-36 40.5q-31 -36 -58 -116q-20 -59 -20 -100q0 -61 38 -61zM189 276q8 27 8 51q0 57 -44 57q-35 0 -35 -18q0 -15 15 -37q30 -43 56 -53zM22 20q-78 0 -93 86q-1 9 -1 19q0 106 139 255q32 34 71 34q50 0 74 -42
q17 -32 17 -73q0 -20 -5 -39q26 -18 63 -18q11 0 42 5t73 38q18 14 30 14q14 0 14 -12v-8q0 -6 -17 -18q-66 -45 -132 -45q-39 0 -81 17q-14 -53 -65 -130q-57 -83 -129 -83zM143 496q-16 0 -27 11t-11 27q0 15 11 26t27 11t27.5 -11t11.5 -26q0 -16 -11.5 -27t-27.5 -11z
M244 494q-16 0 -27 11t-11 27q0 15 11 26.5t27 11.5t27.5 -11.5t11.5 -26.5q0 -16 -11.5 -27t-27.5 -11z" />
    <glyph glyph-name="oslash" unicode="&#xf8;" horiz-adv-x="422" 
d="M189 276q7 24 8 45l-26 -35q9 -7 18 -10zM-119 -111l-5 2q-9 5 -9 15q0 11 14 29q22 25 81 104q-34 30 -34 86q0 106 139 255q32 34 71 34q45 0 69 -34l62 100q8 12 18 12q6 0 11.5 -3.5t8 -8.5t2.5 -10q-1 -5 -6 -12q-34 -40 -83 -105q9 -25 9 -54q0 -20 -5 -39
q26 -18 63 -18q11 0 42 5t73 38q18 14 30 14q14 0 14 -12v-8q0 -6 -17 -18q-66 -45 -132 -45q-39 0 -81 17q-14 -53 -65 -130q-57 -83 -129 -83q-19 0 -34 5l-72 -106q-21 -30 -35 -30zM3 95q74 99 131 179q-36 30 -54 57q-31 -36 -58 -116q-20 -59 -20 -100q0 -11 1 -20z
M40 54q29 0 76 66.5t63 124.5q-14 7 -26 15q-61 -84 -138 -196q9 -10 25 -10zM154 303l38 56q-10 25 -39 25q-35 0 -35 -18q0 -24 36 -63z" />
    <glyph glyph-name="ugrave" unicode="&#xf9;" horiz-adv-x="524" 
d="M293 23q-24 0 -47 14q-46 33 -46 111q0 14 9 47q-100 -121 -164 -121q-49 0 -64 43q-10 30 -10 51q0 61 27 133q45 116 77 116h9q10 -1 19 -16q5 -8 5 -17t-5 -19q-32 -58 -57 -118q-17 -51 -17 -88q0 -55 27 -55q37 0 131 114q37 61 47 83q19 51 43 94q15 24 34 25
q19 0 30 -15q5 -7 5 -16q0 -11 -7 -25q-94 -168 -94 -249q0 -9 2.5 -29t30.5 -30q7 -2 15 -2q43 0 105 64q57 60 108 148q19 34 35 34q15 0 15 -18q0 -14 -16 -37q-156 -222 -247 -222zM216 495q-22 0 -52 47q-32 52 -32 89q0 24 17 35q8 6 16 6q5 0 13 -3.5t12.5 -10.5
t4.5 -15q0 -9 -5 -18t-5 -20q0 -37 45 -92q2 -4 2 -7q0 -11 -16 -11z" />
    <glyph glyph-name="uacute" unicode="&#xfa;" horiz-adv-x="524" 
d="M293 23q-24 0 -47 14q-46 33 -46 111q0 14 9 47q-100 -121 -164 -121q-49 0 -64 43q-10 30 -10 51q0 61 27 133q45 116 77 116h9q10 -1 19 -16q5 -8 5 -17t-5 -19q-32 -58 -57 -118q-17 -51 -17 -88q0 -55 27 -55q37 0 131 114q37 61 47 83q19 51 43 94q15 24 34 25
q19 0 30 -15q5 -7 5 -16q0 -11 -7 -25q-94 -168 -94 -249q0 -9 2.5 -29t30.5 -30q7 -2 15 -2q43 0 105 64q57 60 108 148q19 34 35 34q15 0 15 -18q0 -14 -16 -37q-156 -222 -247 -222zM195 491q-11 0 -11 8q0 5 10 13.5t23 27.5q25 36 25 60q0 8 -3.5 16t-3.5 16q0 6 4 14
q7 13 25 13q25 0 32 -29q1 -4 1 -9q0 -39 -47 -94q-32 -36 -55 -36z" />
    <glyph glyph-name="ucircumflex" unicode="&#xfb;" horiz-adv-x="524" 
d="M293 23q-24 0 -47 14q-46 33 -46 111q0 14 9 47q-100 -121 -164 -121q-49 0 -64 43q-10 30 -10 51q0 61 27 133q45 116 77 116h9q10 -1 19 -16q5 -8 5 -17t-5 -19q-32 -58 -57 -118q-17 -51 -17 -88q0 -55 27 -55q37 0 131 114q37 61 47 83q19 51 43 94q15 24 34 25
q19 0 30 -15q5 -7 5 -16q0 -11 -7 -25q-94 -168 -94 -249q0 -9 2.5 -29t30.5 -30q7 -2 15 -2q43 0 105 64q57 60 108 148q19 34 35 34q15 0 15 -18q0 -14 -16 -37q-156 -222 -247 -222zM305 487q-16 0 -27 11q-5 5 -6 13q5 38 5 60q0 54 -16 126q-44 -44 -66 -91t-37 -90
q-7 -10 -20 -10q-10 0 -22.5 8t-12.5 19q0 9 9 17q58 73 134 195q8 11 23 11q25 0 31 -26q2 -7 9 -82q9 -94 17 -142v-3q0 -16 -21 -16z" />
    <glyph glyph-name="udieresis" unicode="&#xfc;" horiz-adv-x="524" 
d="M293 23q-24 0 -47 14q-46 33 -46 111q0 14 9 47q-100 -121 -164 -121q-49 0 -64 43q-10 30 -10 51q0 61 27 133q45 116 77 116h9q10 -1 19 -16q5 -8 5 -17t-5 -19q-32 -58 -57 -118q-17 -51 -17 -88q0 -55 27 -55q37 0 131 114q37 61 47 83q19 51 43 94q15 24 34 25
q19 0 30 -15q5 -7 5 -16q0 -11 -7 -25q-94 -168 -94 -249q0 -9 2.5 -29t30.5 -30q7 -2 15 -2q43 0 105 64q57 60 108 148q19 34 35 34q15 0 15 -18q0 -14 -16 -37q-156 -222 -247 -222zM160 519q-16 0 -27 11t-11 27q0 15 11 26t27 11t27.5 -11t11.5 -26q0 -16 -11.5 -27
t-27.5 -11zM284 517q-16 0 -27 11t-11 27q0 15 11 26.5t27 11.5t27.5 -11.5t11.5 -26.5q0 -16 -11.5 -27t-27.5 -11z" />
    <glyph glyph-name="ydieresis" unicode="&#xff;" horiz-adv-x="491" 
d="M-344 -991q31 25 222 448q29 61 70 142h-2q-180 -251 -272 -495q-23 -65 -23 -86q1 -9 5 -9zM-357 -1045q-32 0 -36 50q0 105 128 334q106 183 275 411q18 19 138 316l23 57l38 98q-101 -160 -167 -160t-73 85q0 108 76 248q16 26 31 26q11 0 19 -8t8 -21q0 -10 -6 -23
q-33 -58 -56.5 -120t-23.5 -104q0 -13 2 -21q10 -31 28 -31q56 0 195 228q21 45 37 73.5t37 28.5q26 0 26 -22q0 -10 -19 -45q-48 -91 -118 -262l-3 -7l-75 -185q97 122 247 281q116 118 125 118q24 0 24 -22q0 -14 -27 -34q-228 -195 -425 -463q-80 -194 -154 -348
q-170 -382 -222 -447q-28 -31 -52 -31zM155 480q-16 0 -27 11t-11 27q0 15 11 26t27 11t27.5 -11t11.5 -26q0 -16 -11.5 -27t-27.5 -11zM267 480q-16 0 -27 11t-11 27q0 15 11 26.5t27 11.5t27.5 -11.5t11.5 -26.5q0 -16 -11.5 -27t-27.5 -11z" />
    <glyph glyph-name="yacute" unicode="&#xfd;" horiz-adv-x="491" 
d="M-344 -991q31 25 222 448q29 61 70 142h-2q-180 -251 -272 -495q-23 -65 -23 -86q1 -9 5 -9zM-357 -1045q-32 0 -36 50q0 105 128 334q106 183 275 411q18 19 138 316l23 57l38 98q-101 -160 -167 -160t-73 85q0 108 76 248q16 26 31 26q11 0 19 -8t8 -21q0 -10 -6 -23
q-33 -58 -56.5 -120t-23.5 -104q0 -13 2 -21q10 -31 28 -31q56 0 195 228q21 45 37 73.5t37 28.5q26 0 26 -22q0 -10 -19 -45q-48 -91 -118 -262l-3 -7l-75 -185q97 122 247 281q116 118 125 118q24 0 24 -22q0 -14 -27 -34q-228 -195 -425 -463q-80 -194 -154 -348
q-170 -382 -222 -447q-28 -31 -52 -31zM180 452q-11 0 -11 8q0 5 10 13.5t23 27.5q25 36 25 60q0 8 -3.5 16t-3.5 16q0 6 4 14q7 13 25 13q25 0 32 -29q1 -4 1 -9q0 -39 -47 -94q-32 -36 -55 -36z" />
    <glyph glyph-name="zcaron" unicode="&#x17e;" horiz-adv-x="505" 
d="M-324 -991q31 25 222 448q29 61 70 142h-2q-180 -251 -272 -495q-23 -65 -23 -86q1 -9 5 -9zM118 -58q27 73 27 110q0 35 -30 35q-8 0 -16 -2l-6 -1q-14 0 -16 23q0 27 45 53q104 82 145 138q28 41 28 72t-27 31q-49 0 -185 -122q-26 -30 -51 -30q-8 0 -21 5.5t-13 42.5
q0 63 38 63q11 0 24 -10q10 -6 16 -6q5 0 10 4q107 86 170 86q19 0 44 -14q31 -16 31 -70q0 -40 -24.5 -82.5t-60.5 -78.5t-74 -64q20 -27 20 -70q0 -12 -5 -50q-4 -33 -38 -99l-2 -5q97 122 247 281q116 118 125 118q24 0 24 -22q0 -14 -27 -34q-228 -195 -425 -463
q-80 -194 -154 -348q-170 -382 -222 -447q-28 -31 -52 -31h-7q-25 4 -29 50q0 105 128 334q106 183 275 411q14 15 88 192zM221 759q16 0 27 -11q5 -5 6 -13q-5 -38 -5 -60q0 -54 16 -126q44 44 66 91t37 90q7 10 20 10q10 0 22.5 -8t12.5 -19q0 -9 -9 -17
q-58 -73 -134 -195q-8 -11 -23 -11q-25 0 -31 26q-2 7 -9 82q-9 94 -17 142v3q0 16 21 16z" />
    <glyph glyph-name="scaron" unicode="&#x161;" horiz-adv-x="357" 
d="M-49 -131q10 0 23 4q40 15 75 57t56 89q18 41 18 70v8q-67 -48 -136 -118q-61 -62 -61 -92q0 -18 25 -18zM-73 -170q-37 4 -37 42q0 36 41.5 84t129.5 122q34 28 52 45q-17 32 -37 49t-38 29q-13 8 -23 16q-22 19 -22 50q0 15 9 35q16 38 86 87q49 33 76 33q29 0 29 -26
q0 -34 -36 -42h-4q-13 0 -20 10t-13 10t-15 -5q-41 -26 -57 -58q-10 -18 -10 -33q0 -32 64 -66q48 -28 63 -50q107 74 161 119q24 19 40 19q18 0 18 -18t-26 -30q-94 -50 -178 -115q5 -19 5 -39q0 -32 -17 -75t-59.5 -89.5t-91.5 -75t-90 -28.5zM124 759q16 0 27 -11
q5 -5 6 -13q-5 -38 -5 -60q0 -54 16 -126q44 44 66 91t37 90q7 10 20 10q10 0 22.5 -8t12.5 -19q0 -9 -9 -17q-58 -73 -134 -195q-8 -11 -23 -11q-25 0 -31 26q-2 7 -9 82q-9 94 -17 142v3q0 16 21 16z" />
    <glyph glyph-name="a.1" unicode="&#xe03a;" horiz-adv-x="2700" 
d="M2182 87q7 0 18 6q42 24 181 204q36 48 36 72q0 27 -32 27q-35 0 -72 -27q-45 -32 -79 -84t-52 -102q-16 -41 -16 -68q0 -28 16 -28zM2240 348q25 24 56 44q56 36 107 36q33 0 63 -20q17 45 50 45q19 0 19 -15q0 -5 -4 -13q-31 -34 -72 -141q-38 -100 -38 -164
q0 -10 2.5 -33t29.5 -32q7 -2 15 -2q43 0 105 64q64 68 108 149q20 34 35 34q5 0 10 -5t5 -14q0 -14 -15 -36q-77 -108 -138.5 -166t-110.5 -58q-24 0 -46 15q-49 36 -49 107q0 35 11 74l-38 -50q-17 -29 -79 -91q-60 -52 -104 -53q-13 0 -32 9.5t-28 37.5q-4 13 -4 29
q0 82 80 182q-202 -82 -702 -87q-179 0 -610 27q-98 5 -216 5q-410 0 -603 -84l-14 -1q-23 0 -32 25l-1 8q0 38 92 59q126 36 353 36q178 0 740 -36q166 -8 317 -8q564 6 738 123z" />
    <glyph glyph-name="b.1" unicode="&#xe03b;" horiz-adv-x="2695" 
d="M2245 352q146 310 352 727q50 100 95 193q24 48 57 48q5 0 10 -2q21 -8 21 -34q0 -15 -8 -32q-84 -129 -191.5 -321.5t-206.5 -398.5t-160 -374q47 73 86 126q95 128 173 129q21 0 42 -13q25 -21 25 -61q0 -32 -10 -66.5t-22 -55.5q22 11 68 31q50 21 102 45q15 6 25 6
q18 0 18 -13q0 -16 -21 -23q-49 -14 -96 -34l-109 -52q-8 -22 -32.5 -55t-56.5 -62q-49 -47 -84 -47q-16 0 -28.5 12t-12.5 25q0 6 6 18q9 21 80 70q38 25 68 51q18 25 32 61q22 53 22 92t-31 39q-3 0 -16.5 -1.5t-45.5 -30.5q-59 -58 -104.5 -132.5t-85.5 -150.5
q-23 -44 -46 -85q-27 -51 -53 -53h-5q-15 0 -21 17q-3 7 -3 16q0 18 10 47q58 131 134 293q-187 -101 -746 -107q-179 0 -610 27q-98 5 -216 5q-410 0 -603 -84l-14 -1q-23 0 -32 25l-1 8q0 38 92 59q126 36 353 36q178 0 740 -36q166 -8 317 -8q573 6 743 127z" />
    <glyph glyph-name="c.1" unicode="&#xe03c;" horiz-adv-x="2554" 
d="M2244 351q73 61 134 61q22 0 40 -13q24 -18 24 -50q0 -15 -8 -34q-6 -14 -17 -16q-11 0 -11 12q0 4 2 9q10 21 10 39q0 30 -33 30q-30 0 -70 -28q-48 -36 -78 -84q-52 -81 -52 -158q0 -20 9 -41q13 -30 62 -30q70 0 151 77q67 63 130 154q14 21 28 21q11 0 11 -14
q0 -11 -14 -27q-10 -11 -20 -24q-81 -97 -146 -149q-80 -65 -156 -65q-60 0 -93 33q-29 28 -29 74q0 41 27 96q16 32 34 57q-202 -82 -703 -87q-179 0 -610 27q-98 5 -216 5q-410 0 -603 -84l-14 -1q-23 0 -32 25l-1 8q0 38 92 59q126 36 353 36q178 0 740 -36
q166 -8 317 -8q572 6 742 126z" />
    <glyph glyph-name="d.1" unicode="&#xe03d;" horiz-adv-x="2620" 
d="M2179 82q36 0 198 210q35 47 35 72q0 27 -31 27q-33 0 -71 -26q-69 -50 -118 -157q-29 -66 -29 -100q0 -26 16 -26zM2156 19q-44 0 -57 47q-4 13 -4 29q0 83 79 181q1 3 3 5q-202 -82 -701 -87q-179 0 -610 27q-98 5 -216 5q-410 0 -603 -84l-14 -1q-29 0 -33 33
q0 38 92 59q126 36 353 36q178 0 740 -36q166 -8 317 -8q568 6 741 124q79 71 142 71q8 0 28.5 -2t49.5 -31l7 12q79 158 152 320q157 345 273 540q20 34 33 48q9 10 21 10q5 0 10 -2q21 -9 21 -35q0 -16 -8 -29q-265 -432 -442 -843q-38 -87 -68 -158.5t-30 -128.5
q0 -13 4 -34.5t32 -31.5q7 -2 15 -2q43 0 104 64q57 60 109 148q19 34 34 34q6 0 11 -5t5 -13q0 -15 -16 -37q-157 -222 -247 -222q-24 0 -47 14q-46 33 -46 108q0 46 14 97l-40 -50q-49 -67 -109 -127q-57 -45 -99 -45z" />
    <glyph glyph-name="e.1" unicode="&#xe03e;" horiz-adv-x="2547" 
d="M2276 238q6 0 26.5 2.5t51 24t48 50t17.5 45.5q0 7 -3 12q-7 16 -30 16q-4 0 -20.5 -1.5t-50.5 -25.5q-58 -44 -91 -104q25 -19 52 -19zM2244 351q71 60 128 60q12 0 35 -5.5t34 -34.5q4 -9 4 -19q0 -23 -18 -53q-30 -45 -87 -74q-49 -25 -97 -25q-21 0 -42 6
q-15 -51 -15 -85q0 -21 8 -42q12 -30 65 -30q68 0 148 76q67 63 130 154q14 21 28 21q12 0 12 -14q0 -11 -15 -27q-10 -11 -20 -24q-81 -97 -146 -149q-80 -65 -155 -65q-61 0 -94 33q-28 27 -28 76q0 41 26 94q16 32 34 57q-202 -82 -703 -87q-179 0 -610 27q-98 5 -216 5
q-410 0 -603 -84l-14 -1q-23 0 -32 25l-1 8q0 38 92 59q126 36 353 36q178 0 740 -36q166 -8 317 -8q571 6 742 126z" />
    <glyph glyph-name="f.1" unicode="&#xe03f;" horiz-adv-x="2576" 
d="M2046 -583q13 0 34 31q57 92 71 231q8 71 8 158q0 80 -7 174q-20 -44 -51 -149t-55.5 -214.5t-25.5 -165.5q3 -65 26 -65zM2246 352q40 90 89 194q136 289 233 430q20 26 31 26q30 0 30 -21q0 -13 -13 -32q-58 -94 -238 -446q-185 -363 -205 -446q157 5 307 147
q58 54 82 82q13 13 23 13q7 0 12 -6.5t5 -12.5q0 -11 -14 -26q-35 -42 -110 -95.5t-158 -95.5t-141 -46l1 -12q6 -103 6 -179q0 -283 -74 -402q-41 -61 -82 -61q-64 0 -64 110q0 96 53 277q58 197 157 440q22 53 48 113q-185 -103 -748 -109q-179 0 -610 27q-98 5 -216 5
q-410 0 -603 -84l-14 -1q-23 0 -32 25l-1 8q0 38 92 59q126 36 353 36q178 0 740 -36q166 -8 317 -8q574 6 744 127z" />
    <glyph glyph-name="g.1" unicode="&#xe040;" horiz-adv-x="2660" 
d="M2184 85q33 0 154 155q81 98 81 132q0 24 -27 24q-49 0 -100 -43q-64 -66 -99 -145q-27 -63 -27 -97q0 -26 18 -26zM1820 -991q31 25 222 448q29 61 70 142h-2q-180 -251 -272 -495q-23 -65 -23 -86q1 -9 5 -9zM2241 349q89 82 165 82q32 0 64 -21q16 45 51 45
q19 -2 19 -12q0 -14 -14 -27q-61 -78 -160 -330l-75 -185q97 122 247 281q116 118 125 118h3q21 -4 21 -22q0 -14 -27 -34q-228 -195 -425 -463q-80 -194 -154 -348q-170 -382 -222 -447q-28 -31 -52 -31h-7q-25 4 -29 50q0 105 128 334q106 183 275 411q18 19 170 408
q-16 -23 -67 -77q-63 -61 -114 -61q-45 0 -61 45q-5 12 -5 32q0 80 78 181l2 2q-202 -81 -701 -86q-179 0 -610 27q-98 5 -216 5q-410 0 -603 -84l-14 -1q-23 0 -32 25l-1 8q0 38 92 59q126 36 353 36q178 0 740 -36q166 -8 317 -8q566 6 739 124z" />
    <glyph glyph-name="h.1" unicode="&#xe041;" horiz-adv-x="2753" 
d="M2243 350q5 13 10 27q84 220 192 464t205 428q25 46 47 46q8 0 16 -5q18 -9 18 -26q0 -19 -21 -53q-144 -243 -267.5 -518t-180.5 -489q67 104 138 165q40 34 76 34q50 0 50 -63q0 -35 -15 -67q-49 -106 -49 -172q0 -11 3.5 -33.5t33.5 -32.5q7 -2 15 -2q44 0 104.5 64
t107.5 148q20 34 35 34q6 0 11 -4.5t5 -13.5q0 -14 -15 -37q-82 -111 -138 -164q-62 -58 -111 -58q-24 0 -46 14q-46 33 -46 110q0 66 33 152l11 31q6 17 6 31q0 17 -15 17q-20 0 -48 -30q-72 -79 -150 -225q-48 -91 -50 -97q-13 -25 -37 -25q-11 0 -19.5 8.5t-8.5 23.5l1 9
q21 95 82 263q-185 -104 -750 -110q-179 0 -610 27q-98 5 -216 5q-410 0 -603 -84l-14 -1q-23 0 -32 25l-1 8q0 38 92 59q126 36 353 36q178 0 740 -36q166 -8 317 -8q569 6 741 125z" />
    <glyph glyph-name="i.1" unicode="&#xe042;" horiz-adv-x="2520" 
d="M2381 563q-12 0 -21 9t-9 26q0 7 6 13t15 10t19 4q21 0 21 -27q0 -17 -9 -26t-22 -9zM2244 350q10 22 22 44q15 26 29 26q12 0 20.5 -8t8.5 -21q0 -10 -6 -23q-27 -47 -49 -98q-38 -92 -38 -149q0 -13 4 -34.5t32 -31.5q7 -2 15 -2q43 0 104 64q57 60 109 148
q19 34 34 34q6 0 11 -5t5 -13q0 -15 -16 -37q-77 -109 -138 -165.5t-109 -56.5q-24 0 -47 14q-46 33 -46 108q0 72 34 158q-187 -102 -747 -108q-179 0 -610 27q-98 5 -216 5q-410 0 -603 -84l-14 -1q-23 0 -32 25l-1 8q0 38 92 59q126 36 353 36q178 0 740 -36
q166 -8 317 -8q570 6 742 125z" />
    <glyph glyph-name="j.1" unicode="&#xe043;" horiz-adv-x="2477" 
d="M1636 -991q31 25 222 448q29 61 70 142h-2q-180 -251 -272 -495q-23 -65 -23 -86q1 -9 5 -9zM2388 568h-3q-34 0 -34 34t32 34q33 -3 33 -34t-28 -34zM2247 353q18 41 26 56q9 13 23 13q7 0 16 -3q14 -9 14 -22l-1 -6q-58 -87 -143 -305l-75 -185q97 122 247 281
q116 118 125 118q24 0 24 -22q0 -14 -27 -34q-228 -195 -425 -463q-80 -194 -154 -348q-170 -382 -222 -447q-28 -31 -52 -31h-7q-25 4 -29 50q0 105 128 334q106 183 275 411q18 19 138 316q61 151 98 237q-185 -103 -750 -109q-179 0 -610 27q-98 5 -216 5
q-410 0 -603 -84l-14 -1q-23 0 -32 25l-1 8q0 38 92 59q126 36 353 36q178 0 740 -36q166 -8 317 -8q575 6 745 128z" />
    <glyph glyph-name="k.1" unicode="&#xe044;" horiz-adv-x="2636" 
d="M2242 349q36 79 75 169q93 213 189 418.5t187 356.5q20 29 38 29q2 0 12.5 -1t18.5 -22q3 -7 3 -15q0 -15 -11 -32q-20 -29 -69.5 -116t-113 -204.5t-124.5 -238.5t-105 -218.5t-54 -145.5q34 38 75 69q64 46 91 46q9 0 16.5 -5t7.5 -16q0 -4 -3.5 -14.5t-33.5 -23.5
q-46 -21 -81 -42q-66 -41 -114 -125q-16 -30 -16 -54q0 -47 55 -47q64 0 185 75q91 56 138 93q22 15 36 15q2 0 10 -2q7 -2 7 -13v-3q0 -14 -19 -28q-31 -21 -77 -48q-114 -69 -206 -100q-61 -21 -104 -21q-39 0 -64 19q-11 -20 -30 -65t-34 -73q-13 -19 -33 -19
q-23 0 -23 24q0 11 7 28q60 119 142 301q-187 -100 -744 -106q-179 0 -610 27q-98 5 -216 5q-410 0 -603 -84l-14 -1q-23 0 -32 25l-1 8q0 38 92 59q126 36 353 36q178 0 740 -36q166 -8 317 -8q568 6 740 124z" />
    <glyph glyph-name="l.1" unicode="&#xe045;" horiz-adv-x="2529" 
d="M2244 350q61 180 209 475q78 154 210 393l44 72q19 26 40 27q21 -5 22 -21q0 -16 -10 -36q-8 -17 -33 -57q-46 -83 -106 -182.5t-123 -208.5q-144 -250 -208 -441q-44 -133 -44 -228q0 -90 54 -90q43 0 100 62.5t103 150.5q19 34 35 34q5 0 10.5 -5t5.5 -14
q0 -14 -15 -36q-74 -110 -131 -164q-60 -58 -108 -58q-24 0 -47 14q-51 36 -51 119q0 56 28 149q-183 -105 -753 -111q-179 0 -610 27q-98 5 -216 5q-410 0 -603 -84l-14 -1q-23 0 -32 25l-1 8q0 38 92 59q126 36 353 36q178 0 740 -36q166 -8 317 -8q570 6 742 125z" />
    <glyph glyph-name="m.1" unicode="&#xe046;" horiz-adv-x="2964" 
d="M2243 350q23 45 39 69q15 21 35 21q22 0 22 -21q0 -15 -18 -50q-5 -8 -9 -17t-9 -20q-14 -27 -31 -67l11 13q66 81 117 120q40 30 73 30q31 0 47 -28q9 -18 9 -46q0 -23 -6 -53l51 58q29 32 59 57q39 32 74 32q21 0 32.5 -13t11.5 -38q-1 -50 -23 -96q-52 -108 -52 -181
q0 -9 3 -31.5t33 -33.5q7 -2 15 -2q44 0 104.5 63.5t107.5 148.5q21 35 36 35q5 0 10 -5t5 -14q0 -14 -16 -36q-152 -223 -247 -223q-24 0 -47 15q-46 34 -46 108q0 25 7 64q11 62 33 106q20 48 20 66q0 11 -5 16t-11 5q-40 0 -111 -97q-73 -102 -108 -197q-5 -17 -15 -38
q-19 -42 -44 -42q-8 0 -17 4q-17 7 -17 27q0 25 30 92q67 160 67 213q0 24 -14 24q-35 0 -157 -145q-36 -46 -103 -170l-16 -31q-14 -25 -36 -25h-3q-19 5 -19 30t55 148q27 59 48 105q-188 -100 -742 -106q-179 0 -610 27q-98 5 -216 5q-410 0 -603 -84l-14 -1
q-23 0 -32 25l-1 8q0 38 92 59q126 36 353 36q178 0 740 -36q166 -8 317 -8q570 6 741 125z" />
    <glyph glyph-name="n.1" unicode="&#xe047;" horiz-adv-x="2800" 
d="M2245 352q11 23 22 47q12 27 37 27q13 0 21 -7t8 -17q0 -6 -3 -15q-17 -36 -49 -127q56 60 126.5 110.5t128.5 50.5q15 0 29 -8q13 -8 13 -32v-3q-1 -35 -31 -115q-37 -85 -37 -142q0 -15 4.5 -36t32.5 -31q7 -2 14 -2q42 0 103.5 63t109.5 149q20 35 36 35q5 0 10 -5
t5 -14q0 -15 -16 -37q-75 -106 -137 -164t-111 -58q-24 0 -46 15q-48 33 -48 112q0 78 43 172q14 32 14 49q0 21 -19 21q-9 0 -22 -4q-48 -16 -102 -66q-48 -42 -77 -78q-46 -58 -78 -143l-8 -18q-24 -59 -52 -59l-9 1q-18 5 -18 41q0 25 13 62l27 68q21 54 45 108
q-186 -102 -748 -108q-179 0 -610 27q-98 5 -216 5q-410 0 -603 -84l-14 -1q-23 0 -32 25l-1 8q0 38 92 59q126 36 353 36q178 0 740 -36q166 -8 317 -8q573 6 743 127z" />
    <glyph glyph-name="o.1" unicode="&#xe048;" horiz-adv-x="2626" 
d="M2244 54q29 0 77 68q46 65 62 123q-35 17 -63 45.5t-36 40.5q-31 -36 -58 -116q-20 -59 -20 -100q0 -61 38 -61zM2393 276q8 27 8 51q0 57 -44 57q-35 0 -35 -18q0 -15 15 -37q30 -43 56 -53zM2246 352q12 14 25 28q32 34 71 34q50 0 74 -42q17 -32 17 -73q0 -20 -5 -39
q26 -18 63 -18q11 0 42 5t73 38q18 14 30 14q14 0 14 -12v-8q0 -6 -17 -18q-66 -45 -132 -45q-39 0 -81 17q-14 -53 -65 -130q-57 -83 -129 -83q-78 0 -93 86q-1 9 -1 19q0 72 64 164q-197 -90 -720 -95q-179 0 -610 27q-98 5 -216 5q-410 0 -603 -84l-14 -1q-23 0 -32 25
l-1 8q0 38 92 59q126 36 353 36q178 0 740 -36q166 -8 317 -8q573 6 744 127z" />
    <glyph glyph-name="p.1" unicode="&#xe049;" horiz-adv-x="2679" 
d="M2243 44q34 0 70 26q50 36 89 103q-59 -21 -88 -34q-55 -26 -79 -53q-12 -14 -12 -25q0 -2 1 -9.5t19 -7.5zM2237 130q45 34 188 85q26 50 32 89t6 51q0 23 -14 23q-76 -6 -203 -236zM2324 396q-3 -11 -10 -28q-16 -43 -55 -125q49 68 109 128q56 45 102 45q37 0 54 -47
q4 -13 4 -29q0 -46 -24 -97q169 58 182 58q22 0 22 -15q0 -23 -43 -31q-110 -33 -187 -58q-55 -82 -127 -135q-63 -48 -116 -48q-28 0 -45 10h-2v1q-13 8 -28 23q-164 -322 -399 -1011q-20 -53 -52 -53q-26 0 -26 33q0 40 163 409q90 205 278 650q22 52 49 112q25 55 48 110
l2 4q-186 -102 -747 -108q-179 0 -610 27q-98 5 -216 5q-410 0 -603 -84l-14 -1q-23 0 -32 25l-1 8q0 38 92 59q126 36 353 36q178 0 740 -36q166 -8 317 -8q568 6 741 125l18 46q14 38 40 38q13 0 21 -11q4 -5 4 -14q0 -4 -2 -13z" />
    <glyph glyph-name="q.1" unicode="&#xe04a;" horiz-adv-x="2636" 
d="M2190 98q40 3 188 198q42 53 42 83q-5 23 -30 23q-79 0 -164 -131q-53 -97 -53 -152q0 -15 11 -21h6zM1921 -969q-8 0 -15 3q-16 13 -17 36q0 85 157 448q127 316 272 613h-2q-85 -98 -143 -98h-13q-41 0 -54 62v22q0 70 73 164q-202 -82 -703 -87q-179 0 -610 27
q-98 5 -216 5q-410 0 -603 -84l-14 -1q-29 0 -33 33q0 38 92 59q126 36 353 36q178 0 740 -36q166 -8 317 -8q552 6 730 118q98 92 173 92q36 0 65 -20q19 44 47 44q22 0 22 -15q0 -10 -22 -36q-115 -174 -282 -561l13 6q80 40 196.5 174t169.5 244q15 29 31 29q19 0 19 -15
l-2 -9q-243 -374 -417 -451q19 -29 19 -77q0 -148 -153 -478q-39 -79 -94 -160q-41 -53 -60 -66t-36 -13zM1929 -928l40 39q35 42 77 113q65 114 113 226q72 211 72 293q0 49 -11 67q-60 -137 -132 -301q-55 -117 -145 -377z" />
    <glyph glyph-name="r.1" unicode="&#xe04b;" horiz-adv-x="2652" 
d="M2249 369l7 15q-13 10 -13 25q0 8 6 17q12 17 32 17q12 0 23 -12q6 -7 6 -19q0 -11 -8 -26q7 -2 16 -2q47 0 110 26q8 4 15 4q16 0 25 -12q4 -6 4 -13q0 -14 -19 -46q-5 -7 -8 -14q-71 -140 -71 -215q0 -46 33 -57q8 -2 16 -2q43 0 104 64t107 147q20 34 35 34q6 0 11 -5
t5 -13q0 -15 -16 -37q-156 -222 -247 -222q-25 0 -47 14q-39 29 -42.5 62t-3.5 46q0 42 13 91q16 63 44 120q-61 0 -91 9q-13 -21 -41 -42.5t-48 -29.5q-193 -94 -730 -99q-179 0 -610 27q-98 5 -216 5q-410 0 -603 -84l-14 -1q-23 0 -32 25l-1 8q0 38 92 59q126 36 353 36
q178 0 740 -36q166 -8 317 -8q495 5 690 96q24 11 37 23t20 25z" />
    <glyph glyph-name="s.1" unicode="&#xe04c;" horiz-adv-x="2564" 
d="M2158 -131q10 0 23 4q40 15 75 57t56 89q18 41 18 70v8q-67 -48 -136 -118q-61 -62 -61 -92q0 -18 25 -18zM2267 330q-7 -9 -12 -19q-10 -18 -10 -33q0 -32 64 -66q48 -28 63 -50q107 74 161 119q24 19 40 19q18 0 18 -18t-26 -30q-94 -50 -178 -115q5 -19 5 -39
q0 -32 -17 -75t-59.5 -89.5t-91.5 -75t-90 -28.5q-37 4 -37 42q0 36 41.5 84t129.5 122q34 28 52 45q-17 32 -37 49t-38 29q-13 8 -23 16q-22 19 -22 50q0 11 5 26q-194 -94 -729 -99q-179 0 -610 27q-98 5 -216 5q-410 0 -603 -84l-14 -1q-23 0 -32 25l-1 8q0 38 92 59
q126 36 353 36q178 0 740 -36q166 -8 317 -8q581 6 748 130q21 17 45 34q49 33 76 33q29 0 29 -26q0 -34 -36 -42h-4q-13 0 -20 10t-13 10t-15 -5q-24 -15 -40 -33z" />
    <glyph glyph-name="t.1" unicode="&#xe04d;" horiz-adv-x="2527" 
d="M2246 352q38 117 110 286q35 81 94 195q-159 -4 -312 -14q-25 3 -28.5 12t-3.5 14q0 8 6 16q8 11 23 11h3q196 -7 328 -7q32 60 69 128q46 89 79 91q22 -5 22 -24q0 -21 -31 -72q-7 -10 -11 -18q-20 -35 -61 -104q88 1 144 3l115 2q381 10 493 18q41 -1 41 -26t-41 -25
q-121 2 -247 2l-191 -1l-136 -1q-69 0 -196 -3l-6 -10q-61 -101 -115 -207q-146 -291 -146 -475q0 -28 7 -52q10 -38 48 -38q41 0 98 63q60 66 104 150q19 34 34 34q5 0 10.5 -5t5.5 -14q0 -14 -14 -36q-77 -113 -131 -165q-61 -58 -109 -58q-24 0 -47 15q-51 36 -51 119
q0 53 29 151q-181 -107 -756 -113q-179 0 -610 27q-98 5 -216 5q-410 0 -603 -84l-14 -1q-23 0 -32 25l-1 8q0 38 92 59q126 36 353 36q178 0 740 -36q166 -8 317 -8q575 6 744 127z" />
    <glyph glyph-name="u.1" unicode="&#xe04e;" horiz-adv-x="2749" 
d="M2244 351q32 66 56 66h9q10 -1 19 -16q5 -8 5 -17t-5 -19q-32 -58 -57 -118q-17 -51 -17 -88q0 -55 27 -55q37 0 131 114q37 61 47 83q19 51 43 94q15 24 34 25q19 0 30 -15q5 -7 5 -16q0 -11 -7 -25q-94 -168 -94 -249q0 -9 2.5 -29t30.5 -30q7 -2 15 -2q43 0 105 64
q57 60 108 148q19 34 35 34q15 0 15 -18q0 -14 -16 -37q-156 -222 -247 -222q-24 0 -47 14q-46 33 -46 111q0 14 9 47q-100 -121 -164 -121q-49 0 -64 43q-10 30 -10 51q0 61 27 133v1q-186 -102 -747 -108q-179 0 -610 27q-98 5 -216 5q-410 0 -603 -84l-14 -1
q-23 0 -32 25l-1 8q0 38 92 59q126 36 353 36q178 0 740 -36q166 -8 317 -8q571 6 742 126z" />
    <glyph glyph-name="v.1" unicode="&#xe04f;" horiz-adv-x="2677" 
d="M2224 302q-187 -102 -748 -108q-179 0 -610 27q-98 5 -216 5q-410 0 -603 -84l-14 -1q-23 0 -32 25l-1 8q0 38 92 59q126 36 353 36q178 0 740 -36q166 -8 317 -8q562 6 736 121q27 74 49 74q1 0 10.5 -1t19.5 -19q4 -8 4 -17t-4 -18q-57 -151 -61 -230l-1 -37
q0 -43 10 -43q26 6 71 62q57 79 106 176q21 44 44 94q15 33 31 35q14 0 22 -12q3 -5 3 -12q0 -11 -7 -25q-22 -38 -46 -77q36 -33 90 -33q7 0 26 2t45 22q17 14 29 14q13 0 14 -12v-8q0 -6 -17 -18q-37 -23 -83 -23q-76 0 -116 36l-70 -112q-48 -75 -78 -104
q-36 -36 -68 -36q-18 0 -40 24t-22 100q0 65 23 149q1 2 1 3t1 2z" />
    <glyph glyph-name="w.1" unicode="&#xe050;" horiz-adv-x="2924" 
d="M2248 354q10 19 21 40q14 23 31 23q18 -1 28 -16q5 -7 5 -16q0 -8 -4 -17q-32 -58 -58 -119q-36 -84 -36 -133q0 -33 17 -50q12 -11 26 -11q30 0 72 55q49 65 100 177q18 41 29 53t22 12q4 0 8 -1q19 -9 19 -27q0 -19 -7 -35q-47 -101 -47 -166v-21q1 -18 19 -36
q12 -11 25 -11q30 0 72 55q49 66 105 187q22 49 47 97q14 22 33 22q16 0 26 -12q5 -7 5 -15q0 -17 -35 -56q-16 -18 -28 -37q38 -33 90 -33q7 0 26.5 2t44.5 22q18 14 30 14q13 0 14 -12v-8q0 -6 -17 -18q-37 -23 -84 -23q-76 0 -116 36l-71 -112q-83 -140 -145 -140
q-18 0 -36 12q-48 33 -48 112q0 20 4 41l-15 -25q-48 -75 -78 -104q-36 -36 -68 -36q-18 0 -36 12q-47 34 -47 110q0 71 35 158q-185 -104 -750 -110q-179 0 -610 27q-98 5 -216 5q-410 0 -603 -84l-14 -1q-23 0 -32 25l-1 8q0 38 92 59q126 36 353 36q178 0 740 -36
q166 -8 317 -8q578 6 746 129z" />
    <glyph glyph-name="x.1" unicode="&#xe051;" horiz-adv-x="2610" 
d="M2245 352q3 11 7 24q9 25 31 26q11 0 19.5 -8.5t8.5 -20.5q0 -11 -7 -23q-17 -51 -17 -106q0 -22 3 -44q211 212 241 212q22 0 22 -21q0 -14 -13 -20q-66 -27 -243 -204q15 -95 55 -108q43 0 113.5 59t127.5 151q20 34 35 34q6 0 11 -5t5 -13q0 -15 -16 -37
q-185 -220 -276 -220q-67 0 -101 90q-63 -74 -113 -153q-7 -11 -16 -11q-19 0 -19 16q0 6 4 13q42 67 135 168q-12 42 -12 99q0 27 6 60q-179 -110 -760 -116q-179 0 -610 27q-98 5 -216 5q-410 0 -603 -84l-14 -1q-23 0 -32 25l-1 8q0 38 92 59q126 36 353 36
q178 0 740 -36q166 -8 317 -8q573 6 743 127z" />
    <glyph glyph-name="y.1" unicode="&#xe052;" horiz-adv-x="2717" 
d="M1877 -991q31 25 222 448q29 61 70 142h-2q-180 -251 -272 -495q-23 -65 -23 -86q1 -9 5 -9zM2244 351q10 21 22 43q16 26 31 26q11 0 19 -8t8 -21q0 -10 -6 -23q-33 -58 -56.5 -120t-23.5 -104q0 -13 2 -21q10 -31 28 -31q56 0 195 228q21 45 37 73.5t37 28.5
q26 0 26 -22q0 -10 -19 -45q-48 -91 -118 -262l-3 -7l-75 -185q97 122 247 281q116 118 125 118q24 0 24 -22q0 -14 -27 -34q-228 -195 -425 -463q-80 -194 -154 -348q-170 -382 -222 -447q-28 -31 -52 -31q-32 0 -36 50q0 105 128 334q106 183 275 411q18 19 138 316l23 57
l38 98q-101 -160 -167 -160t-73 85q0 71 33 156q-186 -102 -747 -108q-179 0 -610 27q-98 5 -216 5q-410 0 -603 -84l-14 -1q-23 0 -32 25l-1 8q0 38 92 59q126 36 353 36q178 0 740 -36q166 -8 317 -8q571 6 742 126z" />
    <glyph glyph-name="z.1" unicode="&#xe053;" horiz-adv-x="2669" 
d="M1829 -991q31 25 222 448q29 61 70 142h-2q-180 -251 -272 -495q-23 -65 -23 -86q1 -9 5 -9zM2180 316q42 21 87 54q88 64 142 64q19 0 44 -14q31 -16 31 -70q0 -40 -24.5 -82.5t-60.5 -78.5t-74 -64q20 -27 20 -70q0 -12 -5 -50q-4 -33 -38 -99l-2 -5q97 122 247 281
q116 118 125 118q24 0 24 -22q0 -14 -27 -34q-228 -195 -425 -463q-80 -194 -154 -348q-170 -382 -222 -447q-28 -31 -52 -31h-7q-25 4 -29 50q0 105 128 334q106 183 275 411q14 15 88 192q27 73 27 110q0 35 -30 35q-8 0 -16 -2l-6 -1q-14 0 -16 23q0 27 45 53
q104 82 145 138q28 41 28 72t-27 31q-37 0 -134 -69q-61 -47 -139 -69q-202 -64 -672 -69q-179 0 -610 27q-98 5 -216 5q-410 0 -603 -84l-14 -1q-23 0 -32 25l-1 8q0 38 92 59q126 36 353 36q178 0 740 -36q166 -8 317 -8q481 5 678 91z" />
    <glyph glyph-name="a.2" unicode="&#xe054;" horiz-adv-x="2410" 
d="M-11 87q7 0 18 6q42 24 181 204q36 48 36 72q0 27 -32 27q-35 0 -72 -27q-45 -32 -79 -84t-52 -102q-16 -41 -16 -68q0 -28 16 -28zM183 207l-31 -42q-21 -29 -79 -89q-60 -52 -104 -53q-13 0 -32 9.5t-28 37.5q-4 13 -4 29q0 102 124 231q32 34 74 62q56 36 107 36
q33 0 63 -20q17 45 50 45q19 0 19 -15q0 -5 -4 -13q-31 -34 -72 -141q-16 -41 -23.5 -74.5t-7.5 -48.5q0 -121 149 -152q41 -8 84 -8q168 0 775 130q713 158 975 158q118 0 176 -28q16 -14 16 -29q0 -23 -26 -33l-10 -1q-6 0 -51 15q-65 19 -175 19q-309 0 -1003 -152
q-238 -52 -484 -91q-117 -19 -194 -19q-211 0 -273 125q-15 38 -15 72q0 25 4 40z" />
    <glyph glyph-name="b.2" unicode="&#xe055;" horiz-adv-x="2302" 
d="M277 175q-8 -21 -31 -53q-25 -33 -57 -62q-49 -47 -84 -47q-16 0 -28.5 12t-12.5 25q0 6 6 18q9 21 80 70q38 25 68 51q18 25 32 61q22 53 22 92t-31 39q-3 0 -16.5 -1.5t-45.5 -30.5q-59 -58 -104.5 -132.5t-85.5 -150.5q-23 -44 -46 -85q-27 -51 -53 -53h-5
q-15 0 -21 17q-3 7 -3 16q0 18 10 47q176 397 509 1071q50 100 95 193q24 48 57 48q5 0 10 -2q21 -8 21 -34q0 -15 -8 -32q-84 -129 -191.5 -321.5t-206.5 -398.5t-160 -374q47 73 86 126q95 128 173 129q21 0 42 -13q25 -21 25 -61q0 -32 -10 -66.5t-18 -55.5
q176 75 531 75q179 0 610 -27q98 -6 216 -6q410 0 603 85l14 1q23 0 32 -25l1 -8q0 -38 -92 -59q-126 -37 -353 -37q-178 0 -740 37q-166 7 -317 7q-348 0 -523 -85z" />
    <glyph glyph-name="c.2" unicode="&#xe056;" horiz-adv-x="2108" 
d="M87 37q44 -9 94 -9q149 0 579 108q527 122 878 175q164 24 262 24h32q96 0 159 -26q17 -15 17 -30q0 -31 -35 -34q-8 0 -47 13q-68 20 -180 20q-270 0 -852 -120l-468 -108q-227 -52 -347 -52q-100 0 -150 17.5t-71 38.5q-29 28 -29 74q0 41 27 96q31 61 67 97
q91 91 166 91q22 0 40 -13q24 -18 24 -50q0 -15 -8 -34q-6 -14 -17 -16q-11 0 -11 12q0 4 2 9q10 21 10 39q0 30 -33 30q-30 0 -70 -28q-48 -36 -78 -84q-52 -81 -52 -158q5 -62 91 -82z" />
    <glyph glyph-name="d.2" unicode="&#xe057;" horiz-adv-x="2265" 
d="M-14 82q36 0 198 210q35 47 35 72q0 27 -31 27q-33 0 -71 -26q-69 -50 -118 -157q-29 -66 -29 -100q0 -26 16 -26zM480 -204h-31q-127 0 -202 65q-82 80 -82 261q0 37 6 69q-49 -67 -109 -127q-57 -45 -100 -45t-56 47q-4 13 -4 29q0 104 123 231q94 94 167 94
q8 0 28.5 -2t50.5 -31q82 164 158 332q157 345 273 540q20 34 33 48q9 10 21 10q5 0 10 -2q21 -9 21 -35q0 -16 -8 -29q-285 -465 -483 -902q-34 -74 -58 -168q-14 -55 -14 -113q2 -62 24.5 -128.5t105.5 -96.5q51 -17 117 -17q182 0 702 174q441 148 693 219q247 67 379 67
q82 0 93 -22q6 -9 6 -24q0 -26 -35 -29q-8 0 -37 8q-35 5 -83 5q-226 0 -792 -187q-393 -129 -609 -187q-202 -54 -308 -54z" />
    <glyph glyph-name="e.2" unicode="&#xe058;" horiz-adv-x="2111" 
d="M83 238q6 0 26.5 2.5t51 24t48 50t17.5 45.5q0 28 -33 28q-4 0 -20.5 -1.5t-50.5 -25.5q-58 -44 -91 -104q25 -19 52 -19zM182 -9h-7q-140 0 -194 39t-55 100q0 41 26 94q31 61 67 97q90 90 160 90q12 0 35 -5.5t34 -34.5q4 -9 4 -19q0 -23 -18 -53q-30 -45 -87 -74
q-49 -25 -97 -25q-21 0 -42 6q-15 -51 -15 -85q0 -46 29 -65q53 -35 162 -35q149 0 579 108q860 199 1172 199q96 0 159 -26q17 -15 17 -30q0 -31 -35 -34q-8 0 -47 13q-68 20 -180 20q-270 0 -852 -120l-468 -108q-227 -52 -347 -52z" />
    <glyph glyph-name="f.2" unicode="&#xe059;" horiz-adv-x="1954" 
d="M-176 -583q13 0 34 31q57 92 71 231q8 71 8 158q0 80 -7 174q-20 -44 -51 -149t-55.5 -214.5t-25.5 -165.5q3 -65 26 -65zM-49 58v-1l6 -40l1 -12q6 -103 6 -179q0 -283 -74 -402q-41 -61 -82 -61q-64 0 -64 110q0 96 53 277q58 197 157 440q62 149 159 356
q136 289 233 430q20 26 31 26q30 0 30 -21q0 -13 -13 -32q-58 -94 -238 -446q-142 -279 -187 -392q203 145 646 145q35 0 36 1q5 -1 17 -1q66 0 455 -10q524 0 790 132q7 3 16 3q22 0 25 -26q0 -30 -41 -42q-46 -24 -166 -55q-197 -45 -441 -45q-144 0 -595 12h-84
q-420 0 -614 -122q-22 -13 -62 -45z" />
    <glyph glyph-name="g.2" unicode="&#xe05a;" horiz-adv-x="2419" 
d="M-9 85q33 0 154 155q81 98 81 132q0 24 -27 24q-49 0 -100 -43q-64 -66 -99 -145q-27 -63 -27 -97q0 -26 18 -26zM-373 -991q31 25 222 448q29 61 70 142h-2q-180 -251 -272 -495q-23 -65 -23 -86q1 -9 5 -9zM47 -208l-5 -11q-80 -194 -154 -348q-170 -382 -222 -447
q-28 -31 -52 -31h-7q-25 4 -29 50q0 105 128 334q106 183 275 411q18 19 170 408q-16 -23 -67 -77q-63 -61 -114 -61q-45 0 -61 45q-5 12 -5 32q0 80 78 181q127 153 231 153q32 0 64 -21q16 45 51 45q19 -2 19 -12q0 -14 -14 -27q-61 -78 -160 -330l-75 -185l-17 -35h1
q205 160 740 160q199 0 641 -21q101 -4 232 -4q493 0 672 123q9 7 19 7h4q20 0 29 -30v-6q0 -23 -48 -45q-152 -87 -562 -87q-149 0 -692 26q-146 6 -280 6q-549 0 -741 -157q-21 -15 -49 -46z" />
    <glyph glyph-name="h.2" unicode="&#xe05b;" horiz-adv-x="2425" 
d="M482 -54q-211 0 -273 125q-15 38 -15 72q0 23 5.5 57t36.5 114q11 32 11 46q0 17 -15 17q-20 0 -48 -30q-72 -79 -150 -225q-48 -91 -50 -97q-13 -25 -37 -25q-11 0 -19.5 8.5t-8.5 23.5q9 79 110 345q84 220 192 464q210 474 252 474q8 0 16 -5q18 -9 18 -26
q0 -19 -21 -53q-144 -243 -267.5 -518t-180.5 -489q67 104 138 165q40 34 76 34q50 0 50 -63q0 -35 -15 -67q-22 -48 -31 -134l-1 -23q0 -71 50 -113q62 -46 178 -46q168 0 775 130q713 158 975 158q118 0 176 -28q16 -14 16 -29q0 -30 -36 -34q-6 0 -51 15q-65 19 -175 19
q-309 0 -1003 -152q-238 -52 -484 -91q-117 -19 -194 -19z" />
    <glyph glyph-name="i.2" unicode="&#xe05c;" horiz-adv-x="2149" 
d="M159 563q-12 0 -21 9t-9 26q0 7 6 13t15 10t19 4q21 0 21 -27q0 -17 -9 -26t-22 -9zM220 -10q-118 0 -170 36q-75 50 -75 163q0 78 69 205q15 26 29 26q12 0 20.5 -8t8.5 -21q0 -10 -6 -23q-75 -131 -75 -211v-8q7 -86 87 -115q52 -14 114 -14q149 0 579 108
q860 199 1172 199q96 0 159 -26q17 -15 17 -30q0 -31 -35 -34q-8 0 -47 13q-68 20 -180 20q-270 0 -852 -120l-468 -108q-227 -52 -347 -52z" />
    <glyph glyph-name="j.2" unicode="&#xe05d;" horiz-adv-x="2218" 
d="M-581 -991q31 25 222 448q29 61 70 142h-2q-180 -251 -272 -495q-23 -65 -23 -86q1 -9 5 -9zM171 568h-3q-34 0 -34 34t32 34q33 -3 33 -34t-28 -34zM-158 -201l-8 -18q-80 -194 -154 -348q-170 -382 -222 -447q-28 -31 -52 -31h-7q-25 4 -29 50q0 105 128 334
q106 183 275 411q18 19 138 316t145 343q9 13 23 13q7 0 16 -3q14 -9 14 -22l-1 -6q-58 -87 -143 -305l-75 -185l-13 -27q2 1 4 3q205 160 740 160q199 0 641 -21q101 -4 232 -4q493 0 672 123q9 7 19 7h4q20 0 29 -30v-6q0 -23 -48 -45q-152 -87 -562 -87q-149 0 -692 26
q-146 6 -280 6q-549 0 -741 -157q-22 -16 -53 -50z" />
    <glyph glyph-name="k.2" unicode="&#xe05e;" horiz-adv-x="2117" 
d="M-125 -53q-23 0 -23 24q0 11 7 28q92 184 239 519q93 213 189 418.5t187 356.5q20 29 38 29q2 0 12.5 -1t18.5 -22q3 -7 3 -15q0 -15 -11 -32q-20 -29 -69.5 -116t-113 -204.5t-124.5 -238.5t-105 -218.5t-54 -145.5q34 38 75 69q64 46 91 46q24 0 24 -21
q0 -4 -3.5 -14.5t-33.5 -23.5q-46 -21 -81 -42q-66 -41 -114 -125q-16 -30 -16 -54q0 -47 86 -71q43 -9 93 -9q149 0 579 108q860 199 1172 199q96 0 159 -26q17 -15 17 -30q0 -31 -35 -34q-8 0 -47 13q-68 20 -180 20q-270 0 -852 -120l-468 -108q-228 -52 -361 -52
q-122 0 -202 50q-11 -20 -30 -65t-34 -73q-13 -19 -33 -19z" />
    <glyph glyph-name="l.2" unicode="&#xe05f;" horiz-adv-x="2126" 
d="M262 -50h-31q-127 0 -202 65q-59 59 -59 141q0 168 252 669q146 288 254 465q19 26 40 27q21 -5 22 -21q0 -24 -43 -93q-46 -83 -106 -182.5t-123 -208.5q-246 -426 -246 -640q0 -105 62 -148.5t171 -43.5q182 0 702 174q441 148 693 219q247 67 379 67q82 0 93 -22
q6 -9 6 -24q0 -26 -35 -29q-8 0 -37 8q-35 5 -83 5q-226 0 -792 -187q-393 -129 -609 -187q-202 -54 -308 -54z" />
    <glyph glyph-name="m.2" unicode="&#xe060;" horiz-adv-x="2600" 
d="M671 -11q-131 0 -207 48q-47 34 -47 108q0 25 7 64q11 62 33 106q20 48 20 66q0 21 -16 21q-40 0 -111 -97q-73 -102 -108 -197q-24 -80 -59 -80q-8 0 -17 4q-17 7 -17 27q0 25 30 92q67 160 67 213q0 24 -14 24q-35 0 -157 -145q-45 -57 -119 -201q-14 -25 -36 -25
t-22 30q0 25 55 148q76 169 112 224q15 21 35 21q22 0 22 -21q0 -15 -18 -50q-5 -8 -9 -17t-9 -20q-14 -27 -31 -67l11 13q122 150 190 150q31 0 47 -28q9 -18 9 -46q0 -23 -6 -53l51 58q81 89 133 89q44 0 44 -51q-1 -50 -23 -96q-43 -97 -43 -159q0 -90 89 -108
q53 -15 116 -15q149 0 579 108q860 199 1172 199q96 0 159 -26q17 -15 17 -30q0 -31 -35 -34q-8 0 -47 13q-68 20 -180 20q-270 0 -852 -120l-468 -108q-227 -52 -347 -52z" />
    <glyph glyph-name="n.2" unicode="&#xe061;" horiz-adv-x="2423" 
d="M494 -10q-115 0 -183 33t-71 125q0 78 43 172q14 32 14 49q0 21 -19 21q-9 0 -22 -4q-48 -16 -102 -66q-48 -42 -77 -78q-46 -58 -78 -143l-8 -18q-24 -59 -52 -59l-9 1q-18 5 -18 41q0 25 13 62q70 177 115 273q12 27 37 27q13 0 21 -7t8 -17q0 -6 -3 -15
q-17 -36 -49 -127q56 60 126.5 110.5t128.5 50.5q42 0 42 -40q0 -35 -31 -118q-30 -73 -30 -123q0 -88 93 -106q52 -14 113 -14q149 0 579 108q860 199 1172 199q96 0 159 -26q17 -15 17 -30q0 -31 -35 -34q-8 0 -47 13q-68 20 -180 20q-270 0 -852 -120l-468 -108
q-227 -52 -347 -52z" />
    <glyph glyph-name="o.2" unicode="&#xe062;" horiz-adv-x="2356" 
d="M40 54q29 0 77 68q46 65 62 123q-35 17 -63 45.5t-36 40.5q-31 -36 -58 -116q-20 -59 -20 -100q0 -61 38 -61zM189 276q8 27 8 51q0 57 -44 57q-35 0 -35 -18q0 -15 15 -37q30 -43 56 -53zM213 223q-16 -50 -62 -120q-57 -83 -129 -83q-78 0 -93 86q-1 9 -1 19
q0 106 139 255q32 34 71 34q50 0 74 -42q17 -32 17 -73q0 -20 -5 -39l-1 -3q71 -45 224 -45h37q199 0 812 88q460 62 713 62h32q246 0 311 -62q4 -12 4 -17v-9q-8 -28 -29 -28h-5q-4 0 -61 26q-101 36 -324 36h-27q-346 0 -999 -94q-274 -36 -422 -36h-31q-170 0 -245 45z
" />
    <glyph glyph-name="p.2" unicode="&#xe063;" horiz-adv-x="2095" 
d="M33 16q-10 -2 -20 -2q-6 0 -25.5 2.5t-49.5 31.5q-164 -322 -399 -1011q-20 -53 -52 -53q-26 0 -26 33q0 40 163 409q90 205 278 650q22 52 49 112q48 105 88 208q14 38 40 38q13 0 21 -11q4 -5 4 -14q0 -23 -67 -166q49 68 109 128q56 45 102 45q37 0 54 -47
q4 -13 4 -29q0 -104 -123 -231q-24 -25 -54 -47q-20 -15 -39 -26q37 -6 78 -6q149 0 579 108q527 122 878 175q164 24 262 24h32q96 0 159 -26q17 -15 17 -30q0 -31 -35 -34q-8 0 -47 13q-68 20 -180 20q-270 0 -852 -120l-468 -108q-227 -52 -347 -52q-76 0 -133 16z
M-11 74q27 -17 52 -26q2 -1 3 -1q23 6 47 23q69 50 118 158q29 65 29 99q0 26 -16 26q-37 0 -198 -211q-33 -44 -35 -68z" />
    <glyph glyph-name="q.2" unicode="&#xe064;" horiz-adv-x="2238" 
d="M316 458h10q15 -3 15 -15q0 -8 -30 -46q-102 -158 -267 -522q85 80 260 125q178 45 493 45q119 0 607 -21q76 -3 155 -3q471 0 639 119l10 3q30 -7 30 -30v-7q0 -29 -123 -71q-147 -48 -405 -48h-6q-12 0 -19 -2q-9 2 -21 2h-27q-251 6 -704 27q-69 1 -134 1h-54
q-556 0 -715 -196q21 -23 21 -71q0 -148 -153 -478q-39 -79 -94 -160q-54 -70 -72 -70q0 -3 -11 -3h-7q-30 6 -30 42v13q0 145 439 1042h-3q-80 -98 -148 -98q-40 0 -56 45q-5 17 -5 32q0 108 145 247q86 74 153 74q31 0 64 -19v2q20 41 43 41zM-20 121q0 -21 16 -21
q45 12 159 165q67 76 67 110v6q0 16 -24 19h-6q-91 0 -176 -159q-36 -70 -36 -120zM-243 -881v-2q34 36 76 107q65 114 113 226q72 211 72 293v19q0 21 -7 39q-3 0 -65 -147q-184 -439 -189 -535z" />
    <glyph glyph-name="r.2" unicode="&#xe065;" horiz-adv-x="2346" 
d="M363 -65q-253 0 -253 210q0 42 13 91q16 63 44 120q-61 0 -91 9q-13 -21 -27 -48q-34 -66 -44 -68q-5 -2 -8 -2q-5 0 -13 5.5t-8 16.5q0 6 54 100l7 15q-13 10 -13 25q0 8 6 17q12 17 32 17q12 0 23 -12q6 -7 6 -19q0 -11 -8 -26q7 -2 16 -2q47 0 110 26q8 4 15 4
q16 0 25 -12q4 -6 4 -13q0 -14 -19 -46q-5 -7 -8 -14q-52 -126 -52 -205q0 -68 39 -100q60 -57 191 -57q168 0 775 130q713 158 975 158q118 0 176 -28q16 -14 16 -29q0 -30 -36 -34q-6 0 -51 15q-65 19 -175 19q-309 0 -1003 -152q-509 -111 -718 -111z" />
    <glyph glyph-name="s.2" unicode="&#xe066;" horiz-adv-x="2156" 
d="M-49 -131q47 0 98 61q74 89 74 167q-67 -48 -136 -118q-61 -62 -61 -92q0 -18 25 -18zM-73 -170q-37 4 -37 42q0 36 41.5 84t129.5 122q34 28 52 45q-17 32 -37 49t-38 29q-13 8 -23 16q-22 19 -22 50q0 56 95 122q49 33 76 33q29 0 29 -26q0 -34 -36 -42q-17 0 -24 10
t-13 10t-15 -5q-41 -26 -57 -58q-10 -18 -10 -33q0 -32 64 -66q47 -27 62 -49q251 141 1136 141h19q75 -3 138 -3q269 0 416 26.5t229 67.5q7 3 16 3q22 0 25 -26q0 -30 -41 -42q-46 -24 -204 -46q-133 -18 -327 -18l-76 1q-124 7 -347 7q-172 0 -452 -16.5t-481 -96.5
q-23 -11 -35 -24q5 -19 5 -39q0 -32 -17 -75t-59.5 -89.5t-91.5 -75t-90 -28.5z" />
    <glyph glyph-name="t.2" unicode="&#xe067;" horiz-adv-x="2205" 
d="M-26 156q0 120 153 482q35 81 94 195q-159 -4 -312 -14q-25 3 -28.5 12t-3.5 14q0 8 6 16q8 11 23 11h3q196 -7 328 -7q32 60 69 128q46 89 79 91q22 -5 22 -24q0 -21 -31 -72q-7 -10 -11 -18q-20 -35 -61 -104q88 1 144 3l115 2q381 10 493 18q41 -1 41 -26t-41 -25
q-121 2 -247 2l-191 -1l-136 -1q-69 0 -196 -3l-6 -10q-61 -101 -115 -207q-118 -236 -141 -402q-3 -23 -3 -43q0 -107 70 -149q34 -23 88 -34q41 -8 84 -8q168 0 775 130q713 158 975 158q118 0 176 -28q16 -14 16 -29q0 -23 -26 -33l-10 -1q-6 0 -51 15q-65 19 -175 19
q-309 0 -1003 -152q-238 -52 -484 -91q-117 -19 -194 -19q-211 0 -273 125q-15 38 -15 72v8z" />
    <glyph glyph-name="u.2" unicode="&#xe068;" horiz-adv-x="2431" 
d="M488 -60q-211 0 -273 125q-15 38 -15 78q0 19 9 52q-100 -121 -164 -121q-49 0 -64 43q-10 30 -10 51q0 61 27 133q45 116 77 116h9q10 -1 19 -16q5 -8 5 -17t-5 -19q-32 -58 -57 -118q-17 -51 -17 -88q0 -55 27 -55q37 0 131 114q37 61 47 83q19 51 43 94q15 24 34 25
q19 0 30 -15q5 -7 5 -16q0 -11 -7 -25q-56 -100 -73 -154q-14 -43 -14 -77q0 -8 2.5 -31t38.5 -69q37 -38 112 -54q41 -8 84 -8q168 0 775 130q713 158 975 158q118 0 176 -28q16 -14 16 -29q0 -30 -36 -34q-6 0 -51 15q-65 19 -175 19q-309 0 -1003 -152q-238 -52 -484 -91
q-117 -19 -194 -19z" />
    <glyph glyph-name="v.2" unicode="&#xe069;" horiz-adv-x="2416" 
d="M256 279l-2 -3l-70 -112q-48 -75 -78 -104q-36 -36 -68 -36q-18 0 -40 24t-22 100q0 66 24 152q36 120 64 120q1 0 10.5 -1t19.5 -19q4 -8 4 -17t-4 -18q-57 -151 -61 -230l-1 -37q0 -43 10 -43q26 6 71 62q57 79 106 176q21 44 44 94q15 33 31 35q14 0 22 -12
q3 -5 3 -12q0 -11 -7 -25q-18 -32 -38 -64q76 -55 233 -55h37q199 0 812 88q460 62 713 62h32q246 0 311 -62q4 -12 4 -17v-9q-8 -28 -29 -28h-5q-4 0 -61 26q-101 36 -324 36h-27q-346 0 -999 -94q-274 -36 -422 -36h-31q-183 0 -262 59z" />
    <glyph glyph-name="w.2" unicode="&#xe06a;" horiz-adv-x="2665" 
d="M506 274l-70 -110q-83 -140 -145 -140q-18 0 -36 12q-48 33 -48 112q0 20 4 41l-15 -25q-48 -75 -78 -104q-36 -36 -68 -36q-18 0 -36 12q-47 34 -47 110q0 106 78 248q14 23 31 23q18 -1 28 -16q5 -7 5 -16q0 -8 -4 -17q-32 -58 -58 -119q-36 -84 -36 -133q0 -33 17 -50
q12 -11 26 -11q30 0 72 55q49 65 100 177q18 41 29 53t22 12q4 0 8 -1q19 -9 19 -27q0 -19 -7 -35q-47 -101 -47 -166v-21q1 -18 19 -36q12 -11 25 -11q30 0 72 55q49 66 105 187q22 49 47 97q14 22 33 22q16 0 26 -12q5 -7 5 -15q0 -17 -35 -56q-13 -15 -24 -30
q70 -51 233 -51h37q199 0 812 88q460 62 713 62h32q246 0 311 -62q4 -12 4 -17v-9q-8 -28 -29 -28h-5q-4 0 -61 26q-101 36 -324 36h-27q-346 0 -999 -94q-274 -36 -422 -36h-31q-190 0 -261 56z" />
    <glyph glyph-name="x.2" unicode="&#xe06b;" horiz-adv-x="2228" 
d="M-110 -46q-19 0 -19 16q0 6 4 13q42 67 135 168q-12 42 -12 99q0 51 22 126q16 26 31 26q11 0 19.5 -8.5t8.5 -20.5q0 -11 -7 -23q-17 -51 -17 -106q0 -22 3 -44q211 212 241 212q22 0 22 -21q0 -14 -13 -20q-66 -27 -243 -204q20 -148 221 -148q168 0 775 130
q713 158 975 158q118 0 176 -28q16 -14 16 -29q0 -30 -36 -34q-6 0 -51 15q-65 19 -175 19q-309 0 -1003 -152q-238 -52 -484 -91q-118 -19 -205 -19q-123 0 -181 45.5t-74 84.5q-63 -74 -113 -153q-7 -11 -16 -11z" />
    <glyph glyph-name="y.2" unicode="&#xe06c;" horiz-adv-x="2449" 
d="M-344 -991q31 25 222 448q29 61 70 142h-2q-180 -251 -272 -495q-23 -65 -23 -86q1 -9 5 -9zM78 -204l-7 -15q-80 -194 -154 -348q-170 -382 -222 -447q-28 -31 -52 -31q-32 0 -36 50q0 105 128 334q106 183 275 411q18 19 138 316l23 57l38 98q-101 -160 -167 -160
t-73 85q0 108 76 248q16 26 31 26q11 0 19 -8t8 -21q0 -10 -6 -23q-33 -58 -56.5 -120t-23.5 -104q0 -13 2 -21q10 -31 28 -31q56 0 195 228q21 45 37 73.5t37 28.5q26 0 26 -22q0 -10 -19 -45q-48 -91 -118 -262l-3 -7l-75 -185l-15 -32q205 160 740 160q199 0 641 -21
q101 -4 232 -4q493 0 672 123q9 7 19 7h4q20 0 29 -30v-6q0 -23 -48 -45q-152 -87 -562 -87q-149 0 -692 26q-146 6 -280 6q-549 0 -741 -157q-21 -15 -48 -45z" />
    <glyph glyph-name="z.2" unicode="&#xe06d;" horiz-adv-x="2466" 
d="M-324 -991q31 25 222 448q29 61 70 142h-2q-180 -251 -272 -495q-23 -65 -23 -86q1 -9 5 -9zM96 -208l-5 -11q-80 -194 -154 -348q-170 -382 -222 -447q-28 -31 -52 -31h-7q-25 4 -29 50q0 105 128 334q106 183 275 411q14 15 88 192q27 73 27 110q0 35 -30 35
q-8 0 -16 -2l-6 -1q-14 0 -16 23q0 27 45 53q104 82 145 138q28 41 28 72t-27 31q-49 0 -185 -122q-26 -30 -51 -30q-8 0 -21 5.5t-13 42.5q0 63 38 63q11 0 24 -10q10 -6 16 -6q5 0 10 4q107 86 170 86q19 0 44 -14q31 -16 31 -70q0 -40 -24.5 -82.5t-60.5 -78.5t-74 -64
q20 -27 20 -70q0 -12 -10.5 -54t-51.5 -136q205 159 739 159q199 0 641 -21q101 -4 232 -4q493 0 672 123q9 7 19 7h4q20 0 29 -30v-6q0 -23 -48 -45q-152 -87 -562 -87q-149 0 -692 26q-146 6 -280 6q-549 0 -741 -157q-20 -15 -47 -44z" />
  </font>
</defs>
</svg>
